<svg width="22" height="22" viewBox="0 0 22 22" fill="none" xmlns="http://www.w3.org/2000/svg">
<path d="M20.9975 9.55946C21.1273 4.44625 16.1628 0.958075 11.0101 1.00038C5.90619 1.04229 0.878382 4.49449 1.00224 9.55946C1.08381 12.8951 5.75816 16.3533 5.75816 16.3533L5.01355 20.6226L9.50063 17.5438C9.50063 17.5438 11.0966 17.6697 12.1063 17.5438C16.7521 16.9648 20.8757 14.3595 20.9975 9.55946Z" stroke="white"/>
<path d="M6.41894 8.622V12H5.50694V8.622H4.37294V7.812H7.55294V8.622H6.41894ZM10.3643 12L10.0643 11.004H8.66627L8.36627 12H7.44227L8.82227 7.812H9.95027L11.3123 12H10.3643ZM9.37427 8.64H9.34427L8.88227 10.23H9.84227L9.37427 8.64ZM11.8917 12V7.812H12.8037V11.19H14.3997V12H11.8917ZM16.5313 10.176L15.9853 10.836V12H15.0733V7.812H15.9853V9.804H16.0213L16.6153 8.994L17.5573 7.812H18.5893L17.1793 9.534L18.7153 12H17.6413L16.5313 10.176Z" fill="white"/>
</svg>