<svg width="320" height="342" viewBox="0 0 320 342" fill="none" xmlns="http://www.w3.org/2000/svg">
<g filter="url(#filter0_d_501_3)">
<rect x="9" y="23.3467" width="300" height="300" fill="#F9EF97"/>
</g>
<path d="M31.2996 127.504C30.8676 127.468 30.6516 127.288 30.9036 126.496C31.0836 125.524 31.1556 124.516 31.2276 123.544C32.8836 123.004 34.9356 122.5 35.4036 122.392C35.5476 126.28 35.4756 132.004 35.6916 135.748C35.7276 136.36 35.7636 138.124 36.5916 138.124C37.3836 138.124 37.8156 136.288 37.8156 135.604C37.9596 130.276 37.9596 122.752 37.9956 119.332C38.0316 117.172 37.2036 115.444 35.6556 114.076C34.9716 113.464 34.1436 112.852 33.2076 113.86C32.4516 114.652 33.4956 115.48 34.0716 116.092C34.7916 116.884 35.2596 117.352 35.3316 118.108C35.3676 118.468 35.3676 119.044 35.3676 119.44C35.3676 119.872 35.1156 120.232 34.3956 120.376L31.2636 121.276C31.2636 120.88 31.2276 120.52 31.2276 120.16C31.1196 117.748 30.0036 117.064 27.9876 117.892C26.1156 118.648 24.2076 119.728 22.3716 120.268C21.4716 120.52 20.9676 120.34 20.4276 119.872C20.0316 119.512 18.9516 119.44 18.5556 120.376C18.1956 121.168 18.5556 121.672 19.2036 122.212C21.3996 124.192 22.0116 126.424 22.1556 129.196C22.1916 130.132 22.7676 130.996 23.7756 130.708C26.7996 129.808 29.2116 129.736 31.4076 129.592C31.9476 129.556 32.2716 129.196 32.2716 128.512C32.2716 127.972 31.9836 127.576 31.2996 127.504ZM40.6956 139.96C40.6956 141.652 41.0196 143.56 41.7756 143.56C42.6036 143.56 43.1436 141.256 43.1436 139.744C43.1436 134.848 43.0356 123.004 43.2876 118.396C43.5036 114.724 42.1356 112.996 40.0476 111.16C39.2196 110.404 38.1036 109.792 37.3476 110.656C36.4116 111.772 37.3116 112.456 38.0676 112.96C39.8676 114.148 40.6956 115.768 40.6596 118.288C40.5876 122.536 40.6956 136.324 40.6956 139.96ZM25.3236 128.116C24.8916 128.188 24.4956 128.044 24.3516 127.684C24.1356 127.108 23.8836 124.552 23.2716 123.472C22.8396 122.716 23.0916 122.212 23.9916 121.924C24.9276 121.636 26.0076 121.132 27.3756 120.628C28.3116 120.268 28.5996 120.7 28.7076 121.78C28.7796 123.004 28.9596 125.956 28.5996 127.612C27.6276 127.612 26.0076 128.008 25.3236 128.116ZM69.0206 143.704C69.7406 143.704 70.2086 141.364 70.2806 140.104C70.3526 136.18 70.2446 132.004 70.2446 127.54C70.2446 126.712 70.5686 126.532 71.0726 126.424C72.1526 126.208 74.0606 125.884 75.0326 125.812C75.8246 125.74 76.4006 125.344 76.4006 124.372C76.4006 123.472 75.4286 123.472 74.4206 123.58C73.3406 123.688 71.4686 123.976 70.2446 124.3C70.2086 122.5 70.2446 118.324 70.2446 116.992C70.2446 114.904 69.8846 112.564 67.5446 110.944C66.8246 110.44 65.8166 110.008 65.1326 110.908C64.5206 111.736 65.0246 112.204 65.7086 112.744C67.0406 113.752 67.7246 115.048 67.6886 116.668C67.6526 118.18 67.6526 120.556 67.6886 123.22C67.6166 125.02 67.2206 125.992 65.5646 126.496C63.8366 127.036 59.8406 128.872 57.3566 129.484C56.5286 129.7 55.4126 129.844 55.4846 128.476C55.5206 127.612 55.0886 124.876 54.9806 124.3C54.8726 123.724 55.0886 123.472 55.9886 123.22C57.1046 122.932 59.1926 122.536 60.2006 122.248C60.8846 122.068 62.1806 121.744 61.9646 120.736C61.7486 119.728 60.5606 119.728 59.6246 119.98C57.3206 120.592 54.6206 121.42 52.2446 122.176C51.3806 122.428 51.0566 123.184 51.4886 123.652C53.6846 125.452 52.8926 129.268 52.6046 130.816C52.3526 132.184 53.6846 132.976 55.4846 132.508C58.9406 131.608 64.1246 129.304 67.7246 127.972C67.7606 132.868 67.8686 137.872 67.9046 140.5C67.9046 141.652 68.3366 143.704 69.0206 143.704ZM59.7686 115.12C58.4726 115.264 54.8366 116.416 52.7486 117.1C52.0646 117.316 51.1646 117.82 51.4886 118.756C51.8486 119.728 52.8206 119.512 53.7206 119.188C55.7726 118.54 58.1486 117.496 60.2726 117.244C61.0286 117.172 62.3966 117.028 62.2166 116.092C61.9646 114.832 60.6686 115.012 59.7686 115.12ZM92.6656 118.72C91.6936 117.316 90.4336 116.632 89.0656 116.704C85.7176 116.92 82.2976 120.736 82.8016 124.264C83.2336 127.288 86.4736 128.188 89.0296 127.468C90.9736 126.928 92.7376 125.38 93.2776 123.4C93.6016 122.212 93.7096 120.232 92.6656 118.72ZM88.5616 125.308C87.0136 125.74 85.3216 125.272 85.2136 123.328C85.1056 121.636 87.0856 118.864 89.1376 118.972C90.2176 119.044 91.0816 120.232 91.0816 121.564C91.0816 123.4 90.1816 124.84 88.5616 125.308ZM100.622 126.856C100.622 129.16 100.694 131.716 100.874 133.264C100.91 133.66 101.126 134.236 101.522 134.272C101.846 134.272 102.386 133.768 102.602 132.904C103.106 130.78 103.106 128.656 103.106 126.424V116.416C103.106 113.392 102.458 111.916 99.5776 110.548C98.3536 109.972 97.6336 109.72 97.1296 110.656C96.6256 111.592 97.3096 112.312 98.4256 112.78C100.01 113.464 100.55 114.22 100.55 115.48L100.622 126.856ZM104.114 138.304C103.718 137.62 102.602 138.592 102.134 138.88C100.442 139.924 99.1816 139.924 97.9216 139.852C94.8976 139.636 92.7376 136.684 90.5416 134.56C89.3536 133.372 88.2376 132.22 86.5096 131.932C85.6816 131.788 84.4576 131.788 84.3856 132.796C84.2776 133.84 85.0696 134.272 85.7896 134.38C87.7336 134.632 88.6696 136.18 89.7856 137.332C91.6216 139.204 92.9536 140.356 95.3296 141.436C97.8496 142.588 100.622 142.228 102.746 140.464C103.754 139.636 104.366 138.736 104.114 138.304ZM110.263 132.796C110.371 133.192 111.595 133.012 112.351 132.796C114.691 132.148 117.607 130.384 119.623 128.62C120.667 127.72 121.315 127.072 121.963 126.496C123.367 127.216 124.447 128.224 125.311 129.304C125.851 129.988 126.715 130.852 127.435 130.24C128.335 129.448 127.507 128.188 126.895 127.468C126.535 127.036 125.059 125.812 124.339 125.344C123.943 125.092 123.367 124.624 123.583 123.904C123.835 123.04 124.735 121.564 125.167 120.628C125.671 119.656 126.787 118.54 126.103 117.496C125.599 116.704 124.843 117.1 124.159 117.28C121.819 118.144 119.443 118.864 116.887 118.648C116.059 118.648 115.555 118.936 115.555 119.98C115.663 120.844 116.239 120.844 116.887 120.916C118.615 121.132 120.703 120.484 122.503 120.16C120.883 125.848 115.519 129.304 111.631 131.608C111.163 131.896 110.119 132.292 110.263 132.796ZM131.431 117.964C131.431 124.696 131.539 136.216 131.683 140.608C131.719 141.688 131.935 143.56 132.655 143.56C133.483 143.56 133.915 141.292 133.915 140.536C134.059 133.048 134.023 125.56 134.023 117.352C134.023 114.832 132.799 111.952 130.027 110.836C129.343 110.548 128.587 110.44 128.083 111.232C127.615 111.988 128.011 112.492 128.659 112.888C130.567 114.04 131.431 115.012 131.431 117.964ZM165.12 120.628C167.316 119.584 169.404 118.216 172.068 118.252C172.788 118.288 173.292 117.892 173.184 117.172C173.112 116.524 172.536 116.2 171.816 116.128C169.584 115.984 167.676 116.956 165.768 117.928C165.012 118.324 164.58 118.54 164.04 118.756C163.212 119.08 162.456 118.972 162.204 118.288C161.88 117.46 161.592 116.776 161.34 115.696C163.104 114.94 166.488 113.608 168.756 113.752C169.26 113.788 169.908 113.428 169.908 112.672C169.908 112.024 169.26 111.664 168.576 111.7C166.272 111.808 162.816 112.672 160.116 114.04C159.288 114.472 158.784 115.084 159 116.056C159.144 116.668 159.864 118.828 160.332 119.8C161.196 121.564 163.248 121.456 165.12 120.628ZM170.736 121.348C167.28 122.572 160.836 125.488 157.128 126.748C155.76 127.216 154.104 127.108 152.592 127.144C152.052 127.18 151.368 127.72 151.476 128.476C151.476 129.232 152.124 129.412 152.772 129.412C154.788 129.448 156.948 129.376 158.676 128.692C162.384 127.18 171.276 123.292 173.436 122.644C174.12 122.428 176.028 122.032 176.82 121.96C177.288 121.924 177.972 121.6 177.9 120.916C177.828 120.232 177.288 119.98 176.784 119.944C174.984 119.8 172.896 120.592 170.736 121.348ZM174.84 141.796C173.724 142.12 172.104 141.976 171.024 141.688C168.936 141.112 166.02 139.708 164.148 137.044C166.38 135.856 169.008 134.812 170.88 134.632C172.14 135.028 174.012 134.596 174.084 133.012C174.156 131.644 174.192 129.88 174.408 128.404C174.696 126.964 174.084 126.424 173.292 126.424C172.932 126.424 172.356 126.568 171.924 126.748C166.704 128.728 161.664 130.744 156.912 132.652C156.156 133.012 155.148 133.588 155.508 134.452C156.084 135.46 157.2 135.172 158.064 134.776C158.676 134.488 159.36 134.02 160.08 133.696C162.708 132.508 167.892 130.6 170.484 129.592C171.456 129.196 171.564 129.196 171.636 129.664C171.672 129.844 171.564 131.248 171.528 131.608C171.456 132.184 171.42 132.472 170.016 132.76C167.928 133.192 162.096 135.172 159.648 136.432C159.036 136.756 158.352 137.152 158.604 137.836C158.784 138.448 159.396 139.06 159.864 138.844C160.26 138.628 160.656 138.592 161.016 138.592C161.952 138.628 162.852 139.636 163.68 140.392C165.624 142.12 168.144 142.984 170.52 143.56C171.744 143.848 174.192 143.776 175.416 143.164C175.992 142.84 176.784 142.588 176.388 141.796C176.172 141.328 175.704 141.544 174.84 141.796ZM190.42 118.72C187.324 118.72 184.3 122.14 184.336 125.524C184.372 128.764 186.532 130.744 189.88 130.744C193.804 130.744 196.288 128.188 196.324 124.3C196.324 120.592 194.416 118.648 190.42 118.72ZM202.696 119.116C202.696 119.692 202.228 120.088 201.688 120.232C201.004 120.412 198.952 120.952 197.8 121.42C197.08 121.708 196.612 122.104 196.864 122.824C197.188 123.724 198.016 123.688 198.664 123.436C199.708 123.04 201.436 122.572 202.696 122.392C202.732 128.944 202.84 137.08 202.948 140.608C202.984 141.688 203.2 143.56 203.92 143.56C204.748 143.56 205.18 141.292 205.18 140.536C205.324 133.048 205.288 125.56 205.288 117.352C205.288 114.832 204.064 111.952 201.292 110.836C200.608 110.548 199.852 110.44 199.348 111.232C198.88 111.988 199.276 112.492 199.924 112.888C201.832 114.04 202.696 115.012 202.696 117.964V119.116ZM194.056 124.264C194.056 126.784 191.932 128.836 189.808 128.548C187.828 128.296 186.64 127.252 186.748 124.732C186.82 123.04 188.836 120.772 191.284 120.664C192.868 121.024 194.056 122.14 194.056 124.264ZM232.245 128.62C233.289 128.692 234.261 127.828 233.397 126.424C232.857 125.596 233.253 124.516 233.433 123.724C233.973 121.6 233.973 118.36 233.217 115.876C233.073 115.408 232.713 113.932 231.489 114.22C230.517 114.436 230.481 115.192 230.661 116.056C230.949 117.46 231.453 118.648 231.453 120.016C231.453 120.592 231.345 121.024 230.841 120.952C228.861 120.628 226.773 121.348 224.793 121.78C223.857 121.996 223.353 122.284 222.597 121.672C221.337 120.628 219.861 119.656 218.457 118.864C217.845 118.504 217.269 118.504 216.801 119.152C216.333 119.8 216.873 120.448 217.305 120.736C218.277 121.42 219.969 122.428 221.121 123.688C221.913 124.552 222.453 125.848 222.381 126.856C222.021 130.636 223.929 129.556 225.909 129.124L227.205 128.908C227.205 130.528 227.349 133.12 226.665 134.668C223.893 135.604 222.309 136.432 219.177 137.188C217.701 137.548 216.729 137.44 215.397 137.332C214.641 137.26 213.669 137.152 213.417 138.124C213.165 139.096 213.993 139.492 214.785 139.744C217.557 140.608 223.101 138.412 225.765 137.476C229.221 136.252 232.785 136.54 235.953 138.052C236.925 138.52 238.437 139.24 238.941 137.944C239.157 137.404 238.113 136.648 237.789 136.468C236.133 135.532 231.849 134.416 229.761 134.56C229.293 134.596 229.221 134.2 229.257 133.732C229.365 132.148 229.329 130.204 229.797 128.656C230.805 128.584 231.705 128.584 232.245 128.62ZM225.873 127.252C224.505 127.54 224.685 125.596 224.541 125.02C224.397 124.48 224.577 123.904 225.117 123.796C226.629 123.472 228.609 122.968 229.833 123.04C230.733 123.076 231.237 123.292 231.093 124.408C230.985 125.128 231.057 126.064 230.805 126.388C229.617 126.46 227.673 126.856 225.873 127.252ZM259.706 137.512C258.482 136.54 256.718 135.46 256.034 135.1C255.422 134.812 255.494 134.344 255.71 133.984C256.106 133.336 256.322 132.796 256.538 132.184C256.79 131.464 256.862 130.6 255.854 130.24C254.558 129.772 254.306 130.636 254.018 131.536C253.406 133.624 252.146 135.568 250.562 137.044C249.05 138.484 247.394 139.888 246.062 140.86C245.558 141.22 245.09 141.616 245.378 142.084C245.666 142.552 246.818 142.192 247.25 141.976C249.734 140.716 252.542 138.376 253.874 137.188C254.09 137.008 254.45 136.828 254.81 136.972C255.386 137.152 256.79 138.124 257.906 139.024C257.114 139.636 256.286 140.212 255.386 140.788C254.738 141.22 254.126 141.652 254.27 142.228C254.45 142.876 256.142 142.336 256.826 142.084C258.662 141.4 261.65 139.024 263.054 137.656C264.062 136.684 264.494 136.648 264.926 136.972C266.474 138.16 267.806 139.564 269.03 140.896C269.57 141.508 270.182 141.472 270.398 141.364C270.83 141.112 271.01 140.32 270.722 139.852C269.606 138.016 267.842 136.36 266.51 134.956C266.15 134.596 266.006 134.128 266.222 133.552C266.438 132.94 266.798 131.932 267.05 131.068C267.194 130.636 267.266 129.916 267.014 129.412C267.23 127.972 267.23 126.604 267.23 124.984V116.416C267.23 113.392 266.582 111.916 263.702 110.548C262.478 109.972 261.758 109.72 261.254 110.656C260.75 111.592 261.434 112.312 262.55 112.78C264.062 113.428 264.602 114.148 264.674 115.3C264.674 115.696 263.81 116.02 263.018 116.272C262.442 116.452 260.03 117.136 259.13 117.424C258.698 117.568 258.086 118.144 258.23 118.756C258.41 119.512 259.13 119.728 259.67 119.584C260.93 119.152 263.162 118.432 264.674 118L264.71 120.088C264.602 120.628 264.134 120.916 263.63 121.024C262.946 121.168 260.75 121.816 259.562 122.176C258.842 122.428 258.338 122.788 258.554 123.544C258.806 124.444 259.634 124.48 260.282 124.264C261.398 123.94 263.45 123.328 264.71 123.256L264.746 125.416C264.746 127.036 264.746 128.584 264.854 129.88C264.782 130.06 264.71 130.204 264.674 130.384C264.026 132.22 262.946 134.236 261.398 135.856L259.706 137.512ZM243.47 128.584C243.83 129.052 244.874 128.764 245.414 128.548C247.394 127.684 249.05 125.848 250.49 124.66C251.678 123.652 252.29 124.048 253.226 124.66C254.594 125.524 256.214 126.82 256.934 127.648C257.402 128.152 257.978 128.656 258.662 128.116C259.31 127.648 259.058 126.532 258.662 126.064C257.618 124.912 255.926 123.688 254.378 122.68C254.018 122.464 253.514 122.14 253.046 121.888C253.514 121.168 254.702 118.864 254.954 118.18C255.386 116.956 255.17 115.912 254.738 115.3C254.45 114.868 253.874 114.328 253.046 114.688C252.434 114.94 252.398 115.3 252.614 116.056C252.938 116.956 252.002 118.72 251.246 119.8C249.806 121.888 246.674 125.344 244.262 127.18C243.686 127.612 243.182 128.224 243.47 128.584ZM288.175 133.732C287.671 133.84 287.203 133.912 286.735 134.056C285.871 133.984 286.195 132.544 286.087 131.788C285.907 130.528 284.791 129.088 282.343 128.656C281.695 128.548 281.155 128.62 280.903 129.448C280.579 130.456 281.299 130.42 281.875 130.6C284.035 131.356 284.107 132.796 284.179 134.38C284.179 134.632 284.143 134.812 284.071 134.92C282.955 135.352 281.803 135.784 280.363 136.108C278.887 136.468 277.915 136.36 276.583 136.252C275.827 136.18 274.855 136.072 274.603 137.044C274.351 138.016 275.179 138.412 275.971 138.664C278.743 139.528 284.287 137.332 286.951 136.396C290.407 135.172 293.971 135.46 297.139 136.972C298.111 137.44 299.623 138.16 300.127 136.864C300.343 136.324 299.299 135.568 298.975 135.388C297.643 134.668 294.547 133.552 290.983 133.516C292.207 130.888 292.423 129.16 291.811 126.676C291.595 125.74 291.055 124.912 290.011 125.2C288.751 125.488 289.543 126.424 289.651 127.072C290.083 129.412 289.759 130.708 289.543 131.896C289.471 132.364 289.075 133.336 288.751 133.66C288.571 133.66 288.355 133.696 288.175 133.732ZM280.183 128.368C282.991 127.54 285.835 125.884 287.743 123.616C288.715 122.464 289.363 122.464 290.695 123.004C292.027 123.544 292.963 124.516 293.539 125.992C293.755 126.532 293.899 127.144 294.619 126.856C295.267 126.604 295.447 125.74 295.339 125.128C294.979 123.256 293.863 122.032 291.703 121.276C291.199 121.096 290.587 120.952 290.119 120.736C290.659 119.26 292.711 118.36 291.235 116.632C290.551 115.804 289.867 115.984 289.075 116.344C287.779 116.956 285.979 117.496 283.423 117.532C282.667 117.532 281.695 117.208 281.695 118.396C281.695 119.44 282.595 119.476 283.351 119.548C284.791 119.656 286.555 118.936 288.139 118.684C289.183 118.504 288.787 118.9 288.391 119.404C286.483 121.924 283.999 125.164 279.391 126.532C278.851 126.676 277.843 127.18 278.059 127.9C278.275 128.548 279.571 128.548 280.183 128.368Z" fill="black"/>
<path d="M66.3055 202.9C66.6855 203.02 67.3255 203.08 67.5455 203.38C67.8255 203.76 67.6055 205.12 67.6055 205.76C67.6055 206.38 67.3655 206.62 66.8655 206.78C65.3855 207.08 64.4055 207.66 62.7655 208.06C61.9455 208.26 61.4055 208.2 60.6655 208.14C60.2455 208.1 59.7055 208.04 59.5655 208.58C59.4255 209.12 59.8855 209.34 60.3255 209.48C61.8655 209.96 64.9455 208.74 66.4255 208.22C68.3455 207.54 70.3255 207.7 72.0855 208.54C72.6255 208.8 73.4655 209.2 73.7455 208.48C73.8655 208.18 73.2855 207.76 73.1055 207.66C72.4055 207.28 70.8255 206.7 68.9655 206.62C68.8255 206.58 68.7655 206.44 68.7855 206.2C68.8455 205.38 68.8655 204.16 68.9655 203.08C68.9655 202.94 69.0055 202.82 69.0255 202.72C70.2655 202.22 71.2055 201.04 71.0855 199.72C70.9455 198.42 69.7455 197.32 68.2055 197.14C66.4055 196.92 64.9655 198.48 64.7255 199.94C64.3055 202.5 65.8455 202.76 66.3055 202.9ZM65.9655 201.08C65.7055 200.1 66.4055 198.8 67.4055 198.42C68.5055 198 69.4255 198.92 69.6255 199.4C70.1255 200.66 69.1255 201.5 68.1255 201.78C67.1855 202.04 66.1655 201.86 65.9655 201.08ZM79.6016 195.84C79.0816 195.7 78.5816 195.94 78.4616 196.36C78.3216 196.88 78.8616 196.94 79.2416 197.06C80.2016 197.34 81.0016 197.98 81.7016 198.76C82.4216 199.54 83.2016 199.64 84.1616 198.96C85.0616 198.32 86.0416 197.36 87.3616 197.16C87.6416 197.12 87.9016 196.78 87.8416 196.4C87.7816 195.94 87.3416 195.98 86.9816 196.06C86.1216 196.24 84.8816 196.98 84.0816 197.54C83.2816 198.1 83.0216 198.52 82.2216 197.52C81.6216 196.78 80.5816 196.1 79.6016 195.84ZM86.8616 199.66C84.9416 200.32 81.3416 201.9 79.2616 202.58C78.5016 202.82 77.5816 202.76 76.7416 202.76C76.4416 202.78 76.0616 203.08 76.1216 203.5C76.1216 203.92 76.4616 204.02 76.8216 204.02C77.9416 204.06 79.1416 204.02 80.1216 203.66C82.1816 202.84 87.1416 200.74 88.3616 200.4C88.7416 200.28 89.8016 200.08 90.2416 200.04C90.5016 200.02 90.8816 199.84 90.8416 199.46C90.8016 199.08 90.5016 198.94 90.2416 198.92C89.2416 198.82 88.0616 199.26 86.8616 199.66ZM89.1216 211.22C88.5016 211.4 87.5816 211.34 87.0016 211.14C85.5016 210.6 84.2216 209.66 83.1816 208.18C84.4216 207.52 85.8816 206.94 86.9216 206.84C87.6216 207.06 88.6616 206.82 88.7016 205.94C88.7416 205.18 88.7616 204.2 88.8816 203.38C89.0416 202.58 88.7016 202.28 88.2616 202.28C88.0616 202.28 87.7416 202.36 87.5016 202.46C84.6016 203.56 81.8016 204.68 79.1616 205.74C78.7416 205.94 78.1816 206.26 78.3816 206.74C78.7016 207.3 79.3216 207.14 79.8016 206.92C80.1416 206.76 80.5216 206.5 80.9216 206.32C82.3816 205.66 85.2616 204.6 86.7016 204.04C87.2416 203.82 87.3016 203.82 87.3416 204.08C87.3616 204.18 87.3016 204.96 87.2816 205.16C87.2416 205.48 87.2216 205.64 86.4416 205.8C85.2816 206.04 82.0416 207.14 80.6816 207.84C80.3416 208.02 79.9616 208.24 80.1016 208.62C80.2016 208.96 80.5416 209.3 80.8016 209.18C81.0216 209.06 81.2416 209.02 81.4416 209.02C82.1616 209.02 82.5016 209.56 82.9216 210.02C83.7816 210.94 85.1216 211.8 86.7216 212.2C87.4016 212.38 88.7616 212.32 89.4416 211.98C89.7616 211.8 90.2016 211.66 89.9816 211.22C89.8616 210.96 89.6016 211.08 89.1216 211.22ZM102.478 197.44C103.458 197.86 104.658 198.18 105.438 198.28C105.758 198.32 106.178 198.24 106.238 198.02C106.298 197.72 106.178 197.42 105.838 197.32C105.098 197.12 103.878 196.7 102.978 196.26C102.678 196.1 102.178 196.2 102.058 196.44C101.838 196.9 102.018 197.26 102.478 197.44ZM104.318 200.86C102.638 200.8 100.538 202.7 100.938 204.58C101.238 205.58 102.318 206.46 103.598 206.56C104.198 206.6 104.998 206.4 105.498 206.06C106.458 205.42 106.878 204.66 106.938 203.9C107.018 202.46 105.978 200.92 104.318 200.86ZM105.558 204.16C105.358 205.02 104.578 205.3 103.698 205.36C103.118 205.4 102.358 204.88 102.238 204.18C102.038 202.98 103.358 202 104.338 202.04C105.378 202.04 105.758 203.38 105.558 204.16ZM100.298 200.94C101.698 200.6 104.818 199.96 106.278 199.94C106.598 199.94 107.138 199.86 107.138 199.36C107.118 198.96 106.738 198.82 106.318 198.78C105.358 198.7 101.858 199.34 100.158 199.56C99.7577 199.6 99.3377 200 99.3377 200.5C99.3577 201.04 100.058 201 100.298 200.94ZM110.118 212.28C110.518 212.28 110.778 210.98 110.818 210.28C110.858 208.1 110.798 206.38 110.798 203.9C110.798 203.44 110.978 203.34 111.258 203.28C111.858 203.16 112.918 202.98 113.458 202.94C113.898 202.9 114.218 202.68 114.218 202.14C114.218 201.64 113.678 201.64 113.118 201.7C112.518 201.76 111.478 201.92 110.798 202.1C110.778 201.1 110.798 198.18 110.798 197.44C110.798 196.28 110.598 194.98 109.298 194.08C108.898 193.8 108.338 193.56 107.958 194.06C107.618 194.52 107.898 194.78 108.278 195.08C109.018 195.64 109.398 196.36 109.378 197.26C109.338 199.98 109.458 207.72 109.498 210.5C109.498 211.14 109.738 212.28 110.118 212.28ZM124.694 202.08C125.774 201.82 126.794 201.4 127.894 201C128.134 200.92 128.494 200.82 128.414 200.4C128.354 200.14 128.094 199.96 127.734 199.96C127.014 199.96 126.034 200.44 125.154 200.72C124.234 201.02 123.394 201.36 122.814 200.94C122.474 200.68 122.234 200.1 122.174 199.78C123.194 199.5 125.214 198.98 126.194 198.8C126.754 198.7 127.334 198.76 127.394 198.06C127.414 197.72 127.394 196.64 127.454 195.7C127.514 194.98 126.954 194.62 126.294 194.9C124.854 195.5 123.154 195.76 121.674 196.08C121.234 196.2 120.774 196.4 120.914 196.9C121.034 197.3 121.594 197.2 121.914 197.14C122.874 196.98 124.694 196.48 125.674 196.2C126.094 196.08 126.134 196.34 126.134 196.66C126.134 196.86 126.134 197.44 126.114 197.66C125.074 197.86 122.314 198.6 121.534 198.82C120.854 199.02 120.074 198.96 120.134 199.78C120.174 200.3 120.854 200.04 120.994 200.5C121.334 201.54 122.354 202.3 123.154 202.3C123.634 202.3 124.294 202.18 124.694 202.08ZM126.474 202.92C124.394 203.68 121.434 205.32 119.054 205.88C118.574 205.98 117.474 206.04 116.974 206.04C116.674 206.04 116.414 206.38 116.414 206.8C116.414 207.22 116.774 207.32 117.134 207.32C118.254 207.32 119.374 207.28 120.434 206.86C121.794 206.32 123.174 205.76 124.534 205.12C124.754 205.02 124.874 205.24 124.874 205.64C124.874 207.86 124.934 209.84 124.954 211.2C124.954 211.54 125.074 212.28 125.414 212.28C126.154 212.28 126.234 211.12 126.234 210.58C126.234 208.8 126.194 207.28 126.294 205.7C126.374 204.58 126.534 204.3 126.834 204.16C127.874 203.68 129.034 203.3 130.254 203.18C130.514 203.16 130.854 203.02 130.814 202.64C130.774 202.26 130.514 202.1 130.234 202.08C129.234 202.02 127.674 202.48 126.474 202.92ZM148.21 212.16C150.25 212.48 152.39 210.48 152.31 208.88C152.23 207.28 150.19 206 148.67 206.22C146.71 206.56 144.55 207.48 145.01 209.86C145.29 211.34 146.89 211.96 148.21 212.16ZM147.63 203.86C148.03 203.5 147.71 203.08 147.61 202.92C146.97 201.98 146.09 201.44 145.03 200.74C145.75 199.8 146.29 198.44 146.85 197.36C147.01 197.04 147.13 196.7 146.81 196.42C146.59 196.18 146.29 196.06 146.01 196.26C144.97 196.94 142.69 197.14 141.73 197.3C141.21 197.38 141.07 197.72 141.15 198.14C141.21 198.56 141.53 198.62 141.93 198.6C142.53 198.56 144.47 198.22 145.07 197.96C144.29 199.88 141.91 202.5 140.25 203.44C139.99 203.58 139.39 203.96 139.49 204.24C139.57 204.48 140.39 204.44 140.69 204.34C141.27 204.14 142.01 203.74 142.65 203.2C143.31 202.64 143.75 202.08 144.27 201.86C145.01 202.12 145.97 202.94 146.57 203.54C146.83 203.8 147.23 204.22 147.63 203.86ZM151.07 202.52C151.07 203.8 151.11 205.22 151.21 206.08C151.23 206.3 151.35 206.62 151.57 206.64C151.75 206.64 152.05 206.36 152.17 205.88C152.45 204.7 152.45 203.52 152.45 202.28V197.12C152.45 195.44 152.09 194.62 150.49 193.86C149.81 193.54 149.41 193.4 149.13 193.92C148.85 194.44 149.23 194.84 149.85 195.1C150.73 195.48 151.03 195.9 151.03 196.6V197.22C151.03 197.54 150.75 197.84 150.47 197.96C149.85 198.24 148.59 198.62 147.95 198.8C147.55 198.92 147.33 199.22 147.37 199.64C147.41 200.18 148.07 200.18 148.43 200.04C149.05 199.8 150.29 199.38 151.03 199.16L151.07 202.52ZM150.87 208.82C150.87 210.04 149.77 211.14 148.37 211C147.49 210.92 146.61 210.38 146.49 209.3C146.39 208.46 147.65 207.5 148.85 207.5C150.25 207.5 150.87 207.98 150.87 208.82ZM167.846 203.36C167.926 202.8 167.966 202.2 167.966 201.78V200.16C167.966 199.96 168.086 199.46 168.246 199.4C168.766 199.22 169.266 199.2 170.226 199.26C170.626 199.26 171.166 199.36 171.266 198.88C171.386 198.32 170.966 198.02 170.606 197.94C170.026 197.82 168.486 198.08 167.966 198.22V197.12C167.966 195.44 167.606 194.62 166.006 193.86C165.326 193.54 164.926 193.4 164.646 193.92C164.366 194.44 164.746 194.84 165.366 195.1C166.246 195.48 166.486 195.9 166.546 196.6C166.626 197.56 166.606 200.98 166.666 203.04C166.266 203.26 165.766 203.48 165.406 203.6C164.566 203.9 162.846 204.52 161.206 205.08C160.866 205.2 160.026 205.5 159.426 205.74C159.066 205.88 158.866 206.28 159.046 206.64C159.306 207.1 159.746 206.98 160.086 206.82C161.766 206.2 164.306 205.3 165.686 204.7C166.006 204.56 166.366 204.4 166.386 204.94C166.406 205.16 166.386 205.74 166.326 205.9C166.266 206.06 166.246 206.14 166.046 206.22C165.166 206.56 161.786 207.4 160.226 207.9C159.346 208.18 159.086 208.88 160.226 209.32C161.206 209.7 161.746 210.36 162.326 210.88C163.686 212.1 165.306 212.58 167.226 212.42C167.726 212.38 168.126 212.28 168.126 211.82C168.126 211.48 167.666 211.44 167.286 211.44C166.386 211.44 165.346 211.34 164.686 211.02C163.646 210.52 162.886 209.62 161.926 208.66C163.666 208.16 164.866 207.84 166.406 207.52C167.046 207.62 167.486 207.52 167.706 206.82C167.826 206.42 167.886 205.26 167.926 204.76C167.946 204.38 168.026 203.7 167.846 203.36ZM163.706 200.92C163.466 200.9 163.426 200.82 163.486 200.36C163.606 199.38 163.746 198.78 163.706 197.76C163.646 196.42 163.026 196.04 161.906 196.5C160.866 196.92 159.506 197.56 158.486 197.86C157.986 198 157.526 197.92 157.226 197.66C157.006 197.46 156.406 197.42 156.186 197.94C155.986 198.38 156.266 198.64 156.606 198.96C157.706 200.02 158.286 200.68 158.366 202.22C158.386 202.74 158.706 203.22 159.266 203.06C160.946 202.56 162.986 202.08 164.206 202C164.506 201.98 164.746 201.78 164.686 201.4C164.626 200.98 164.086 200.96 163.706 200.92ZM160.126 201.62C159.886 201.66 159.666 201.58 159.586 201.38C159.466 201.06 159.266 200.16 158.926 199.56C158.686 199.14 158.786 198.84 159.286 198.68C159.806 198.52 160.846 198.16 161.606 197.88C162.126 197.68 162.306 197.94 162.346 198.54C162.386 199.22 162.406 200.14 162.246 201.06C161.606 201.12 160.506 201.56 160.126 201.62ZM190.822 196.64C191.022 199.14 190.782 201.92 191.002 204.62C191.002 204.76 191.062 204.94 191.142 205.06V205.94C191.122 206.72 190.702 206.88 190.262 206.88C189.002 206.86 186.582 207.38 185.742 207.5C185.162 206.56 184.362 205.92 183.282 205.42C182.642 205.14 182.122 205.16 181.862 205.78C181.662 206.26 182.222 206.54 182.622 206.68C183.562 207 184.302 207.52 184.522 208.54C184.702 209.24 184.962 210.4 185.062 211C185.182 211.76 186.042 212.52 186.862 211.44C187.602 211.14 188.822 211.22 189.582 211.32C190.302 211.4 190.942 211.38 191.622 211.48C192.102 211.56 192.582 211.34 192.582 210.92C192.582 210.68 192.442 210.44 192.202 210.28C192.302 208.72 192.602 204.58 192.502 203.88C192.442 203.52 192.322 203.3 192.162 203.2C192.242 202.42 192.242 201.64 192.242 200.82C192.222 199.8 192.242 198.2 192.242 197.16C192.242 195.48 191.882 194.66 190.282 193.9C189.602 193.58 189.202 193.44 188.922 193.96C188.642 194.48 189.022 194.88 189.642 195.14C190.522 195.52 190.762 195.94 190.822 196.64ZM187.622 203.86C188.022 203.5 187.702 203.08 187.602 202.92C186.962 201.98 186.082 201.44 185.022 200.74C185.742 199.8 186.282 198.44 186.842 197.36C187.002 197.04 187.122 196.7 186.802 196.42C186.582 196.18 186.282 196.06 186.002 196.26C184.962 196.94 182.682 197.14 181.722 197.3C181.202 197.38 181.062 197.72 181.142 198.14C181.202 198.56 181.522 198.62 181.922 198.6C182.522 198.56 184.462 198.22 185.062 197.96C184.282 199.88 181.902 202.5 180.242 203.44C179.982 203.58 179.382 203.96 179.482 204.24C179.562 204.48 180.382 204.44 180.682 204.34C181.262 204.14 182.002 203.74 182.642 203.2C183.302 202.64 183.742 202.08 184.262 201.86C185.002 202.12 185.962 202.94 186.562 203.54C186.822 203.8 187.222 204.22 187.622 203.86ZM190.962 208.62C190.962 208.98 190.942 209.7 190.882 210.1C189.922 210.02 187.422 210 186.702 210.18C186.462 210.24 186.302 210.24 186.242 210C186.162 209.7 186.122 209.34 186.062 209.02C185.962 208.54 186.322 208.56 186.742 208.46C187.562 208.28 189.162 208.12 189.962 208.1C190.462 208.08 190.962 208.08 190.962 208.62ZM208.358 208.6C208.538 206.68 207.578 205.66 206.458 205.3C206.478 205.22 206.478 205.12 206.478 205C206.478 204.2 206.518 202.56 206.758 201.96C207.458 201.7 208.018 201.5 208.338 201.4C208.718 201.28 209.778 201.08 210.218 201.04C210.478 201.02 210.858 200.84 210.818 200.46C210.778 200.08 210.478 199.94 210.218 199.92C209.218 199.82 208.038 200.26 206.838 200.66C204.918 201.32 201.318 202.9 199.238 203.58C198.478 203.82 197.558 203.76 196.718 203.76C196.418 203.78 196.038 204.08 196.098 204.5C196.098 204.92 196.438 205.02 196.798 205.02C197.918 205.06 199.118 205.02 200.098 204.66C201.278 204.2 203.418 203.3 205.258 202.56C205.198 203.22 205.138 204.4 205.138 205.18C203.378 205.38 201.078 207.08 201.178 208.76C201.078 210.8 202.718 211.76 205.098 211.76C207.058 211.76 208.178 210.38 208.358 208.6ZM198.398 201.5C198.538 201.78 199.158 201.64 199.618 201.5C201.138 201.04 202.978 199.92 203.958 198.82C204.758 197.92 204.958 198.14 205.498 198.22C205.878 198.28 206.438 198.52 206.858 198.78C207.158 198.96 207.598 199.34 207.998 199.42C208.218 199.46 208.498 199.48 208.658 199.16C208.858 198.78 208.578 198.46 208.258 198.22C207.818 197.88 206.978 197.38 206.038 197.1C205.638 196.98 205.578 196.76 205.818 196.4C205.958 196.18 206.118 195.76 206.378 195.38C206.718 194.88 205.938 194.24 205.518 194.38C204.158 194.78 202.418 195.16 201.258 195.44C200.918 195.52 200.438 195.66 200.438 196C200.438 196.42 201.018 196.48 201.338 196.5C202.418 196.58 203.998 196.02 204.558 195.98C203.238 198.04 201.378 199.56 199.258 200.7C198.858 200.92 198.218 201.14 198.398 201.5ZM207.018 208.22C206.938 209.22 206.538 210.5 205.378 210.54C204.738 210.56 202.658 210.68 202.598 208.92C202.558 207.66 204.198 206.32 205.418 206.32C206.498 206.32 207.098 207.24 207.018 208.22ZM222.454 208.84C221.774 208.3 220.794 207.7 220.414 207.5C220.074 207.34 220.114 207.08 220.234 206.88C220.454 206.52 220.574 206.22 220.694 205.88C220.834 205.48 220.874 205 220.314 204.8C219.594 204.54 219.454 205.02 219.294 205.52C218.954 206.68 218.254 207.76 217.374 208.58C216.534 209.38 215.614 210.16 214.874 210.7C214.594 210.9 214.334 211.12 214.494 211.38C214.654 211.64 215.294 211.44 215.534 211.32C216.914 210.62 218.474 209.32 219.214 208.66C219.334 208.56 219.534 208.46 219.734 208.54C220.054 208.64 220.834 209.18 221.454 209.68C221.014 210.02 220.554 210.34 220.054 210.66C219.694 210.9 219.354 211.14 219.434 211.46C219.534 211.82 220.474 211.52 220.854 211.38C221.874 211 223.534 209.68 224.314 208.92C224.874 208.38 225.114 208.36 225.354 208.54C226.214 209.2 226.954 209.98 227.634 210.72C227.934 211.06 228.274 211.04 228.394 210.98C228.634 210.84 228.734 210.4 228.574 210.14C227.954 209.12 226.974 208.2 226.234 207.42C226.034 207.22 225.954 206.96 226.074 206.64C226.194 206.3 226.394 205.74 226.534 205.26C226.554 205.16 226.594 205.04 226.594 204.9C226.714 204.66 226.774 204.36 226.794 204.1C226.834 202.52 226.814 198.9 226.874 196.9C226.914 195.4 226.554 194.58 225.434 193.66C225.154 193.44 224.734 193.34 224.434 193.64C224.174 193.92 224.194 194.26 224.394 194.48C224.874 195.02 225.434 195.54 225.454 196.32C225.454 196.66 225.474 197.16 225.474 197.68C225.474 198.16 224.994 198.36 224.374 198.52C224.014 198.62 223.814 198.68 223.654 198.68C223.654 198.34 223.634 198 223.634 197.74C223.614 196.1 223.194 195.48 221.994 194.68C221.674 194.48 221.314 194.44 221.014 194.78C220.834 195 220.774 195.3 220.994 195.52L221.594 196.08C221.974 196.42 222.254 196.74 222.254 197.34C222.254 199.26 222.334 201.6 222.334 203.14C222.334 203.34 222.394 204.48 222.794 204.46C223.494 204.42 223.594 202.72 223.594 202.64C223.634 202.04 223.654 201.14 223.654 200.24C223.654 200.1 223.794 200 223.914 199.92C224.214 199.76 224.754 199.64 225.094 199.56C225.334 199.52 225.494 199.52 225.494 199.66V204.24V204.3C225.374 204.44 225.294 204.66 225.214 204.88C224.854 205.9 224.254 207.02 223.394 207.92L222.454 208.84ZM217.734 204.34C219.214 204.06 220.354 203.14 220.394 201.76C220.434 200.22 219.114 199.32 217.614 199.46C216.134 199.6 214.734 200.7 214.754 202.26C214.774 203.94 216.574 204.56 217.734 204.34ZM214.754 199.34C216.454 199.18 218.354 198.44 220.054 198.28C220.454 198.26 220.574 197.92 220.534 197.62C220.494 197.3 220.194 197 219.754 197.08C218.994 196.22 217.874 195.66 216.634 195.38C216.414 195.32 215.854 195.48 215.814 195.94C215.814 196.42 216.194 196.44 216.534 196.54C217.014 196.66 217.834 196.96 218.354 197.36C217.114 197.62 215.794 198.04 214.754 198.08C214.274 198.08 213.554 198.12 213.574 198.82C213.614 199.38 214.234 199.4 214.754 199.34ZM216.014 202.06C216.014 201.06 216.874 200.58 217.634 200.5C218.254 200.44 219.014 200.7 219.054 201.58C219.094 202.58 218.354 203.08 217.554 203.24C216.914 203.36 216.014 203.12 216.014 202.06ZM239.97 200.1C238.37 200.88 235.87 202.8 235.49 203.08C235.01 203.4 234.85 203.38 234.63 203C234.27 202.42 232.63 200.48 231.83 199.48C231.41 199 230.83 198.86 230.37 199.28C229.81 199.78 230.31 200.24 230.75 200.58C231.41 201.08 232.93 202.96 233.81 204.38C234.33 205.22 234.91 205.2 235.79 204.4C236.81 203.5 238.61 202.2 239.97 201.44C239.99 204.88 240.05 208.76 240.11 210.56C240.13 211.16 240.25 212.2 240.65 212.2C241.11 212.2 241.35 210.94 241.35 210.52C241.39 208.4 241.45 203.46 241.43 202.4C241.41 201.86 241.59 201.68 241.93 201.6C242.49 201.48 243.57 201.28 244.21 201.26C244.67 201.24 244.99 200.96 244.99 200.38C244.99 200.04 244.61 199.96 244.29 199.96C243.51 199.98 242.03 200.22 241.41 200.42V197.64C241.41 196.24 240.73 194.64 239.19 194.02C238.81 193.86 238.39 193.8 238.11 194.24C237.85 194.66 238.07 194.94 238.43 195.16C239.49 195.8 239.97 196.34 239.97 197.98V200.1ZM261.266 207.44C260.846 207.3 260.006 207.12 259.546 207.02C258.666 206.82 258.206 206.64 258.286 206.04C258.426 205.08 258.326 203.04 258.186 201.98C258.106 201.34 258.526 200.68 258.806 200.16C259.066 199.66 258.986 198.84 258.506 198.22C257.446 196.84 256.026 196.36 254.346 197.2C253.066 197.84 252.086 199.66 252.446 200.96C253.066 203.14 255.226 202.62 256.886 202.12C257.086 203.28 257.126 205.2 257.026 206.18C256.986 206.62 256.866 206.78 256.526 206.8C256.246 206.82 255.686 206.84 255.366 206.8C254.966 206.74 254.726 206.54 254.606 206.12C254.426 205.52 254.006 204.36 253.706 203.96C253.326 203.36 252.666 202.76 252.086 203.22C251.526 203.72 252.306 204.22 252.646 204.62C253.026 205.02 253.266 205.88 253.426 206.4C253.566 206.84 253.566 207.2 253.066 207.48C251.586 208.32 249.666 208.28 248.806 208.1C248.066 207.94 247.486 207.76 247.286 208.46C247.086 209.16 247.886 209.44 248.386 209.46C250.006 209.52 251.186 209.64 252.786 209.04C256.106 207.78 258.266 207.82 260.986 208.52C261.326 208.58 261.706 208.58 261.826 208.14C261.906 207.7 261.606 207.54 261.266 207.44ZM255.006 201.36C254.266 201.38 253.686 201.24 253.686 200.32C253.686 199.22 254.986 197.74 256.006 197.86C256.866 197.96 257.546 198.44 257.586 199.38C257.626 200.24 256.226 201.34 255.006 201.36ZM267.303 196.02C265.603 196.16 264.463 197.22 264.383 198.76C264.363 199.12 264.543 199.34 264.843 199.38C265.143 199.42 265.483 199.28 265.523 198.96C265.683 197.76 266.403 197.16 267.383 197.1C269.103 197 269.803 198.7 268.663 200.58C267.563 202.4 266.623 203.06 266.202 205.26C266.123 205.6 266.202 205.96 266.583 206.1C266.923 206.22 267.463 205.92 267.483 205.66C267.663 203.18 269.483 202.06 270.283 200.32C271.123 198.5 270.263 195.78 267.303 196.02ZM267.263 208.56C266.523 208.56 265.963 209.44 265.983 209.78C265.983 210.24 266.443 210.38 266.843 210.38C267.483 210.38 267.903 209.9 267.923 209.28C267.943 208.92 267.743 208.56 267.263 208.56ZM54.8654 226.64C54.0654 226.86 52.3454 227.26 51.4254 227.8C51.3654 227.84 51.2854 227.9 51.2454 227.96C51.1654 227.68 51.0454 227.4 50.8854 227.14C50.3454 226.36 49.6454 225.98 48.8854 226.02C47.0254 226.14 45.1254 228.26 45.4054 230.22C45.6454 231.9 47.4454 232.4 48.8654 232C49.9454 231.7 50.9254 230.84 51.2254 229.74C51.2854 229.5 51.3454 229.2 51.3454 228.88C51.5654 228.94 51.8454 228.88 51.9454 228.84C53.1254 228.44 54.1654 228.14 54.8854 227.96C55.1454 227.9 55.5254 227.74 55.5254 228.16C55.5254 228.76 55.5454 230.64 55.5854 232.06C55.1854 232.28 54.7054 232.48 54.3654 232.6C53.5254 232.9 51.6054 233.52 49.9654 234.08C49.6254 234.2 48.7854 234.5 48.1854 234.74C47.8254 234.88 47.6254 235.28 47.8054 235.64C48.0654 236.1 48.5054 235.98 48.8454 235.82C50.5254 235.2 53.2654 234.3 54.6454 233.7C54.9654 233.56 55.3254 233.4 55.3454 233.94C55.3654 234.16 55.3454 234.74 55.2854 234.9C55.2254 235.06 55.2054 235.14 55.0054 235.22C54.1254 235.56 50.5254 236.4 48.9654 236.9C48.0854 237.18 47.8254 237.88 48.9654 238.32C49.9454 238.7 50.5854 239.36 51.1654 239.88C52.5254 241.1 54.2654 241.58 56.1854 241.42C56.6854 241.38 57.0854 241.28 57.0854 240.82C57.0854 240.48 56.6254 240.44 56.2454 240.44C55.3454 240.44 54.3054 240.34 53.6454 240.02C52.6054 239.52 51.6454 238.62 50.6854 237.66C52.4254 237.16 53.8254 236.84 55.3654 236.52C56.0054 236.62 56.4454 236.52 56.6654 235.82C56.7854 235.42 56.8454 234.26 56.8854 233.76C56.9054 233.38 56.9854 232.7 56.8054 232.36C56.7854 232.36 56.7854 232.34 56.7854 232.32C56.8654 231.5 56.8854 230.66 56.8854 229.8V226.12C56.8854 224.44 56.5254 223.62 54.9254 222.86C54.2454 222.54 53.8454 222.4 53.5654 222.92C53.2854 223.44 53.6654 223.84 54.2854 224.1C55.1654 224.48 55.4654 224.9 55.4654 225.6V225.94C55.4654 226.36 55.3254 226.52 54.8654 226.64ZM48.6054 230.8C47.7454 231.04 46.8054 230.78 46.7454 229.7C46.6854 228.76 47.7854 227.22 48.9254 227.28C49.5254 227.32 50.0054 227.98 50.0054 228.72C50.0054 229.74 49.5054 230.54 48.6054 230.8ZM68.1815 232.34C67.9415 232.32 67.8215 232.22 67.9615 231.78C68.1815 230.56 68.1815 229.18 68.1415 228.16C68.0815 226.82 67.4615 226.44 66.3415 226.9C65.3015 227.32 63.9415 227.96 62.9215 228.26C62.4215 228.4 61.9615 228.32 61.6615 228.06C61.4415 227.86 60.8415 227.82 60.6215 228.34C60.4215 228.78 60.6215 229.06 60.9815 229.36C62.2015 230.46 62.7215 231.78 62.8015 233.32C62.8215 233.84 63.1415 234.32 63.7015 234.16C65.3815 233.66 67.4215 233.58 68.6415 233.5C68.9415 233.48 69.1815 233.28 69.1215 232.9C69.0615 232.48 68.5615 232.38 68.1815 232.34ZM64.5615 232.72C64.3215 232.76 64.1015 232.68 64.0215 232.48C63.9015 232.16 63.7615 230.64 63.4215 230.04C63.1815 229.62 63.3215 229.34 63.8215 229.18C64.3415 229.02 65.2015 228.7 65.9615 228.42C66.4815 228.22 66.6415 228.46 66.7015 229.06C66.7415 229.74 66.8815 231.48 66.6815 232.4C66.1415 232.4 64.9415 232.66 64.5615 232.72ZM71.7415 241.28C72.1415 241.28 72.4015 239.98 72.4415 239.28C72.4815 237.1 72.4215 234.58 72.4215 232.1C72.4215 231.64 72.6015 231.54 72.8815 231.48C73.4815 231.36 74.5415 231.18 75.0815 231.14C75.5215 231.1 75.8415 230.88 75.8415 230.34C75.8415 229.84 75.3015 229.84 74.7415 229.9C74.1415 229.96 73.1015 230.12 72.4215 230.3C72.4015 229.3 72.4215 227.18 72.4215 226.44C72.4215 225.28 72.2215 223.98 70.9215 223.08C70.5215 222.8 69.9615 222.56 69.5815 223.06C69.2415 223.52 69.5215 223.78 69.9015 224.08C70.6415 224.64 71.0215 225.36 71.0015 226.26C70.9615 228.98 71.0815 236.72 71.1215 239.5C71.1215 240.14 71.3615 241.28 71.7415 241.28ZM87.4176 229.1C85.8176 229.88 83.3176 231.8 82.9376 232.08C82.4576 232.4 82.2976 232.38 82.0776 232C81.7176 231.42 80.0776 229.48 79.2776 228.48C78.8576 228 78.2776 227.86 77.8176 228.28C77.2576 228.78 77.7576 229.24 78.1976 229.58C78.8576 230.08 80.3776 231.96 81.2576 233.38C81.7776 234.22 82.3576 234.2 83.2376 233.4C84.2576 232.5 86.0576 231.2 87.4176 230.44C87.4376 233.88 87.4976 237.76 87.5576 239.56C87.5776 240.16 87.6976 241.2 88.0976 241.2C88.5576 241.2 88.7976 239.94 88.7976 239.52C88.8376 237.4 88.8976 232.46 88.8776 231.4C88.8576 230.86 89.0376 230.68 89.3776 230.6C89.9376 230.48 91.0176 230.28 91.6576 230.26C92.1176 230.24 92.4376 229.96 92.4376 229.38C92.4376 229.04 92.0576 228.96 91.7376 228.96C90.9576 228.98 89.4776 229.22 88.8576 229.42V226.64C88.8576 225.24 88.1776 223.64 86.6376 223.02C86.2576 222.86 85.8376 222.8 85.5576 223.24C85.2976 223.66 85.5176 223.94 85.8776 224.16C86.9376 224.8 87.4176 225.34 87.4176 226.98V229.1ZM112.254 225.64C112.454 228.14 112.214 230.92 112.434 233.62C112.434 233.76 112.494 233.94 112.574 234.06V234.94C112.554 235.72 112.134 235.88 111.694 235.88C110.434 235.86 108.014 236.38 107.174 236.5C106.594 235.56 105.794 234.92 104.714 234.42C104.074 234.14 103.554 234.16 103.294 234.78C103.094 235.26 103.654 235.54 104.054 235.68C104.994 236 105.734 236.52 105.954 237.54C106.134 238.24 106.394 239.4 106.494 240C106.614 240.76 107.474 241.52 108.294 240.44C109.034 240.14 110.254 240.22 111.014 240.32C111.734 240.4 112.374 240.38 113.054 240.48C113.534 240.56 114.014 240.34 114.014 239.92C114.014 239.68 113.874 239.44 113.634 239.28C113.734 237.72 114.034 233.58 113.934 232.88C113.874 232.52 113.754 232.3 113.594 232.2C113.674 231.42 113.674 230.64 113.674 229.82C113.654 228.8 113.674 227.2 113.674 226.16C113.674 224.48 113.314 223.66 111.714 222.9C111.034 222.58 110.634 222.44 110.354 222.96C110.074 223.48 110.454 223.88 111.074 224.14C111.954 224.52 112.194 224.94 112.254 225.64ZM109.054 232.86C109.454 232.5 109.134 232.08 109.034 231.92C108.394 230.98 107.514 230.44 106.454 229.74C107.174 228.8 107.714 227.44 108.274 226.36C108.434 226.04 108.554 225.7 108.234 225.42C108.014 225.18 107.714 225.06 107.434 225.26C106.394 225.94 104.114 226.14 103.154 226.3C102.634 226.38 102.494 226.72 102.574 227.14C102.634 227.56 102.954 227.62 103.354 227.6C103.954 227.56 105.894 227.22 106.494 226.96C105.714 228.88 103.334 231.5 101.674 232.44C101.414 232.58 100.814 232.96 100.914 233.24C100.994 233.48 101.814 233.44 102.114 233.34C102.694 233.14 103.434 232.74 104.074 232.2C104.734 231.64 105.174 231.08 105.694 230.86C106.434 231.12 107.394 231.94 107.994 232.54C108.254 232.8 108.654 233.22 109.054 232.86ZM112.394 237.62C112.394 237.98 112.374 238.7 112.314 239.1C111.354 239.02 108.854 239 108.134 239.18C107.894 239.24 107.734 239.24 107.674 239C107.594 238.7 107.554 238.34 107.494 238.02C107.394 237.54 107.754 237.56 108.174 237.46C108.994 237.28 110.594 237.12 111.394 237.1C111.894 237.08 112.394 237.08 112.394 237.62ZM129.79 237.6C129.97 235.68 129.01 234.66 127.89 234.3C127.91 234.22 127.91 234.12 127.91 234C127.91 233.2 127.95 231.56 128.19 230.96C128.89 230.7 129.45 230.5 129.77 230.4C130.15 230.28 131.21 230.08 131.65 230.04C131.91 230.02 132.29 229.84 132.25 229.46C132.21 229.08 131.91 228.94 131.65 228.92C130.65 228.82 129.47 229.26 128.27 229.66C126.35 230.32 122.75 231.9 120.67 232.58C119.91 232.82 118.99 232.76 118.15 232.76C117.85 232.78 117.47 233.08 117.53 233.5C117.53 233.92 117.87 234.02 118.23 234.02C119.35 234.06 120.55 234.02 121.53 233.66C122.71 233.2 124.85 232.3 126.69 231.56C126.63 232.22 126.57 233.4 126.57 234.18C124.81 234.38 122.51 236.08 122.61 237.76C122.51 239.8 124.15 240.76 126.53 240.76C128.49 240.76 129.61 239.38 129.79 237.6ZM119.83 230.5C119.97 230.78 120.59 230.64 121.05 230.5C122.57 230.04 124.41 228.92 125.39 227.82C126.19 226.92 126.39 227.14 126.93 227.22C127.31 227.28 127.87 227.52 128.29 227.78C128.59 227.96 129.03 228.34 129.43 228.42C129.65 228.46 129.93 228.48 130.09 228.16C130.29 227.78 130.01 227.46 129.69 227.22C129.25 226.88 128.41 226.38 127.47 226.1C127.07 225.98 127.01 225.76 127.25 225.4C127.39 225.18 127.55 224.76 127.81 224.38C128.15 223.88 127.37 223.24 126.95 223.38C125.59 223.78 123.85 224.16 122.69 224.44C122.35 224.52 121.87 224.66 121.87 225C121.87 225.42 122.45 225.48 122.77 225.5C123.85 225.58 125.43 225.02 125.99 224.98C124.67 227.04 122.81 228.56 120.69 229.7C120.29 229.92 119.65 230.14 119.83 230.5ZM128.45 237.22C128.37 238.22 127.97 239.5 126.81 239.54C126.17 239.56 124.09 239.68 124.03 237.92C123.99 236.66 125.63 235.32 126.85 235.32C127.93 235.32 128.53 236.24 128.45 237.22ZM143.886 237.84C143.206 237.3 142.226 236.7 141.846 236.5C141.506 236.34 141.546 236.08 141.666 235.88C141.886 235.52 142.006 235.22 142.126 234.88C142.266 234.48 142.306 234 141.746 233.8C141.026 233.54 140.886 234.02 140.726 234.52C140.386 235.68 139.686 236.76 138.806 237.58C137.966 238.38 137.046 239.16 136.306 239.7C136.026 239.9 135.766 240.12 135.926 240.38C136.086 240.64 136.726 240.44 136.966 240.32C138.346 239.62 139.906 238.32 140.646 237.66C140.766 237.56 140.966 237.46 141.166 237.54C141.486 237.64 142.266 238.18 142.886 238.68C142.446 239.02 141.986 239.34 141.486 239.66C141.126 239.9 140.786 240.14 140.866 240.46C140.966 240.82 141.906 240.52 142.286 240.38C143.306 240 144.966 238.68 145.746 237.92C146.306 237.38 146.546 237.36 146.786 237.54C147.646 238.2 148.386 238.98 149.066 239.72C149.366 240.06 149.706 240.04 149.826 239.98C150.066 239.84 150.166 239.4 150.006 239.14C149.386 238.12 148.406 237.2 147.666 236.42C147.466 236.22 147.386 235.96 147.506 235.64C147.626 235.3 147.826 234.74 147.966 234.26C147.986 234.16 148.026 234.04 148.026 233.9C148.146 233.66 148.206 233.36 148.226 233.1C148.266 231.52 148.246 227.9 148.306 225.9C148.346 224.4 147.986 223.58 146.866 222.66C146.586 222.44 146.166 222.34 145.866 222.64C145.606 222.92 145.626 223.26 145.826 223.48C146.306 224.02 146.866 224.54 146.886 225.32C146.886 225.66 146.906 226.16 146.906 226.68C146.906 227.16 146.426 227.36 145.806 227.52C145.446 227.62 145.246 227.68 145.086 227.68C145.086 227.34 145.066 227 145.066 226.74C145.046 225.1 144.626 224.48 143.426 223.68C143.106 223.48 142.746 223.44 142.446 223.78C142.266 224 142.206 224.3 142.426 224.52L143.026 225.08C143.406 225.42 143.686 225.74 143.686 226.34C143.686 228.26 143.766 230.6 143.766 232.14C143.766 232.34 143.826 233.48 144.226 233.46C144.926 233.42 145.026 231.72 145.026 231.64C145.066 231.04 145.086 230.14 145.086 229.24C145.086 229.1 145.226 229 145.346 228.92C145.646 228.76 146.186 228.64 146.526 228.56C146.766 228.52 146.926 228.52 146.926 228.66V233.24V233.3C146.806 233.44 146.726 233.66 146.646 233.88C146.286 234.9 145.686 236.02 144.826 236.92L143.886 237.84ZM139.166 233.34C140.646 233.06 141.786 232.14 141.826 230.76C141.866 229.22 140.546 228.32 139.046 228.46C137.566 228.6 136.166 229.7 136.186 231.26C136.206 232.94 138.006 233.56 139.166 233.34ZM136.186 228.34C137.886 228.18 139.786 227.44 141.486 227.28C141.886 227.26 142.006 226.92 141.966 226.62C141.926 226.3 141.626 226 141.186 226.08C140.426 225.22 139.306 224.66 138.066 224.38C137.846 224.32 137.286 224.48 137.246 224.94C137.246 225.42 137.626 225.44 137.966 225.54C138.446 225.66 139.266 225.96 139.786 226.36C138.546 226.62 137.226 227.04 136.186 227.08C135.706 227.08 134.986 227.12 135.006 227.82C135.046 228.38 135.666 228.4 136.186 228.34ZM137.446 231.06C137.446 230.06 138.306 229.58 139.066 229.5C139.686 229.44 140.446 229.7 140.486 230.58C140.526 231.58 139.786 232.08 138.986 232.24C138.346 232.36 137.446 232.12 137.446 231.06ZM154.782 225.36C154.262 225.22 153.762 225.46 153.642 225.88C153.502 226.4 154.042 226.46 154.422 226.58C155.382 226.86 156.182 227.5 156.882 228.28C157.602 229.06 158.382 229.16 159.342 228.48C160.242 227.84 161.222 226.88 162.542 226.68C162.822 226.64 163.082 226.3 163.022 225.92C162.962 225.46 162.522 225.5 162.162 225.58C161.302 225.76 160.062 226.5 159.262 227.06C158.462 227.62 158.202 228.04 157.402 227.04C156.802 226.3 155.762 225.62 154.782 225.36ZM162.242 229.28C160.322 229.96 156.742 231.58 154.682 232.28C153.922 232.54 153.002 232.48 152.162 232.5C151.862 232.52 151.482 232.82 151.542 233.24C151.542 233.66 151.902 233.76 152.262 233.76C153.382 233.78 154.582 233.74 155.542 233.36C157.602 232.52 162.542 230.36 163.742 230C164.122 229.88 165.182 229.66 165.622 229.62C165.882 229.6 166.262 229.42 166.222 229.04C166.182 228.66 165.882 228.52 165.602 228.5C164.602 228.42 163.442 228.86 162.242 229.28ZM165.442 237.82C165.222 237.44 164.622 238.08 164.362 238.24C163.502 238.94 162.742 239.26 162.042 239.24C160.442 239.2 159.182 237.64 157.802 236.36C157.122 235.74 156.502 235.18 155.522 235.06C155.062 235 154.382 235.04 154.362 235.6C154.342 236.18 154.782 236.44 155.182 236.48C156.282 236.56 156.842 237.38 157.482 238C158.542 239 159.282 239.68 160.642 240.16C161.362 240.48 162.242 240.58 163.002 240.32C164.422 239.86 165.742 238.26 165.442 237.82ZM174.638 235.22C174.698 235.44 175.378 235.34 175.798 235.22C177.098 234.86 178.718 233.88 179.838 232.9C180.418 232.4 180.778 232.04 181.138 231.72C181.918 232.12 182.518 232.68 182.998 233.28C183.298 233.66 183.778 234.14 184.178 233.8C184.678 233.36 184.218 232.66 183.878 232.26C183.678 232.02 182.858 231.34 182.458 231.08C182.238 230.94 181.918 230.68 182.038 230.28C182.178 229.8 182.678 228.98 182.918 228.46C183.198 227.92 183.818 227.3 183.438 226.72C183.158 226.28 182.738 226.5 182.358 226.6C181.058 227.08 179.738 227.48 178.318 227.36C177.858 227.36 177.578 227.52 177.578 228.1C177.638 228.58 177.958 228.58 178.318 228.62C179.278 228.74 180.438 228.38 181.438 228.2C180.538 231.36 177.558 233.28 175.398 234.56C175.138 234.72 174.558 234.94 174.638 235.22ZM186.398 226.98C186.398 230.72 186.458 237.12 186.538 239.56C186.558 240.16 186.678 241.2 187.078 241.2C187.538 241.2 187.778 239.94 187.778 239.52C187.858 235.36 187.838 231.2 187.838 226.64C187.838 225.24 187.158 223.64 185.618 223.02C185.238 222.86 184.818 222.8 184.538 223.24C184.278 223.66 184.498 223.94 184.858 224.16C185.918 224.8 186.398 225.34 186.398 226.98ZM208.714 241.28C209.114 241.28 209.374 239.98 209.414 239.28C209.454 237.1 209.394 234.58 209.394 232.1C209.394 231.64 209.574 231.54 209.854 231.48C210.454 231.36 211.514 231.18 212.054 231.14C212.494 231.1 212.814 230.88 212.814 230.34C212.814 229.84 212.274 229.84 211.714 229.9C211.114 229.96 210.074 230.12 209.394 230.3C209.374 229.3 209.394 227.18 209.394 226.44C209.394 225.28 209.194 223.98 207.894 223.08C207.494 222.8 206.934 222.56 206.554 223.06C206.214 223.52 206.494 223.78 206.874 224.08C207.614 224.64 207.994 225.36 207.974 226.26C207.954 227.38 207.954 229.32 207.974 231.42C207.934 231.8 207.714 232 207.394 232.1C206.914 232.26 205.994 232.34 205.574 232.36C205.234 232.38 205.094 232.14 205.154 231.72C205.254 230.78 205.234 229.74 204.934 228.62C204.794 228.18 204.574 227.68 203.914 227.82C203.494 228.04 203.414 228.54 203.574 228.98C203.774 229.92 203.934 230.8 203.874 231.8C203.834 232.22 203.734 232.48 203.534 232.64C203.354 232.8 202.654 232.92 202.274 232.96C201.954 233 201.914 232.68 201.874 232.3C201.814 231.78 201.794 231.36 201.634 230.78C201.514 230.36 201.214 229.7 200.994 229.38C200.774 229.06 200.294 228.58 199.714 228.94C199.214 229.3 199.614 229.74 199.814 230.06C200.014 230.38 200.274 230.84 200.354 231.2C200.494 231.88 200.554 232.44 200.554 232.78C200.554 233.16 200.354 233.36 200.174 233.44C199.754 233.64 199.254 233.78 198.574 234.06C198.114 234.26 197.494 234.32 197.554 235C197.634 235.86 198.494 235.52 199.074 235.3C201.354 234.44 204.294 233.76 207.994 233.32L208.094 239.5C208.094 240.14 208.334 241.28 208.714 241.28ZM199.074 228.02C200.514 227.94 202.874 227.3 203.914 227C204.474 226.84 205.114 226.76 205.014 226.04C204.934 225.42 204.134 225.6 203.714 225.7C202.394 226.04 200.394 226.78 198.634 226.78C198.194 226.78 197.994 227.08 197.994 227.5C198.054 228.16 198.614 228.04 199.074 228.02ZM226.35 234.16C226.37 233.96 226.29 233.82 226.17 233.72C226.33 232.72 226.35 231.4 226.35 231.18V229.56C226.35 229.36 226.47 229.26 226.63 229.2C227.15 229.02 227.65 229 228.61 229.06C229.01 229.06 229.55 229.16 229.65 228.68C229.77 228.12 229.35 227.82 228.99 227.74C228.41 227.62 226.87 227.88 226.35 228.02C226.35 227.36 226.37 226.54 226.37 226.12C226.37 224.44 226.01 223.62 224.41 222.86C223.73 222.54 223.33 222.4 223.05 222.92C222.77 223.44 223.15 223.84 223.77 224.1C224.65 224.48 224.89 224.9 224.95 225.6C225.03 226.64 225.03 231.42 225.09 233.56C223.43 234.32 220.05 235.58 218.05 236.12C217.37 236.3 216.87 236.48 216.95 237.04C217.03 237.6 217.73 237.56 218.49 237.36C220.13 236.92 223.43 235.6 224.29 235.24C224.87 235 224.91 235.48 224.91 235.82C224.95 237.4 224.99 239.06 224.99 240.64C224.99 241.08 225.19 241.7 225.57 241.62C225.97 241.52 226.15 240.8 226.21 240.38C226.43 238.62 226.29 237.8 226.29 236.12C226.29 235.44 226.29 234.8 226.35 234.16ZM218.65 232.04C220.21 232.02 222.05 230.26 222.05 228.76C222.05 227.5 221.05 226.18 219.67 226.18C217.89 226.18 216.07 227.7 216.01 229.26C215.95 230.84 217.35 232.06 218.65 232.04ZM217.35 229.24C217.51 228.18 218.65 227.18 219.65 227.34C220.51 227.48 220.77 228.16 220.77 228.64C220.75 229.82 219.57 230.9 218.57 230.72C217.81 230.58 217.21 230.14 217.35 229.24ZM243.766 239.2C243.766 240.14 243.946 241.2 244.366 241.2C244.826 241.2 245.126 239.92 245.126 239.08C245.126 236.36 245.066 229.78 245.206 227.22C245.326 225.18 244.566 224.22 243.406 223.2C242.946 222.78 242.326 222.44 241.906 222.92C241.386 223.54 241.886 223.92 242.306 224.2C243.306 224.86 243.766 225.76 243.746 227.16V228.2C243.746 228.68 243.266 228.88 242.646 229.04C242.266 229.14 241.646 229.3 241.466 229.3V227.74C241.486 226.54 241.026 225.58 240.166 224.82C239.786 224.48 239.326 224.14 238.806 224.7C238.386 225.14 238.966 225.6 239.286 225.94C239.686 226.38 239.966 226.64 239.986 227.06C240.126 229.2 240.106 234.38 240.186 236.46C240.206 236.8 240.226 237.78 240.686 237.78C241.126 237.78 241.366 236.76 241.366 236.38C241.426 234.22 241.446 233.16 241.446 231.08C241.446 230.84 241.586 230.64 241.766 230.54C242.066 230.38 243.006 230.16 243.346 230.08C243.626 230.02 243.726 230.04 243.726 230.24C243.726 233.46 243.766 237.58 243.766 239.2ZM237.506 230.42C235.926 229.76 234.226 230.3 233.306 231.92C232.946 232.56 233.046 233.52 233.466 234.16C234.006 234.98 235.046 235.56 236.146 235.42C237.626 235.22 238.486 234.34 238.606 232.7C238.686 231.42 238.146 230.68 237.506 230.42ZM238.386 228.78C238.706 228.82 239.006 228.64 239.146 228.38C239.286 228.14 239.286 227.84 239.046 227.6C238.866 227.42 238.506 227.36 238.266 227.32C237.446 226.54 236.026 225.66 234.766 225.48C234.366 225.42 233.946 225.54 233.886 225.88C233.766 226.32 234.106 226.6 234.446 226.66C235.146 226.8 236.086 227.04 236.826 227.64C235.366 227.94 233.766 228.36 232.326 228.8C231.946 228.92 231.586 229.18 231.666 229.76C231.726 230.22 232.246 230.16 232.606 230.06C234.246 229.56 236.406 228.6 238.386 228.78ZM235.766 234.26C235.146 234.28 234.346 233.68 234.386 232.92C234.426 232.02 235.486 231.18 236.386 231.24C237.046 231.28 237.286 231.96 237.286 232.4C237.286 233.42 236.706 234.24 235.766 234.26ZM259.182 226.98C259.182 228.38 259.182 230.16 259.202 231.96C259.202 232.22 259.102 232.6 258.722 232.68C257.402 232.96 256.202 233.42 254.722 233.88C254.722 233.48 254.742 232.28 254.762 231.68C255.262 231.58 255.742 231.54 256.122 231.6C256.842 231.74 257.382 230.88 256.722 230.48C256.822 228.54 256.682 226.28 255.642 224.76C255.422 224.44 254.882 224.12 254.342 224.36C253.962 224.56 254.122 225.1 254.442 225.5C254.882 226.02 255.222 226.82 255.302 227.5C254.342 227.56 253.162 227.9 252.262 228.12C251.982 228.18 251.782 228.32 251.502 227.96C251.122 227.48 250.062 226.5 249.262 226.76C249.042 226.84 248.802 227 248.762 227.24C248.722 227.44 248.922 227.7 249.162 227.78C250.882 228.3 251.042 230.02 251.202 231.54C251.282 232.2 251.462 232.56 252.282 232.36L253.402 232.04L253.342 233.64C253.282 234.16 253.182 234.42 252.742 234.6C251.422 235.16 250.262 235.24 249.182 235.24C248.742 235.24 248.242 235.2 248.142 235.68C248.062 236.16 248.622 236.32 249.062 236.36C250.522 236.5 251.722 236.24 253.222 235.72C255.102 235.06 257.122 234.18 259.222 233.86C259.242 236.2 259.282 238.36 259.322 239.56C259.342 240.16 259.462 241.2 259.862 241.2C260.322 241.2 260.562 239.94 260.562 239.52C260.602 237.4 260.662 233.7 260.642 232.64C260.622 232.1 260.802 232 261.142 231.92C261.622 231.82 262.522 231.68 263.042 231.64C263.502 231.6 263.822 231.34 263.822 230.76C263.822 230.42 263.442 230.32 263.122 230.34C262.522 230.38 261.202 230.66 260.622 230.82V226.64C260.622 225.24 259.942 223.64 258.402 223.02C258.022 222.86 257.602 222.8 257.322 223.24C257.062 223.66 257.282 223.94 257.642 224.16C258.702 224.8 259.182 225.34 259.182 226.98ZM252.962 231C252.422 231.14 252.402 231.08 252.342 230.6C252.302 230.32 252.262 229.72 252.182 229.48C252.142 229.38 252.142 229.3 252.342 229.22C252.882 229.04 254.342 228.58 255.422 228.62C255.462 229.1 255.502 229.88 255.482 230.44C254.842 230.48 253.622 230.84 252.962 231ZM279.679 236.44C279.259 236.3 278.419 236.12 277.959 236.02C277.079 235.82 276.619 235.64 276.699 235.04C276.839 234.08 276.739 232.04 276.599 230.98C276.519 230.34 276.939 229.68 277.219 229.16C277.479 228.66 277.399 227.84 276.919 227.22C275.859 225.84 274.439 225.36 272.759 226.2C271.479 226.84 270.499 228.66 270.859 229.96C271.479 232.14 273.639 231.62 275.299 231.12C275.499 232.28 275.539 234.2 275.439 235.18C275.399 235.62 275.279 235.78 274.939 235.8C274.659 235.82 274.099 235.84 273.779 235.8C273.379 235.74 273.139 235.54 273.019 235.12C272.839 234.52 272.419 233.36 272.119 232.96C271.739 232.36 271.079 231.76 270.499 232.22C269.939 232.72 270.719 233.22 271.059 233.62C271.439 234.02 271.679 234.88 271.839 235.4C271.979 235.84 271.979 236.2 271.479 236.48C269.999 237.32 268.079 237.28 267.219 237.1C266.479 236.94 265.899 236.76 265.699 237.46C265.499 238.16 266.299 238.44 266.799 238.46C268.419 238.52 269.599 238.64 271.199 238.04C274.519 236.78 276.679 236.82 279.399 237.52C279.739 237.58 280.119 237.58 280.239 237.14C280.319 236.7 280.019 236.54 279.679 236.44ZM273.419 230.36C272.679 230.38 272.099 230.24 272.099 229.32C272.099 228.22 273.399 226.74 274.419 226.86C275.279 226.96 275.959 227.44 275.999 228.38C276.039 229.24 274.639 230.34 273.419 230.36ZM283.875 237.36C283.135 237.36 282.575 238.24 282.595 238.58C282.595 239.04 283.055 239.18 283.455 239.18C284.095 239.18 284.515 238.7 284.535 238.08C284.555 237.72 284.355 237.36 283.875 237.36Z" fill="black"/>
<rect opacity="0.3" x="19" y="129" width="117" height="16" fill="#F72121"/>
<path d="M215.5 6.5L107 0L97.5 18L98.5 33.5L96 39.5L210 46L214 43V37.5L217 35V30.5L220 29L221.5 24.5L218 19.5L220 18L218 16V9.5L215.5 6.5Z" fill="#FCF5E2" fill-opacity="0.8"/>
<defs>

</defs>
</svg>
