<svg width="320" height="342" viewBox="0 0 320 342" fill="none" xmlns="http://www.w3.org/2000/svg">
<g filter="url(#filter0_d_501_2)">
<rect x="9" y="23.3467" width="300" height="300" fill="#F9EF97"/>
</g>
<path d="M50.0521 123.76C50.0521 125.236 50.0521 126.928 50.1241 128.368C50.0161 128.62 49.9801 128.908 50.0161 129.232C50.0521 130.564 50.0881 130.6 50.0521 132.4C50.0161 133.804 49.2601 134.092 48.4681 134.092C46.2001 134.056 42.1321 134.992 40.6201 135.208C39.8281 133.84 38.1361 132.544 36.8041 131.968C39.2521 130.24 41.3401 128.008 42.8161 125.38C43.3561 124.408 46.3081 123.58 47.7841 123.292C48.8641 123.076 49.5841 122.356 49.2961 121.492C49.1161 121.024 48.5761 120.628 47.2801 121.096C43.7161 122.248 34.8961 125.308 29.9641 125.956C28.8481 126.1 28.2001 126.316 28.3441 127.468C28.4521 128.224 29.6041 128.404 30.6121 128.188C33.6721 127.684 36.5881 126.892 39.6121 125.884C36.6601 129.808 33.9961 131.392 30.0001 133.336C29.5321 133.552 28.7761 133.948 28.9201 134.524C29.1001 135.172 29.8561 135.1 30.3961 134.956C31.6921 134.596 32.9521 134.092 34.1761 133.516C34.4641 133.768 34.8961 133.984 35.2921 134.092C36.9841 134.668 38.6041 136.324 39.0361 138.16C39.3241 139.42 39.2881 140.428 39.4681 141.508C39.6841 142.876 41.2321 144.244 42.7081 142.3C44.0401 141.76 45.8761 141.904 47.2441 142.084C48.5401 142.228 49.6921 142.192 50.9161 142.372C51.7801 142.516 52.6441 142.12 52.6441 141.364C52.6441 140.932 52.3921 140.5 51.9601 140.212C52.1401 137.404 52.6801 130.312 52.5001 129.052C52.4641 128.8 52.3921 128.548 52.3201 128.368C52.5001 126.748 52.5361 125.092 52.5361 123.436V116.416C52.5361 113.392 51.8881 111.916 49.0081 110.548C47.7841 109.972 47.0641 109.72 46.5601 110.656C46.0561 111.592 46.7401 112.312 47.8561 112.78C49.4401 113.464 49.9801 114.22 49.9801 115.48L50.0521 123.76ZM32.9881 123.58C35.4001 122.32 38.1361 119.944 40.1161 116.956C41.5921 117.28 43.2841 118.792 44.1841 119.908C44.9041 120.808 45.3001 121.204 46.0561 120.808C46.7761 120.412 46.5961 119.584 46.2001 119.008C44.9401 117.244 43.2481 116.092 41.1241 114.76C41.4481 113.896 41.0881 112.312 39.8641 112.312C39.5761 112.312 38.8561 112.636 38.7841 113.212C38.7121 113.716 38.6041 114.688 37.9921 115.696C36.9481 117.46 34.0321 120.736 32.0161 122.032C31.7281 122.212 31.1521 122.932 31.2961 123.364C31.5121 124.048 32.7001 123.724 32.9881 123.58ZM49.7281 137.224C49.7281 137.872 49.6921 139.168 49.5841 139.888C47.8561 139.744 43.7161 139.708 42.4201 140.032C41.9881 140.14 41.7001 140.14 41.5921 139.708C41.4481 139.168 41.3761 138.52 41.2681 137.944C41.0881 137.08 41.7361 137.116 42.4921 136.936C43.9681 136.612 46.4881 136.324 47.9281 136.288C48.8281 136.252 49.7281 136.252 49.7281 137.224ZM76.0371 135.748C76.0371 136.36 76.1091 138.124 76.9371 138.124C77.7291 138.124 78.1611 136.288 78.1611 135.604C78.3051 130.276 78.3051 123.112 78.3411 119.692C78.3771 117.532 77.5491 115.804 76.0011 114.436C75.3171 113.824 74.4891 113.212 73.5531 114.22C72.7971 115.012 73.8411 115.84 74.4171 116.452C75.1371 117.244 75.5691 117.892 75.6411 118.648C75.6771 119.044 75.7131 119.476 75.7131 119.944C75.7131 120.916 75.1011 121.528 73.6971 122.14C73.0851 122.428 71.6451 123.004 70.5291 123.472C71.1411 122.032 71.5011 120.592 71.6451 119.188C71.7531 117.964 71.4651 117.136 70.4211 117.496C68.1891 118.324 64.8411 119.224 62.4651 119.26C61.9251 119.26 61.4211 119.764 61.4211 120.412C61.4211 121.096 62.0331 121.492 62.5731 121.492C63.7971 121.492 65.5251 121.204 66.6771 120.916C67.2531 120.772 68.3331 120.376 68.5131 120.556C68.7651 120.844 68.2251 122.392 67.9731 123.004C66.3531 126.424 63.7971 129.808 60.2331 132.4C59.8371 132.688 58.9371 133.3 59.1531 133.84C59.3331 134.452 60.3411 134.092 60.8451 133.84C64.1931 132.256 67.2531 129.304 69.2331 125.992C69.5931 126.136 69.9891 126.1 70.3851 125.956C71.5371 125.524 74.8131 124.156 75.8571 123.868C75.9651 128.08 75.9651 133.084 76.0371 135.748ZM81.2211 139.96C81.2211 141.652 81.5451 143.56 82.3011 143.56C83.1291 143.56 83.6691 141.256 83.6691 139.744C83.6691 134.848 83.5611 123.004 83.8131 118.396C84.0291 114.724 82.6611 112.996 80.5731 111.16C79.7451 110.404 78.6291 109.792 77.8731 110.656C76.9371 111.772 77.8371 112.456 78.5931 112.96C80.3931 114.148 81.2211 115.768 81.1851 118.288C81.1131 122.536 81.2211 136.324 81.2211 139.96ZM113.866 124.552C113.434 124.516 113.218 124.336 113.47 123.544C113.866 121.348 113.902 119.764 113.83 117.928C113.722 115.516 112.606 114.832 110.59 115.66C108.718 116.416 106.27 117.568 104.434 118.108C103.534 118.36 102.706 118.216 102.166 117.748C101.77 117.388 100.69 117.316 100.294 118.252C99.9341 119.044 100.438 119.512 101.05 120.088C103.03 121.996 104.038 123.904 104.182 126.676C104.218 127.612 104.794 128.476 105.802 128.188C108.826 127.288 112.498 126.712 114.694 126.568C115.234 126.532 115.666 126.172 115.558 125.488C115.45 124.732 114.55 124.624 113.866 124.552ZM107.35 125.596C106.918 125.668 106.522 125.524 106.378 125.164C106.162 124.588 105.838 122.356 105.226 121.276C104.794 120.52 104.974 120.016 105.874 119.728C106.81 119.44 108.646 118.756 110.014 118.252C110.95 117.892 111.238 118.324 111.346 119.404C111.418 120.628 111.526 123.004 111.166 124.66C110.194 124.66 108.034 125.488 107.35 125.596ZM121.462 122.608C121.462 122.248 121.678 122.068 121.966 121.96C122.902 121.636 123.802 121.6 125.53 121.708C126.25 121.708 127.222 121.888 127.402 121.024C127.618 120.016 126.862 119.476 126.214 119.332C125.17 119.116 122.398 119.584 121.462 119.836C121.462 118.648 121.498 117.172 121.498 116.416C121.498 113.392 120.85 111.916 117.97 110.548C116.746 109.972 116.026 109.72 115.522 110.656C115.018 111.592 115.702 112.312 116.818 112.78C118.402 113.464 118.834 114.22 118.942 115.48C119.122 117.676 119.086 130.204 119.266 132.364C119.302 132.76 119.518 133.336 119.914 133.372C120.238 133.372 120.778 132.868 120.994 132.004C121.426 130.24 121.462 127.036 121.462 126.604V122.608ZM123.37 138.304C122.974 137.62 121.858 138.592 121.39 138.88C119.698 139.924 118.438 139.924 117.178 139.852C114.154 139.636 111.994 136.684 109.798 134.56C108.61 133.372 107.494 132.22 105.766 131.932C104.938 131.788 103.714 131.788 103.642 132.796C103.534 133.84 104.326 134.272 105.046 134.38C106.99 134.632 107.926 136.18 109.042 137.332C110.878 139.204 112.21 140.356 114.586 141.436C117.106 142.588 119.878 142.228 122.002 140.464C123.01 139.636 123.622 138.736 123.37 138.304ZM144.423 120.628C146.619 119.584 148.707 118.216 151.371 118.252C152.091 118.288 152.595 117.892 152.487 117.172C152.415 116.524 151.839 116.2 151.119 116.128C148.887 115.984 146.979 116.956 145.071 117.928C144.315 118.324 143.883 118.54 143.343 118.756C142.515 119.08 141.759 118.972 141.507 118.288C141.183 117.46 140.895 116.776 140.643 115.696C142.407 114.94 145.791 113.608 148.059 113.752C148.563 113.788 149.211 113.428 149.211 112.672C149.211 112.024 148.563 111.664 147.879 111.7C145.575 111.808 142.119 112.672 139.419 114.04C138.591 114.472 138.087 115.084 138.303 116.056C138.447 116.668 139.167 118.828 139.635 119.8C140.499 121.564 142.551 121.456 144.423 120.628ZM150.039 121.348C146.583 122.572 140.139 125.488 136.431 126.748C135.063 127.216 133.407 127.108 131.895 127.144C131.355 127.18 130.671 127.72 130.779 128.476C130.779 129.232 131.427 129.412 132.075 129.412C134.091 129.448 136.251 129.376 137.979 128.692C141.687 127.18 150.579 123.292 152.739 122.644C153.423 122.428 155.331 122.032 156.123 121.96C156.591 121.924 157.275 121.6 157.203 120.916C157.131 120.232 156.591 119.98 156.087 119.944C154.287 119.8 152.199 120.592 150.039 121.348ZM154.143 141.796C153.027 142.12 151.407 141.976 150.327 141.688C148.239 141.112 145.323 139.708 143.451 137.044C145.683 135.856 148.311 134.812 150.183 134.632C151.443 135.028 153.315 134.596 153.387 133.012C153.459 131.644 153.495 129.88 153.711 128.404C153.999 126.964 153.387 126.424 152.595 126.424C152.235 126.424 151.659 126.568 151.227 126.748C146.007 128.728 140.967 130.744 136.215 132.652C135.459 133.012 134.451 133.588 134.811 134.452C135.387 135.46 136.503 135.172 137.367 134.776C137.979 134.488 138.663 134.02 139.383 133.696C142.011 132.508 147.195 130.6 149.787 129.592C150.759 129.196 150.867 129.196 150.939 129.664C150.975 129.844 150.867 131.248 150.831 131.608C150.759 132.184 150.723 132.472 149.319 132.76C147.231 133.192 141.399 135.172 138.951 136.432C138.339 136.756 137.655 137.152 137.907 137.836C138.087 138.448 138.699 139.06 139.167 138.844C139.563 138.628 139.959 138.592 140.319 138.592C141.255 138.628 142.155 139.636 142.983 140.392C144.927 142.12 147.447 142.984 149.823 143.56C151.047 143.848 153.495 143.776 154.719 143.164C155.295 142.84 156.087 142.588 155.691 141.796C155.475 141.328 155.007 141.544 154.143 141.796ZM169.724 118.72C166.628 118.72 163.604 122.14 163.64 125.524C163.676 128.764 165.836 130.744 169.184 130.744C173.108 130.744 175.592 128.188 175.628 124.3C175.628 120.592 173.72 118.648 169.724 118.72ZM182 119.116C182 119.692 181.532 120.088 180.992 120.232C180.308 120.412 178.256 120.952 177.104 121.42C176.384 121.708 175.916 122.104 176.168 122.824C176.492 123.724 177.32 123.688 177.968 123.436C179.012 123.04 180.74 122.572 182 122.392C182.036 128.944 182.144 137.08 182.252 140.608C182.288 141.688 182.504 143.56 183.224 143.56C184.052 143.56 184.484 141.292 184.484 140.536C184.628 133.048 184.592 125.56 184.592 117.352C184.592 114.832 183.368 111.952 180.596 110.836C179.912 110.548 179.156 110.44 178.652 111.232C178.184 111.988 178.58 112.492 179.228 112.888C181.136 114.04 182 115.012 182 117.964V119.116ZM173.36 124.264C173.36 126.784 171.236 128.836 169.112 128.548C167.132 128.296 165.944 127.252 166.052 124.732C166.124 123.04 168.14 120.772 170.588 120.664C172.172 121.024 173.36 122.14 173.36 124.264ZM200.317 118.72C197.221 118.72 194.197 122.14 194.233 125.524C194.269 128.764 196.429 130.744 199.777 130.744C203.701 130.744 206.185 128.188 206.221 124.3C206.221 120.592 204.313 118.648 200.317 118.72ZM203.953 124.264C203.953 126.784 201.829 128.836 199.705 128.548C197.725 128.296 196.537 127.252 196.645 124.732C196.717 123.04 198.733 120.772 201.181 120.664C202.765 121.024 203.953 122.14 203.953 124.264ZM212.089 143.704C212.809 143.704 213.277 141.364 213.349 140.104C213.385 137.476 213.385 134.956 213.385 131.572C213.385 129.016 214.681 128.98 215.473 128.728C215.941 128.584 217.633 128.332 218.173 128.296C218.857 128.26 219.865 128.332 219.793 126.964C219.757 125.956 219.001 125.812 218.137 125.884C217.201 125.956 214.897 126.316 213.817 126.604C213.421 126.712 213.313 126.568 213.313 126.28V123.4C213.313 122.428 214.789 122.14 215.329 122.068C216.625 121.852 217.165 121.708 218.425 121.564C219.109 121.492 219.685 121.096 219.577 120.196C219.505 119.476 218.929 119.26 218.245 119.296C217.129 119.332 214.897 119.728 213.997 119.98C213.457 120.124 213.313 119.908 213.313 119.476V116.992C213.313 114.904 212.953 112.564 210.613 110.944C209.893 110.44 208.885 110.008 208.201 110.908C207.589 111.736 208.093 112.204 208.777 112.744C210.109 113.752 210.793 115.048 210.757 116.668C210.685 121.564 210.901 135.496 210.973 140.5C210.973 141.652 211.405 143.704 212.089 143.704ZM255.39 139.96C255.39 141.652 255.714 143.56 256.47 143.56C257.298 143.56 257.838 141.256 257.838 139.744C257.838 134.848 257.73 123.004 257.982 118.396C258.198 114.724 256.83 112.996 254.742 111.16C253.914 110.404 252.798 109.792 252.042 110.656C251.106 111.772 252.006 112.456 252.762 112.96C254.562 114.148 255.39 115.768 255.354 118.288V120.16C255.354 121.024 254.49 121.384 253.374 121.672C252.69 121.852 251.574 122.14 251.25 122.14V119.332C251.286 117.172 250.458 115.444 248.91 114.076C248.226 113.464 247.398 112.852 246.462 113.86C245.706 114.652 246.75 115.48 247.326 116.092C248.046 116.884 248.55 117.352 248.586 118.108C248.838 121.96 248.802 131.284 248.946 135.028C248.982 135.64 249.018 137.404 249.846 137.404C250.638 137.404 251.07 135.568 251.07 134.884C251.178 130.996 251.214 129.088 251.214 125.344C251.214 124.912 251.466 124.552 251.79 124.372C252.33 124.084 254.022 123.688 254.634 123.544C255.138 123.436 255.318 123.472 255.318 123.832C255.318 129.628 255.39 137.044 255.39 139.96ZM244.122 124.156C241.278 122.968 238.218 123.94 236.562 126.856C235.914 128.008 236.094 129.736 236.85 130.888C237.822 132.364 239.694 133.408 241.674 133.156C244.338 132.796 245.886 131.212 246.102 128.26C246.246 125.956 245.274 124.624 244.122 124.156ZM245.706 121.204C246.282 121.276 246.822 120.952 247.074 120.484C247.326 120.052 247.326 119.512 246.894 119.08C246.57 118.756 245.922 118.648 245.49 118.576C244.014 117.172 241.458 115.588 239.19 115.264C238.47 115.156 237.714 115.372 237.606 115.984C237.39 116.776 238.002 117.28 238.614 117.388C239.874 117.64 241.566 118.072 242.898 119.152C240.27 119.692 237.39 120.448 234.798 121.24C234.114 121.456 233.466 121.924 233.61 122.968C233.718 123.796 234.654 123.688 235.302 123.508C238.254 122.608 242.142 120.88 245.706 121.204ZM240.99 131.068C239.874 131.104 238.434 130.024 238.506 128.656C238.578 127.036 240.486 125.524 242.106 125.632C243.294 125.704 243.726 126.928 243.726 127.72C243.726 129.556 242.682 131.032 240.99 131.068ZM289.439 134.992C288.683 134.74 287.171 134.416 286.343 134.236C284.759 133.876 283.931 133.552 284.075 132.472C284.327 130.744 284.147 127.072 283.895 125.164C283.751 124.012 284.507 122.824 285.011 121.888C285.479 120.988 285.335 119.512 284.471 118.396C282.563 115.912 280.007 115.048 276.983 116.56C274.679 117.712 272.915 120.988 273.563 123.328C274.679 127.252 278.567 126.316 281.555 125.416C281.915 127.504 281.987 130.96 281.807 132.724C281.735 133.516 281.519 133.804 280.907 133.84C280.403 133.876 279.395 133.912 278.819 133.84C278.099 133.732 277.667 133.372 277.451 132.616C277.127 131.536 276.371 129.448 275.831 128.728C275.147 127.648 273.959 126.568 272.915 127.396C271.907 128.296 273.311 129.196 273.923 129.916C274.607 130.636 275.039 132.184 275.327 133.12C275.579 133.912 275.579 134.56 274.679 135.064C272.015 136.576 268.559 136.504 267.011 136.18C265.679 135.892 264.635 135.568 264.275 136.828C263.915 138.088 265.355 138.592 266.255 138.628C269.171 138.736 271.295 138.952 274.175 137.872C280.151 135.604 284.039 135.676 288.935 136.936C289.547 137.044 290.231 137.044 290.447 136.252C290.591 135.46 290.051 135.172 289.439 134.992ZM278.171 124.048C276.839 124.084 275.795 123.832 275.795 122.176C275.795 120.196 278.135 117.532 279.971 117.748C281.519 117.928 282.743 118.792 282.815 120.484C282.887 122.032 280.367 124.012 278.171 124.048Z" fill="black"/>
<rect opacity="0.3" x="28" y="129" width="58" height="19" fill="#FF0000"/>
<path d="M214.5 6.5L106 0L96.5 18L97.5 33.5L95 39.5L209 46L213 43V37.5L216 35V30.5L219 29L220.5 24.5L217 19.5L219 18L217 16V9.5L214.5 6.5Z" fill="#FCF5E2" fill-opacity="0.8"/>
<path d="M95.5937 200.96C96.2137 201.34 97.1337 202 97.2937 202.9C97.4737 203.9 97.9737 204.34 98.9537 203.76C99.6137 203.38 100.294 203.08 101.114 203.08C101.614 203.08 102.554 202.96 102.434 202.32C102.154 201.04 102.674 199.92 102.674 198.38C102.674 197.3 102.554 197.1 101.614 197.34C99.9937 197.82 98.2937 198.26 96.9737 199.46C96.6937 199.76 96.4937 200 96.0537 199.72C95.5937 199.42 95.0937 199.38 94.8537 199.96C94.5937 200.54 95.2137 200.72 95.5937 200.96ZM101.154 198.84C101.274 199.5 101.174 200.28 101.214 200.84C101.254 201.46 101.074 201.66 100.754 201.76C100.394 201.88 99.5737 202.06 99.2737 202.2C98.6737 202.48 98.4937 202.46 98.3737 202.2C98.1737 201.74 97.7537 201.18 97.5737 200.82C97.4737 200.62 97.5537 200.48 97.6737 200.36C98.6337 199.48 99.9537 199.06 101.154 198.84ZM101.894 204.32C99.8137 205.08 96.8537 206.72 94.4737 207.28C93.9937 207.38 92.8937 207.44 92.3937 207.44C92.0937 207.44 91.8337 207.78 91.8337 208.2C91.8337 208.62 92.1937 208.72 92.5537 208.72C93.6737 208.72 94.7937 208.68 95.8537 208.26C97.2137 207.72 98.5937 207.16 99.9537 206.52C100.174 206.42 100.294 206.64 100.294 207.04C100.294 209.26 100.354 211.84 100.374 213.2C100.374 213.54 100.494 214.28 100.834 214.28C101.574 214.28 101.654 213.12 101.654 212.58C101.654 210.8 101.614 208.68 101.714 207.1C101.794 205.98 101.954 205.7 102.254 205.56C103.294 205.08 104.454 204.7 105.674 204.58C105.934 204.56 106.274 204.42 106.234 204.04C106.194 203.66 105.934 203.5 105.654 203.48C104.654 203.42 103.094 203.88 101.894 204.32ZM116.61 202.7C116.57 202.34 116.51 201.2 116.67 199.86C116.77 198.96 116.65 198.26 115.39 198.74C114.15 199.18 112.79 199.76 111.39 199.66C110.91 199.62 110.53 199.78 110.53 200.36C110.55 201.08 111.11 200.96 111.51 200.92C112.39 200.82 114.23 200.44 114.79 200.2C115.25 200.04 115.27 200.28 115.25 200.68C115.23 201.24 115.23 201.94 115.13 202.2C115.01 202.52 113.63 202.82 112.71 203.04C111.75 203.28 110.97 203.52 109.99 203.72C109.37 203.86 109.03 204.58 109.57 204.78C109.89 204.9 110.23 204.98 110.47 205.22C111.07 205.84 111.85 207.42 112.43 208.16C113.19 209.08 113.79 209.24 115.39 208.44C116.11 208.06 118.93 206.06 120.23 204.66C120.25 207.76 120.29 210.98 120.35 212.56C120.37 213.16 120.49 214.2 120.89 214.2C121.35 214.2 121.59 212.94 121.59 212.52C121.67 208.36 121.65 204.2 121.65 199.64C121.65 198.24 120.97 196.64 119.43 196.02C119.05 195.86 118.63 195.8 118.35 196.24C118.09 196.66 118.31 196.94 118.67 197.16C119.73 197.8 120.21 198.34 120.21 199.98V202.5C120.15 202.94 120.01 203.2 119.87 203.4C119.29 204.36 116.19 206.52 115.19 207.06C114.65 207.36 113.79 207.64 113.39 207.14C112.93 206.52 112.71 206.16 112.25 205.3C111.89 204.6 112.13 204.44 112.53 204.3C113.25 204.06 114.35 203.8 115.15 203.7C115.39 203.94 116.75 204.04 116.61 202.7ZM128.886 199.44C129.866 199.86 131.066 200.18 131.846 200.28C132.166 200.32 132.586 200.24 132.646 200.02C132.706 199.72 132.586 199.42 132.246 199.32C131.506 199.12 130.286 198.7 129.386 198.26C129.086 198.1 128.586 198.2 128.466 198.44C128.246 198.9 128.426 199.26 128.886 199.44ZM130.726 202.86C129.046 202.8 126.946 204.7 127.346 206.58C127.646 207.58 128.726 208.46 130.006 208.56C130.606 208.6 131.406 208.4 131.906 208.06C132.866 207.42 133.286 206.66 133.346 205.9C133.426 204.46 132.386 202.92 130.726 202.86ZM131.966 206.16C131.766 207.02 130.986 207.3 130.106 207.36C129.526 207.4 128.766 206.88 128.646 206.18C128.446 204.98 129.766 204 130.746 204.04C131.786 204.04 132.166 205.38 131.966 206.16ZM126.706 202.94C128.106 202.6 131.226 201.96 132.686 201.94C133.006 201.94 133.546 201.86 133.546 201.36C133.526 200.96 133.146 200.82 132.726 200.78C131.766 200.7 128.266 201.34 126.566 201.56C126.166 201.6 125.746 202 125.746 202.5C125.766 203.04 126.466 203 126.706 202.94ZM136.526 214.28C136.926 214.28 137.186 212.98 137.226 212.28C137.266 210.1 137.206 208.38 137.206 205.9C137.206 205.44 137.386 205.34 137.666 205.28C138.266 205.16 139.326 204.98 139.866 204.94C140.306 204.9 140.626 204.68 140.626 204.14C140.626 203.64 140.086 203.64 139.526 203.7C138.926 203.76 137.886 203.92 137.206 204.1C137.186 203.1 137.206 200.18 137.206 199.44C137.206 198.28 137.006 196.98 135.706 196.08C135.306 195.8 134.746 195.56 134.366 196.06C134.026 196.52 134.306 196.78 134.686 197.08C135.426 197.64 135.806 198.36 135.786 199.26C135.746 201.98 135.866 209.72 135.906 212.5C135.906 213.14 136.146 214.28 136.526 214.28ZM142.642 208.22C142.702 208.44 143.382 208.34 143.802 208.22C145.102 207.86 146.722 206.88 147.842 205.9C148.422 205.4 148.782 205.04 149.142 204.72C149.922 205.12 150.522 205.68 151.002 206.28C151.302 206.66 151.782 207.14 152.182 206.8C152.682 206.36 152.222 205.66 151.882 205.26C151.682 205.02 150.862 204.34 150.462 204.08C150.242 203.94 149.922 203.68 150.042 203.28C150.182 202.8 150.682 201.98 150.922 201.46C151.202 200.92 151.822 200.3 151.442 199.72C151.162 199.28 150.742 199.5 150.362 199.6C149.062 200.08 147.742 200.48 146.322 200.36C145.862 200.36 145.582 200.52 145.582 201.1C145.642 201.58 145.962 201.58 146.322 201.62C147.282 201.74 148.442 201.38 149.442 201.2C148.542 204.36 145.562 206.28 143.402 207.56C143.142 207.72 142.562 207.94 142.642 208.22ZM154.402 199.98C154.402 203.72 154.462 210.12 154.542 212.56C154.562 213.16 154.682 214.2 155.082 214.2C155.542 214.2 155.782 212.94 155.782 212.52C155.862 208.36 155.842 204.2 155.842 199.64C155.842 198.24 155.162 196.64 153.622 196.02C153.242 195.86 152.822 195.8 152.542 196.24C152.282 196.66 152.502 196.94 152.862 197.16C153.922 197.8 154.402 198.34 154.402 199.98ZM173.158 205.34C172.918 205.32 172.798 205.22 172.938 204.78C173.158 203.56 173.158 202.18 173.118 201.16C173.058 199.82 172.438 199.44 171.318 199.9C170.278 200.32 168.918 200.96 167.898 201.26C167.398 201.4 166.938 201.32 166.638 201.06C166.418 200.86 165.818 200.82 165.598 201.34C165.398 201.78 165.598 202.06 165.958 202.36C167.178 203.46 167.698 204.78 167.778 206.32C167.798 206.84 168.118 207.32 168.678 207.16C170.358 206.66 172.398 206.58 173.618 206.5C173.918 206.48 174.158 206.28 174.098 205.9C174.038 205.48 173.538 205.38 173.158 205.34ZM169.538 205.72C169.298 205.76 169.078 205.68 168.998 205.48C168.878 205.16 168.738 203.64 168.398 203.04C168.158 202.62 168.298 202.34 168.798 202.18C169.318 202.02 170.178 201.7 170.938 201.42C171.458 201.22 171.618 201.46 171.678 202.06C171.718 202.74 171.858 204.48 171.658 205.4C171.118 205.4 169.918 205.66 169.538 205.72ZM176.718 214.28C177.118 214.28 177.378 212.98 177.418 212.28C177.458 210.1 177.398 207.58 177.398 205.1C177.398 204.64 177.578 204.54 177.858 204.48C178.458 204.36 179.518 204.18 180.058 204.14C180.498 204.1 180.818 203.88 180.818 203.34C180.818 202.84 180.278 202.84 179.718 202.9C179.118 202.96 178.078 203.12 177.398 203.3C177.378 202.3 177.398 200.18 177.398 199.44C177.398 198.28 177.198 196.98 175.898 196.08C175.498 195.8 174.938 195.56 174.558 196.06C174.218 196.52 174.498 196.78 174.878 197.08C175.618 197.64 175.998 198.36 175.978 199.26C175.938 201.98 176.058 209.72 176.098 212.5C176.098 213.14 176.338 214.28 176.718 214.28ZM188.094 199.72C187.834 199.86 187.934 200.28 187.974 200.5C188.074 201.2 187.754 201.66 187.294 202.16C186.234 203.32 184.654 205.1 182.774 205.86C182.494 205.98 182.234 206.22 182.374 206.58C182.494 206.92 182.954 206.86 183.214 206.84C184.114 206.74 185.334 205.84 186.014 205.36C186.574 204.98 186.834 204.94 187.394 205.16C188.074 205.42 188.814 206.12 189.374 206.7C189.674 207.02 189.994 207.28 190.414 206.9C190.694 206.62 190.534 206 190.234 205.74C189.634 205.18 188.754 204.46 188.094 204.06C187.854 203.92 187.894 203.68 188.054 203.42C188.274 203.08 188.754 202.48 188.994 202.08C189.214 201.7 189.394 201.38 189.374 200.92C189.314 199.96 188.654 199.4 188.094 199.72ZM195.194 212.2C195.194 213.14 195.374 214.2 195.794 214.2C196.254 214.2 196.554 212.92 196.554 212.08C196.554 209.36 196.494 202.78 196.634 200.22C196.754 198.18 195.994 197.22 194.834 196.2C194.374 195.78 193.754 195.44 193.334 195.92C192.814 196.54 193.314 196.92 193.734 197.2C194.734 197.86 195.194 198.76 195.174 200.16C195.134 202.52 195.194 210.18 195.194 212.2ZM192.414 209.86C192.414 210.2 192.454 211.18 192.914 211.18C193.354 211.18 193.594 210.16 193.594 209.78C193.674 206.82 193.674 202.84 193.694 200.94C193.714 199.74 193.254 198.78 192.394 198.02C192.014 197.68 191.554 197.34 191.034 197.9C190.614 198.34 191.194 198.8 191.514 199.14C191.914 199.58 192.154 199.94 192.194 200.36C192.214 200.58 192.234 200.8 192.234 200.96C192.234 201.5 191.894 201.84 191.114 202.18C190.654 202.38 189.974 202.7 189.434 202.98C189.094 203.16 188.774 203.42 188.974 203.78C189.194 204.18 189.574 204.22 189.934 204.08C190.574 203.84 191.734 203.3 192.314 203.14C192.374 205.48 192.374 208.38 192.414 209.86ZM213.69 209.44C213.27 209.3 212.43 209.12 211.97 209.02C211.09 208.82 210.63 208.64 210.71 208.04C210.85 207.08 210.75 205.04 210.61 203.98C210.53 203.34 210.95 202.68 211.23 202.16C211.49 201.66 211.41 200.84 210.93 200.22C209.87 198.84 208.45 198.36 206.77 199.2C205.49 199.84 204.51 201.66 204.87 202.96C205.49 205.14 207.65 204.62 209.31 204.12C209.51 205.28 209.55 207.2 209.45 208.18C209.41 208.62 209.29 208.78 208.95 208.8C208.67 208.82 208.11 208.84 207.79 208.8C207.39 208.74 207.15 208.54 207.03 208.12C206.85 207.52 206.43 206.36 206.13 205.96C205.75 205.36 205.09 204.76 204.51 205.22C203.95 205.72 204.73 206.22 205.07 206.62C205.45 207.02 205.69 207.88 205.85 208.4C205.99 208.84 205.99 209.2 205.49 209.48C204.01 210.32 202.09 210.28 201.23 210.1C200.49 209.94 199.91 209.76 199.71 210.46C199.51 211.16 200.31 211.44 200.81 211.46C202.43 211.52 203.61 211.64 205.21 211.04C208.53 209.78 210.69 209.82 213.41 210.52C213.75 210.58 214.13 210.58 214.25 210.14C214.33 209.7 214.03 209.54 213.69 209.44ZM207.43 203.36C206.69 203.38 206.11 203.24 206.11 202.32C206.11 201.22 207.41 199.74 208.43 199.86C209.29 199.96 209.97 200.44 210.01 201.38C210.05 202.24 208.65 203.34 207.43 203.36ZM217.886 210.36C217.146 210.36 216.586 211.24 216.606 211.58C216.606 212.04 217.066 212.18 217.466 212.18C218.106 212.18 218.526 211.7 218.546 211.08C218.566 210.72 218.366 210.36 217.886 210.36ZM75.9437 228.58C75.9437 228.3 75.9237 227.82 75.9237 227.36C75.9237 227.16 76.0437 227.06 76.2037 227C76.7237 226.82 77.2237 226.8 78.1837 226.86C78.5837 226.86 79.1237 226.96 79.2237 226.48C79.3437 225.92 78.9237 225.62 78.5637 225.54C77.9837 225.42 76.4437 225.68 75.9237 225.82C75.9237 225.16 75.9437 224.54 75.9437 224.12C75.9437 222.44 75.5637 221.54 74.1837 220.86C73.5037 220.52 73.0637 220.4 72.7837 220.92C72.5037 221.44 72.9237 221.84 73.5437 222.1C74.2037 222.38 74.4637 222.9 74.5237 223.6C74.5637 224.16 74.5837 225.72 74.6037 227.38C72.7837 228.5 70.7037 229.42 69.8637 229.42C69.7037 229.42 69.3637 229.38 69.3437 228.96C69.2837 227.7 69.3237 226.34 69.2437 225.32C69.2237 225 69.5437 224.84 69.8437 224.74C70.1637 224.64 71.1037 224.48 71.3637 224.42C71.7437 224.32 72.1837 224.12 72.1437 223.64C72.1037 223.2 71.6637 223.1 71.3037 223.16C70.4637 223.32 69.1437 223.62 68.2837 223.84C68.1237 223.78 67.8437 223.7 67.3837 223.82C66.2837 224.1 64.9037 224.54 63.6437 224.94C63.3037 225.04 63.1437 225.22 63.1437 225.56C63.1837 226.3 64.0237 225.92 64.1237 226.42C64.3437 227.62 64.3437 228.92 64.3037 229.78C64.2637 230.5 64.1637 231.88 66.8037 230.72C67.2837 230.52 68.2037 229.82 68.2837 230.36C68.4237 231.32 69.4237 231 70.5437 230.62C71.5437 230.28 73.1037 229.52 74.6237 228.64C74.6237 229.78 74.6437 230.86 74.6637 231.56C73.0037 232.32 69.4237 233.68 67.4237 234.22C66.7437 234.4 66.2437 234.58 66.3237 235.14C66.4037 235.7 67.1037 235.66 67.8637 235.46C69.5037 235.02 73.0037 233.6 73.8637 233.24C74.4437 233 74.4837 233.48 74.4837 233.82C74.5237 235.4 74.5637 237.06 74.5637 238.64C74.5637 239.08 74.7637 239.7 75.1437 239.62C75.5437 239.52 75.7237 238.8 75.7837 238.38C76.0037 236.62 75.8637 235.8 75.8637 234.12C75.8637 233.44 75.8637 232.8 75.9237 232.16C75.9437 231.96 75.8637 231.8 75.7237 231.7C75.9437 230.64 75.9637 229.72 75.9437 228.58ZM67.8637 225.56C67.9037 226.14 68.0237 227.9 67.9837 228.84C67.3437 229.2 67.0437 229.56 66.3237 229.68C65.9237 229.76 65.5637 229.7 65.5837 229.26C65.6037 228.38 65.4637 227.6 65.4637 227.1C65.4637 226.14 65.3437 225.8 65.7837 225.64C66.4637 225.4 66.8437 225.24 67.2037 225.16C67.6237 225.06 67.8437 225.2 67.8637 225.56ZM87.5405 233.34C87.1205 233.48 86.9805 233.76 87.1405 234.28C87.6005 235.8 89.0805 237 90.9405 237C93.4405 237 95.3205 235.26 95.5805 232.76C95.8605 230.08 94.2605 228 91.3405 228.32C90.9805 228.36 90.7605 228.5 90.8605 227.86C90.9205 227.44 91.2005 225.86 91.3005 225.42C92.0205 225.46 93.8805 225.44 94.5805 225.42C95.0805 225.4 95.6605 225.4 95.6405 224.8C95.6205 224.2 95.1005 224.26 94.6605 224.28C94.0405 224.32 92.4805 224.3 91.8205 224.26C91.4805 224.24 91.4205 224.2 91.4605 223.88C91.5205 223.4 91.5805 222.96 90.8605 222.98C90.1205 223.04 90.1205 223.62 90.1005 223.94C89.9805 225.44 89.5205 227.96 89.2405 229.32C89.1405 229.78 88.7405 230.3 89.3205 230.52C89.8605 230.72 90.0205 230.42 90.3405 230.08C91.1605 229.38 92.6805 229.26 93.4805 230.08C94.0805 230.66 94.2605 231.68 94.1805 232.64C94.0005 234.66 92.5005 235.82 90.9405 235.82C89.6405 235.82 88.8205 235 88.4005 233.8C88.2605 233.4 87.9405 233.2 87.5405 233.34ZM98.5205 230.4C98.2605 234.16 98.9205 236.9 102.101 236.9C105.081 236.9 106.261 234.38 106.341 230.2C106.441 226.44 105.861 223.3 102.881 223.3C100.101 223.3 98.8005 226.62 98.5205 230.4ZM99.9005 230.4C100.141 227.26 101.201 224.4 102.861 224.4C104.801 224.4 105.041 227.06 104.961 230.2C104.881 233.74 103.981 235.8 102.121 235.8C100.101 235.8 99.6605 233.44 99.9005 230.4ZM114.188 226.88C114.948 228.92 115.448 228.76 116.648 228.26C117.548 227.88 118.668 227.42 119.468 227.5C120.368 227.58 121.028 226.8 120.308 226.32C120.408 225.72 120.368 225.06 120.328 223.74C120.308 223.02 120.148 222.36 119.988 221.92C119.808 221.42 119.528 220.94 118.888 221.18C118.268 221.42 118.508 221.9 118.648 222.32C118.788 222.74 118.868 222.92 118.888 223.18C118.928 223.64 118.408 223.6 117.588 223.86C116.688 224.14 116.128 224.22 115.348 224.44C114.988 224.54 114.668 224.62 114.468 224.34C113.988 223.66 113.408 223.22 113.028 222.96C112.728 222.76 112.168 222.58 111.788 223.04C111.388 223.5 111.868 223.8 112.168 224.04C112.888 224.66 113.748 225.66 114.188 226.88ZM122.708 235.82C122.488 235.44 121.888 236.08 121.628 236.24C120.768 236.94 120.008 237.26 119.308 237.24C117.708 237.2 116.508 236.38 115.068 234.96C114.408 234.3 113.768 233.88 112.788 233.76C112.328 233.7 111.648 233.74 111.628 234.3C111.608 234.88 111.968 235.14 112.368 235.18C113.468 235.26 113.928 235.9 114.748 236.6C116.668 238.24 118.408 238.76 120.268 238.32C121.728 237.98 123.008 236.26 122.708 235.82ZM115.648 225.64C116.608 225.28 116.608 225.28 118.288 224.86C118.448 224.82 119.048 224.7 119.108 225.1C119.148 225.42 119.168 225.88 119.088 226.22C118.148 226.48 117.048 226.72 116.048 227.12C115.568 227.32 115.448 226.96 115.308 226.66C115.108 226.16 115.228 225.8 115.648 225.64ZM119.508 228.78C117.588 229.46 114.008 230.88 111.948 231.58C111.188 231.84 110.268 231.78 109.428 231.8C109.128 231.82 108.748 232.12 108.808 232.54C108.808 232.96 109.168 233.06 109.528 233.06C110.648 233.08 111.848 233.04 112.808 232.66L117.528 230.82C117.708 230.76 117.848 231.14 117.948 231.56C118.068 232.12 118.108 232.9 118.028 233.4C117.968 233.78 117.908 234.36 118.308 234.48C118.788 234.62 119.048 234.02 119.148 233.68C119.408 232.8 119.408 231.72 119.268 230.84C119.208 230.48 119.208 230.24 119.328 230.12C120.168 229.78 120.708 229.6 121.008 229.5C121.388 229.38 122.448 229.16 122.888 229.12C123.148 229.1 123.528 228.92 123.488 228.54C123.448 228.16 123.148 228.02 122.868 228C121.868 227.92 120.708 228.36 119.508 228.78ZM133.404 228.64C133.164 228.62 133.044 228.52 133.184 228.08C133.404 226.86 133.424 225.98 133.384 224.96C133.324 223.62 132.704 223.24 131.584 223.7C130.544 224.12 129.184 224.76 128.164 225.06C127.664 225.2 127.204 225.12 126.904 224.86C126.684 224.66 126.084 224.62 125.864 225.14C125.664 225.58 125.944 225.84 126.284 226.16C127.384 227.22 127.944 228.28 128.024 229.82C128.044 230.34 128.364 230.82 128.924 230.66C130.604 230.16 132.644 229.84 133.864 229.76C134.164 229.74 134.404 229.54 134.344 229.16C134.284 228.74 133.784 228.68 133.404 228.64ZM129.784 229.22C129.544 229.26 129.324 229.18 129.244 228.98C129.124 228.66 128.944 227.42 128.604 226.82C128.364 226.4 128.464 226.12 128.964 225.96C129.484 225.8 130.504 225.42 131.264 225.14C131.784 224.94 131.944 225.18 132.004 225.78C132.044 226.46 132.104 227.78 131.904 228.7C131.364 228.7 130.164 229.16 129.784 229.22ZM137.624 227.56C137.624 227.36 137.744 227.26 137.904 227.2C138.424 227.02 138.924 227 139.884 227.06C140.284 227.06 140.824 227.16 140.924 226.68C141.044 226.12 140.624 225.82 140.264 225.74C139.684 225.62 138.144 225.88 137.624 226.02C137.624 225.36 137.644 224.54 137.644 224.12C137.644 222.44 137.284 221.62 135.684 220.86C135.004 220.54 134.604 220.4 134.324 220.92C134.044 221.44 134.424 221.84 135.044 222.1C135.924 222.48 136.164 222.9 136.224 223.6C136.324 224.82 136.304 231.78 136.404 232.98C136.424 233.2 136.544 233.52 136.764 233.54C136.944 233.54 137.244 233.26 137.364 232.78C137.604 231.8 137.624 230.02 137.624 229.78V227.56ZM138.684 236.28C138.464 235.9 137.844 236.44 137.584 236.6C136.644 237.18 135.944 237.18 135.244 237.14C133.564 237.02 132.364 235.38 131.144 234.2C130.484 233.54 129.864 232.9 128.904 232.74C128.444 232.66 127.764 232.66 127.724 233.22C127.664 233.8 128.104 234.04 128.504 234.1C129.584 234.24 130.104 235.1 130.724 235.74C131.744 236.78 132.484 237.42 133.804 238.02C135.204 238.66 136.744 238.46 137.924 237.48C138.484 237.02 138.824 236.52 138.684 236.28ZM160.5 223.64C160.7 226.14 160.46 228.92 160.68 231.62C160.68 231.76 160.74 231.94 160.82 232.06V232.94C160.8 233.72 160.38 233.88 159.94 233.88C158.68 233.86 156.26 234.38 155.42 234.5C154.84 233.56 154.04 232.92 152.96 232.42C152.32 232.14 151.8 232.16 151.54 232.78C151.34 233.26 151.9 233.54 152.3 233.68C153.24 234 153.98 234.52 154.2 235.54C154.38 236.24 154.64 237.4 154.74 238C154.86 238.76 155.72 239.52 156.54 238.44C157.28 238.14 158.5 238.22 159.26 238.32C159.98 238.4 160.62 238.38 161.3 238.48C161.78 238.56 162.26 238.34 162.26 237.92C162.26 237.68 162.12 237.44 161.88 237.28C161.98 235.72 162.28 231.58 162.18 230.88C162.12 230.52 162 230.3 161.84 230.2C161.92 229.42 161.92 228.64 161.92 227.82C161.9 226.8 161.92 225.2 161.92 224.16C161.92 222.48 161.56 221.66 159.96 220.9C159.28 220.58 158.88 220.44 158.6 220.96C158.32 221.48 158.7 221.88 159.32 222.14C160.2 222.52 160.44 222.94 160.5 223.64ZM157.3 230.86C157.7 230.5 157.38 230.08 157.28 229.92C156.64 228.98 155.76 228.44 154.7 227.74C155.42 226.8 155.96 225.44 156.52 224.36C156.68 224.04 156.8 223.7 156.48 223.42C156.26 223.18 155.96 223.06 155.68 223.26C154.64 223.94 152.36 224.14 151.4 224.3C150.88 224.38 150.74 224.72 150.82 225.14C150.88 225.56 151.2 225.62 151.6 225.6C152.2 225.56 154.14 225.22 154.74 224.96C153.96 226.88 151.58 229.5 149.92 230.44C149.66 230.58 149.06 230.96 149.16 231.24C149.24 231.48 150.06 231.44 150.36 231.34C150.94 231.14 151.68 230.74 152.32 230.2C152.98 229.64 153.42 229.08 153.94 228.86C154.68 229.12 155.64 229.94 156.24 230.54C156.5 230.8 156.9 231.22 157.3 230.86ZM160.64 235.62C160.64 235.98 160.62 236.7 160.56 237.1C159.6 237.02 157.1 237 156.38 237.18C156.14 237.24 155.98 237.24 155.92 237C155.84 236.7 155.8 236.34 155.74 236.02C155.64 235.54 156 235.56 156.42 235.46C157.24 235.28 158.84 235.12 159.64 235.1C160.14 235.08 160.64 235.08 160.64 235.62ZM178.036 235.6C178.216 233.68 177.256 232.66 176.136 232.3C176.156 232.22 176.156 232.12 176.156 232C176.156 231.2 176.196 229.56 176.436 228.96C177.136 228.7 177.696 228.5 178.016 228.4C178.396 228.28 179.456 228.08 179.896 228.04C180.156 228.02 180.536 227.84 180.496 227.46C180.456 227.08 180.156 226.94 179.896 226.92C178.896 226.82 177.716 227.26 176.516 227.66C174.596 228.32 170.996 229.9 168.916 230.58C168.156 230.82 167.236 230.76 166.396 230.76C166.096 230.78 165.716 231.08 165.776 231.5C165.776 231.92 166.116 232.02 166.476 232.02C167.596 232.06 168.796 232.02 169.776 231.66C170.956 231.2 173.096 230.3 174.936 229.56C174.876 230.22 174.816 231.4 174.816 232.18C173.056 232.38 170.756 234.08 170.856 235.76C170.756 237.8 172.396 238.76 174.776 238.76C176.736 238.76 177.856 237.38 178.036 235.6ZM168.076 228.5C168.216 228.78 168.836 228.64 169.296 228.5C170.816 228.04 172.656 226.92 173.636 225.82C174.436 224.92 174.636 225.14 175.176 225.22C175.556 225.28 176.116 225.52 176.536 225.78C176.836 225.96 177.276 226.34 177.676 226.42C177.896 226.46 178.176 226.48 178.336 226.16C178.536 225.78 178.256 225.46 177.936 225.22C177.496 224.88 176.656 224.38 175.716 224.1C175.316 223.98 175.256 223.76 175.496 223.4C175.636 223.18 175.796 222.76 176.056 222.38C176.396 221.88 175.616 221.24 175.196 221.38C173.836 221.78 172.096 222.16 170.936 222.44C170.596 222.52 170.116 222.66 170.116 223C170.116 223.42 170.696 223.48 171.016 223.5C172.096 223.58 173.676 223.02 174.236 222.98C172.916 225.04 171.056 226.56 168.936 227.7C168.536 227.92 167.896 228.14 168.076 228.5ZM176.696 235.22C176.616 236.22 176.216 237.5 175.056 237.54C174.416 237.56 172.336 237.68 172.276 235.92C172.236 234.66 173.876 233.32 175.096 233.32C176.176 233.32 176.776 234.24 176.696 235.22ZM195.032 237.2C195.032 238.14 195.212 239.2 195.632 239.2C196.092 239.2 196.392 237.92 196.392 237.08C196.392 234.36 196.332 227.78 196.472 225.22C196.592 223.18 195.832 222.22 194.672 221.2C194.212 220.78 193.592 220.44 193.172 220.92C192.652 221.54 193.152 221.92 193.572 222.2C194.572 222.86 195.032 223.76 195.012 225.16V226.2C195.012 226.68 194.532 226.88 193.912 227.04C193.532 227.14 192.912 227.3 192.732 227.3V225.74C192.752 224.54 192.292 223.58 191.432 222.82C191.052 222.48 190.592 222.14 190.072 222.7C189.652 223.14 190.232 223.6 190.552 223.94C190.952 224.38 191.232 224.64 191.252 225.06C191.392 227.2 191.372 232.38 191.452 234.46C191.472 234.8 191.492 235.78 191.952 235.78C192.392 235.78 192.632 234.76 192.632 234.38C192.692 232.22 192.712 231.16 192.712 229.08C192.712 228.84 192.852 228.64 193.032 228.54C193.332 228.38 194.272 228.16 194.612 228.08C194.892 228.02 194.992 228.04 194.992 228.24C194.992 231.46 195.032 235.58 195.032 237.2ZM188.772 228.42C187.192 227.76 185.492 228.3 184.572 229.92C184.212 230.56 184.312 231.52 184.732 232.16C185.272 232.98 186.312 233.56 187.412 233.42C188.892 233.22 189.752 232.34 189.872 230.7C189.952 229.42 189.412 228.68 188.772 228.42ZM189.652 226.78C189.972 226.82 190.272 226.64 190.412 226.38C190.552 226.14 190.552 225.84 190.312 225.6C190.132 225.42 189.772 225.36 189.532 225.32C188.712 224.54 187.292 223.66 186.032 223.48C185.632 223.42 185.212 223.54 185.152 223.88C185.032 224.32 185.372 224.6 185.712 224.66C186.412 224.8 187.352 225.04 188.092 225.64C186.632 225.94 185.032 226.36 183.592 226.8C183.212 226.92 182.852 227.18 182.932 227.76C182.992 228.22 183.512 228.16 183.872 228.06C185.512 227.56 187.672 226.6 189.652 226.78ZM187.032 232.26C186.412 232.28 185.612 231.68 185.652 230.92C185.692 230.02 186.752 229.18 187.652 229.24C188.312 229.28 188.552 229.96 188.552 230.4C188.552 231.42 187.972 232.24 187.032 232.26ZM209.528 229.04C209.528 228.78 209.528 227.84 209.548 227.66C209.548 227.54 209.588 227.44 209.628 227.36C209.908 227.3 210.188 227.28 210.448 227.3C211.348 227.38 212.008 226.6 211.288 226.12C211.388 225.52 211.348 224.86 211.308 223.54C211.288 222.82 211.128 222.16 210.968 221.72C210.788 221.22 210.508 220.74 209.868 220.98C209.248 221.22 209.488 221.7 209.628 222.12C209.768 222.54 209.848 222.72 209.868 222.98C209.908 223.44 209.388 223.4 208.568 223.66C207.668 223.94 207.108 224.02 206.328 224.24C205.968 224.34 205.648 224.42 205.448 224.14C204.968 223.46 204.388 223.02 204.008 222.76C203.708 222.56 203.148 222.38 202.768 222.84C202.368 223.3 202.848 223.6 203.148 223.84C203.868 224.46 204.728 225.46 205.168 226.68C205.928 228.72 206.428 228.56 207.628 228.06L208.088 227.86C208.168 227.88 208.228 227.94 208.228 228C208.288 228.34 208.348 229.2 208.008 229.56C206.248 230.18 204.228 230.84 202.908 231.28C202.148 231.52 201.228 231.46 200.388 231.46C200.088 231.48 199.708 231.78 199.768 232.2C199.768 232.62 200.108 232.72 200.468 232.72C201.588 232.76 202.788 232.72 203.768 232.36C205.828 231.54 210.908 229.78 212.128 229.44C212.508 229.32 213.268 229.12 214.008 229.08C214.268 229.06 214.648 228.8 214.608 228.42C214.568 228.04 214.268 227.88 214.008 227.86C213.008 227.76 211.828 228.26 210.628 228.66L209.528 229.04ZM211.748 230.3C211.328 230.34 211.148 230.68 211.168 231.18C211.188 231.66 211.208 232.52 211.208 232.94C211.208 233.72 210.768 233.88 210.328 233.88C209.068 233.86 206.848 234.38 206.008 234.5C205.408 233.72 204.568 233.2 203.888 233.08C203.188 232.96 202.808 232.88 202.588 233.46C202.408 233.94 202.808 234.22 203.208 234.36C203.808 234.56 204.568 234.72 204.768 235.56C204.928 236.26 205.228 237.4 205.328 238C205.448 238.76 206.308 239.52 207.128 238.44C207.868 238.14 208.888 238.22 209.648 238.32C210.368 238.4 211.008 238.38 211.688 238.48C212.168 238.56 212.648 238.34 212.648 237.92C212.648 237.68 212.508 237.44 212.268 237.28C212.368 235.72 212.628 231.72 212.548 231.08C212.468 230.38 212.108 230.26 211.748 230.3ZM211.028 235.62C211.028 235.98 211.008 236.7 210.948 237.1C209.988 237.02 207.688 237 206.968 237.18C206.728 237.24 206.568 237.24 206.508 237C206.428 236.7 206.388 236.34 206.328 236.02C206.228 235.54 206.588 235.56 207.008 235.46C207.828 235.28 209.228 235.12 210.028 235.1C210.528 235.08 211.028 235.08 211.028 235.62ZM206.628 225.44C207.588 225.08 207.588 225.08 209.268 224.66C209.428 224.62 210.028 224.5 210.088 224.9C210.128 225.22 210.148 225.68 210.068 226.02C209.128 226.28 208.028 226.52 207.028 226.92C206.548 227.12 206.428 226.76 206.288 226.46C206.088 225.96 206.208 225.6 206.628 225.44ZM216.944 232.84C217.144 233.1 217.744 232.86 218.044 232.7C219.764 231.84 221.044 230.94 222.124 230.14C222.844 229.6 223.364 229.74 223.944 230.04C224.724 230.44 225.264 231.1 225.684 231.5C225.944 231.76 226.364 231.96 226.744 231.68C227.124 231.4 226.884 230.76 226.664 230.52C226.084 229.92 225.584 229.36 224.604 228.96C224.044 228.74 223.784 228.28 224.164 227.78C224.424 227.44 224.644 227 224.784 226.62C225.024 225.9 224.724 225.16 224.344 224.72C224.144 224.48 223.724 224.16 223.244 224.36C222.884 224.52 222.784 224.76 223.004 225.16C223.524 226.12 223.204 226.58 222.804 227.24C221.924 228.68 219.544 230.62 217.404 232.1C217.044 232.34 216.784 232.62 216.944 232.84ZM228.644 224.98C228.644 228.72 228.704 235.12 228.784 237.56C228.804 238.16 228.924 239.2 229.324 239.2C229.784 239.2 230.024 237.94 230.024 237.52C230.104 233.36 230.084 229.2 230.084 224.64C230.084 223.24 229.404 221.64 227.864 221.02C227.484 220.86 227.064 220.8 226.784 221.24C226.524 221.66 226.744 221.94 227.104 222.16C228.164 222.8 228.644 223.34 228.644 224.98ZM243.94 226.42C243.84 226.98 243.62 227.42 243.34 227.6C241.94 228.48 240.26 229.7 238.64 230.4C237.82 230.78 237.48 230.48 237.26 229.78C236.94 228.62 236.68 227.8 236.52 227.28C236.36 226.74 236.14 226.34 236.52 226.1C236.94 225.84 238.82 225.52 239.48 225.32C239.9 225.18 240.3 224.96 240.18 224.5C240.06 224.04 239.68 224.04 239.26 224.12C237.86 224.38 236.26 224.78 234.84 225.16C234.52 225.24 234.22 225.56 234.46 225.96C235.12 227.12 235.64 229.1 236.02 230.52C236.6 232.6 237.34 232.52 239.3 231.52C240.76 230.78 242.18 229.86 243.94 228.62C243.96 232 244.02 235.8 244.08 237.56C244.1 238.16 244.22 239.2 244.62 239.2C245.08 239.2 245.32 237.94 245.32 237.52C245.36 235.4 245.42 230.46 245.4 229.4C245.38 228.86 245.56 228.68 245.9 228.6C246.46 228.48 247.54 228.28 248.18 228.26C248.64 228.24 248.96 227.96 248.96 227.38C248.96 227.04 248.58 226.96 248.26 226.96C247.48 226.98 246 227.22 245.38 227.42V224.64C245.38 223.24 244.7 221.64 243.16 221.02C242.78 220.86 242.36 220.8 242.08 221.24C241.82 221.66 242.04 221.94 242.4 222.16C243.46 222.8 243.94 223.34 243.94 224.98V226.42ZM252.136 235.36C251.396 235.36 250.836 236.24 250.856 236.58C250.856 237.04 251.316 237.18 251.716 237.18C252.356 237.18 252.776 236.7 252.796 236.08C252.816 235.72 252.616 235.36 252.136 235.36Z" fill="black"/>
<defs>
<filter id="filter0_d_501_2" x="0" y="21.3467" width="320" height="320" filterUnits="userSpaceOnUse" color-interpolation-filters="sRGB">
<feFlood flood-opacity="0" result="BackgroundImageFix"/>
<feColorMatrix in="SourceAlpha" type="matrix" values="0 0 0 0 0 0 0 0 0 0 0 0 0 0 0 0 0 0 127 0" result="hardAlpha"/>
<feOffset dx="1" dy="8"/>
<feGaussianBlur stdDeviation="5"/>
<feComposite in2="hardAlpha" operator="out"/>
<feColorMatrix type="matrix" values="0 0 0 0 0 0 0 0 0 0 0 0 0 0 0 0 0 0 0.25 0"/>
<feBlend mode="normal" in2="BackgroundImageFix" result="effect1_dropShadow_501_2"/>
<feBlend mode="normal" in="SourceGraphic" in2="effect1_dropShadow_501_2" result="shape"/>
</filter>
</defs>
</svg>
