<svg width="320" height="342" viewBox="0 0 320 342" fill="none" xmlns="http://www.w3.org/2000/svg">
<g filter="url(#filter0_d_481_7)">
<rect x="9" y="23.3467" width="300" height="300" fill="#F9EF97"/>
</g>
<path d="M33.3881 130.112C33.7481 130.58 34.8281 130.148 35.3681 129.86C38.4641 128.312 40.7681 126.692 42.7121 125.252C44.0081 124.28 44.9441 124.532 45.9881 125.072C47.3921 125.792 48.3641 126.98 49.1201 127.7C49.5881 128.168 50.3441 128.528 51.0281 128.024C51.7121 127.52 51.2801 126.368 50.8841 125.936C49.8401 124.856 48.9401 123.848 47.1761 123.128C46.1681 122.732 45.7001 121.904 46.3841 121.004C46.8521 120.392 47.2481 119.6 47.5001 118.916C47.9321 117.62 47.3921 116.288 46.7081 115.496C46.3481 115.064 45.5921 114.488 44.7281 114.848C44.0801 115.136 43.9001 115.568 44.2961 116.288C45.2321 118.016 44.6561 118.844 43.9361 120.032C42.3521 122.624 38.0681 126.116 34.2161 128.78C33.5681 129.212 33.1001 129.716 33.3881 130.112ZM54.4481 115.964C54.4481 122.696 54.5561 134.216 54.7001 138.608C54.7361 139.688 54.9521 141.56 55.6721 141.56C56.5001 141.56 56.9321 139.292 56.9321 138.536C57.0761 131.048 57.0401 123.56 57.0401 115.352C57.0401 112.832 55.8161 109.952 53.0441 108.836C52.3601 108.548 51.6041 108.44 51.1001 109.232C50.6321 109.988 51.0281 110.492 51.6761 110.888C53.5841 112.04 54.4481 113.012 54.4481 115.964ZM71.0371 125.288C71.3251 126.08 72.6931 125.828 73.1971 125.576C74.2771 125.036 75.1771 124.532 76.4731 123.308C77.7691 122.084 78.6331 121.004 79.8211 119.852C80.2891 119.384 80.6851 119.636 81.1171 119.924C82.0171 120.536 83.2411 121.616 84.0331 122.876C84.5731 123.74 85.3291 124.316 85.9771 123.884C86.8771 123.236 86.3011 122.192 85.7971 121.544C84.9691 120.356 83.6371 119.132 82.2691 118.16C81.8371 117.836 80.9371 117.368 81.1531 116.792C81.3331 116.288 81.4411 115.496 81.4051 114.92C81.3691 114.2 80.7571 113.912 80.0371 114.02C79.3531 114.128 79.3531 114.632 79.2811 115.172C79.1371 116.396 78.4531 117.62 77.7331 118.556C76.2931 120.428 74.4211 122.588 72.3691 123.74C71.8651 124.028 70.8211 124.712 71.0371 125.288ZM83.4931 131.192C80.8291 131.444 78.2011 132.416 75.7891 133.136C72.6571 134.072 70.3171 135.224 65.9611 133.136C65.5651 132.956 64.7011 133.064 64.3771 133.604C64.0171 134.036 64.2331 134.576 64.6291 134.936C65.3491 135.584 66.2491 136.016 67.2211 136.304C70.0651 137.168 72.3331 136.556 75.3931 135.656C79.5691 134.432 83.4571 132.776 88.1011 133.856C88.7131 134 89.7571 134.684 90.1531 133.64C90.6211 132.704 89.7571 131.984 89.1091 131.696C87.8131 131.12 85.1131 131.048 83.4931 131.192ZM116.03 128.06C113.51 128.6 108.722 129.788 106.454 130.616C105.23 130.616 105.158 130.544 103.862 129.86C102.818 129.356 101.738 129.716 101.342 130.652C100.946 131.768 101.99 131.912 102.818 132.236C104.15 132.776 104.438 133.64 104.87 134.864C105.374 136.34 105.806 138.788 106.202 140.444C106.346 141.092 106.562 141.956 107.39 141.956C108.218 142.064 108.542 141.452 108.542 140.768C108.578 139.292 109.838 139.544 110.738 139.544C112.898 139.544 115.526 140.012 117.722 140.624C118.262 140.768 118.838 140.876 119.162 140.372C119.522 139.832 119.054 139.184 118.694 138.968C118.298 138.716 117.974 138.572 117.686 138.32C117.506 138.14 117.506 137.852 117.65 137.492C118.73 134.792 118.658 131.444 118.514 128.924C118.514 128.744 118.442 128.6 118.37 128.456C118.694 127.988 118.874 127.304 118.91 126.692C118.982 123.848 118.946 117.692 119.054 114.092C119.126 111.392 118.478 109.916 116.462 108.26C115.958 107.864 115.202 107.684 114.662 108.224C114.194 108.728 114.23 109.34 114.59 109.736C115.454 110.708 116.462 111.644 116.498 113.048C116.57 116.144 116.57 124.64 116.57 126.944C116.57 127.232 116.606 127.592 116.678 127.952L116.03 128.06ZM98.4261 125.9C99.4341 127.952 102.062 128.096 104.006 127.412C105.482 126.908 107.282 126.044 108.722 125C109.37 124.532 110.27 123.776 109.802 122.876C109.442 122.192 108.362 122.696 107.606 123.2C106.382 124.028 104.978 124.748 103.466 125.288C102.17 125.72 100.946 125.54 100.334 124.352C99.6501 123.092 99.4341 122.876 98.9661 121.292C98.6061 120.176 98.8941 119.672 100.19 119.348C101.702 118.952 103.61 118.34 105.086 117.872C105.662 117.692 106.346 117.188 106.058 116.432C105.806 115.748 105.086 115.604 104.402 115.748C101.918 116.504 99.5061 117.44 96.9861 117.8C94.9701 118.124 95.4381 119.456 95.9781 120.5C97.0941 122.804 97.3461 123.704 98.4261 125.9ZM111.458 116.108C111.458 116.864 111.134 117.26 110.126 117.584C108.722 118.052 106.958 118.664 105.662 119.24C105.086 119.492 104.942 120.068 105.05 120.572C105.158 121.076 105.662 121.58 106.49 121.22C108.11 120.536 109.802 119.852 111.098 119.492C111.458 119.384 111.53 119.528 111.53 119.744C111.53 121.508 111.602 123.956 111.602 125.684C111.602 126.044 111.71 128.096 112.43 128.06C113.69 127.988 113.87 125.288 113.87 125.144C114.014 122.948 113.978 117.836 113.942 115.604C113.906 112.652 113.15 111.536 110.99 110.096C110.414 109.736 109.766 109.664 109.226 110.276C108.902 110.672 108.758 111.248 109.19 111.608L110.27 112.544C110.954 113.156 111.458 113.624 111.458 114.704V116.108ZM114.59 130.652C115.526 130.364 115.778 130.796 115.958 131.444C116.21 132.452 116.138 136.592 115.346 137.6C113.654 137.24 110.378 137.312 108.722 137.708C108.29 137.816 108.002 138.032 107.822 137.168C107.642 136.268 107.066 133.892 106.994 133.46C106.886 132.812 107.246 132.56 108.002 132.308C109.478 131.84 113.51 130.976 114.59 130.652ZM103.25 112.004C101.954 112.148 98.3181 113.408 96.2301 114.092C95.5461 114.308 94.6461 114.812 94.9701 115.748C95.3301 116.72 96.3021 116.504 97.2021 116.18C99.2541 115.532 101.738 114.344 103.754 114.128C104.51 114.056 105.878 113.912 105.698 112.976C105.446 111.716 104.15 111.896 103.25 112.004ZM133.411 116.72C130.315 116.72 127.255 120.14 127.327 123.524C127.327 126.908 129.523 128.384 132.871 128.384C136.795 128.384 139.459 126.188 139.495 122.3C139.495 118.592 137.407 116.648 133.411 116.72ZM137.227 122.264C137.227 124.784 134.959 126.188 132.799 126.188C130.603 126.188 129.631 125.252 129.739 122.732C129.811 121.04 131.467 118.772 134.275 118.664C135.859 119.024 137.263 120.14 137.227 122.264ZM145.147 115.964C145.147 122.696 145.255 134.216 145.399 138.608C145.435 139.688 145.651 141.56 146.371 141.56C147.199 141.56 147.631 139.292 147.631 138.536C147.775 131.048 147.739 123.56 147.739 115.352C147.739 112.832 146.515 109.952 143.743 108.836C143.059 108.548 142.303 108.44 141.799 109.232C141.331 109.988 141.727 110.492 142.375 110.888C144.283 112.04 145.147 113.012 145.147 115.964ZM188.304 135.08C188.628 131.624 186.9 129.788 184.884 129.14C184.92 128.996 184.92 128.816 184.92 128.6C184.92 127.16 184.992 124.208 185.424 123.128C186.684 122.66 187.692 122.3 188.268 122.12C188.952 121.904 190.86 121.544 191.652 121.472C192.12 121.436 192.804 121.112 192.732 120.428C192.66 119.744 192.12 119.492 191.652 119.456C189.852 119.276 187.728 120.068 185.568 120.788C182.112 121.976 175.632 124.82 171.888 126.044C170.52 126.476 168.864 126.368 167.352 126.368C166.812 126.404 166.128 126.944 166.236 127.7C166.236 128.456 166.848 128.636 167.496 128.636C169.512 128.708 171.672 128.636 173.436 127.988C175.56 127.16 179.412 125.54 182.724 124.208C182.616 125.396 182.508 127.52 182.508 128.924C179.34 129.284 175.2 132.344 175.38 135.368C175.2 139.04 178.152 140.768 182.436 140.768C185.964 140.768 187.98 138.284 188.304 135.08ZM170.376 122.3C170.628 122.804 171.744 122.552 172.572 122.3C175.308 121.472 178.62 119.456 180.384 117.476C181.824 115.856 182.184 116.252 183.156 116.396C183.84 116.504 184.848 116.936 185.604 117.404C186.144 117.728 186.936 118.412 187.656 118.556C188.052 118.628 188.556 118.664 188.844 118.088C189.204 117.404 188.7 116.828 188.124 116.396C187.332 115.784 185.82 114.884 184.128 114.38C183.408 114.164 183.3 113.768 183.732 113.12C183.984 112.724 184.272 111.968 184.74 111.284C185.352 110.384 183.948 109.232 183.192 109.484C180.744 110.204 177.612 110.888 175.524 111.392C174.912 111.536 174.048 111.788 174.048 112.4C174.048 113.156 175.092 113.264 175.668 113.3C177.612 113.444 180.456 112.436 181.464 112.364C179.088 116.072 175.74 118.808 171.924 120.86C171.204 121.256 170.052 121.652 170.376 122.3ZM185.892 134.396C185.748 136.196 185.028 138.5 182.94 138.572C181.788 138.608 178.044 138.824 177.936 135.656C177.864 133.388 180.816 130.976 183.012 130.976C184.956 130.976 186.036 132.632 185.892 134.396ZM222.353 132.992C221.597 132.74 220.085 132.416 219.257 132.236C217.673 131.876 216.845 131.552 216.989 130.472C217.241 128.744 217.061 125.072 216.809 123.164C216.665 122.012 217.421 120.824 217.925 119.888C218.393 118.988 218.249 117.512 217.385 116.396C215.477 113.912 212.921 113.048 209.897 114.56C207.593 115.712 205.829 118.988 206.477 121.328C207.593 125.252 211.481 124.316 214.469 123.416C214.829 125.504 214.901 128.96 214.721 130.724C214.649 131.516 214.433 131.804 213.821 131.84C213.317 131.876 212.309 131.912 211.733 131.84C211.013 131.732 210.581 131.372 210.365 130.616C210.041 129.536 209.285 127.448 208.745 126.728C208.061 125.648 206.873 124.568 205.829 125.396C204.821 126.296 206.225 127.196 206.837 127.916C207.521 128.636 207.953 130.184 208.241 131.12C208.493 131.912 208.493 132.56 207.593 133.064C204.929 134.576 201.473 134.504 199.925 134.18C198.593 133.892 197.549 133.568 197.189 134.828C196.829 136.088 198.269 136.592 199.169 136.628C202.085 136.736 204.209 136.952 207.089 135.872C213.065 133.604 216.953 133.676 221.849 134.936C222.461 135.044 223.145 135.044 223.361 134.252C223.505 133.46 222.965 133.172 222.353 132.992ZM211.085 122.048C209.753 122.084 208.709 121.832 208.709 120.176C208.709 118.196 211.049 115.532 212.885 115.748C214.433 115.928 215.657 116.792 215.729 118.484C215.801 120.032 213.281 122.012 211.085 122.048ZM249.49 137.96C249.49 139.652 249.814 141.56 250.57 141.56C251.398 141.56 251.938 139.256 251.938 137.744C251.938 132.848 251.83 121.004 252.082 116.396C252.298 112.724 250.93 110.996 248.842 109.16C248.014 108.404 246.898 107.792 246.142 108.656C245.206 109.772 246.106 110.456 246.862 110.96C248.662 112.148 249.49 113.768 249.454 116.288V118.16C249.454 119.024 248.59 119.384 247.474 119.672C246.79 119.852 245.674 120.14 245.35 120.14V117.332C245.386 115.172 244.558 113.444 243.01 112.076C242.326 111.464 241.498 110.852 240.562 111.86C239.806 112.652 240.85 113.48 241.426 114.092C242.146 114.884 242.65 115.352 242.686 116.108C242.938 119.96 242.902 129.284 243.046 133.028C243.082 133.64 243.118 135.404 243.946 135.404C244.738 135.404 245.17 133.568 245.17 132.884C245.278 128.996 245.314 127.088 245.314 123.344C245.314 122.912 245.566 122.552 245.89 122.372C246.43 122.084 248.122 121.688 248.734 121.544C249.238 121.436 249.418 121.472 249.418 121.832C249.418 127.628 249.49 135.044 249.49 137.96ZM238.222 122.156C235.378 120.968 232.318 121.94 230.662 124.856C230.014 126.008 230.194 127.736 230.95 128.888C231.922 130.364 233.794 131.408 235.774 131.156C238.438 130.796 239.986 129.212 240.202 126.26C240.346 123.956 239.374 122.624 238.222 122.156ZM239.806 119.204C240.382 119.276 240.922 118.952 241.174 118.484C241.426 118.052 241.426 117.512 240.994 117.08C240.67 116.756 240.022 116.648 239.59 116.576C238.114 115.172 235.558 113.588 233.29 113.264C232.57 113.156 231.814 113.372 231.706 113.984C231.49 114.776 232.102 115.28 232.714 115.388C233.974 115.64 235.666 116.072 236.998 117.152C234.37 117.692 231.49 118.448 228.898 119.24C228.214 119.456 227.566 119.924 227.71 120.968C227.818 121.796 228.754 121.688 229.402 121.508C232.354 120.608 236.242 118.88 239.806 119.204ZM235.09 129.068C233.974 129.104 232.534 128.024 232.606 126.656C232.678 125.036 234.586 123.524 236.206 123.632C237.394 123.704 237.826 124.928 237.826 125.72C237.826 127.556 236.782 129.032 235.09 129.068ZM283.539 132.992C282.783 132.74 281.271 132.416 280.443 132.236C278.859 131.876 278.031 131.552 278.175 130.472C278.427 128.744 278.247 125.072 277.995 123.164C277.851 122.012 278.607 120.824 279.111 119.888C279.579 118.988 279.435 117.512 278.571 116.396C276.663 113.912 274.107 113.048 271.083 114.56C268.779 115.712 267.015 118.988 267.663 121.328C268.779 125.252 272.667 124.316 275.655 123.416C276.015 125.504 276.087 128.96 275.907 130.724C275.835 131.516 275.619 131.804 275.007 131.84C274.503 131.876 273.495 131.912 272.919 131.84C272.199 131.732 271.767 131.372 271.551 130.616C271.227 129.536 270.471 127.448 269.931 126.728C269.247 125.648 268.059 124.568 267.015 125.396C266.007 126.296 267.411 127.196 268.023 127.916C268.707 128.636 269.139 130.184 269.427 131.12C269.679 131.912 269.679 132.56 268.779 133.064C266.115 134.576 262.659 134.504 261.111 134.18C259.779 133.892 258.735 133.568 258.375 134.828C258.015 136.088 259.455 136.592 260.355 136.628C263.271 136.736 265.395 136.952 268.275 135.872C274.251 133.604 278.139 133.676 283.035 134.936C283.647 135.044 284.331 135.044 284.547 134.252C284.691 133.46 284.151 133.172 283.539 132.992ZM272.271 122.048C270.939 122.084 269.895 121.832 269.895 120.176C269.895 118.196 272.235 115.532 274.071 115.748C275.619 115.928 276.843 116.792 276.915 118.484C276.987 120.032 274.467 122.012 272.271 122.048Z" fill="black"/>
<path d="M46.2454 211.28C46.6454 211.28 46.9054 209.98 46.9454 209.28C46.9854 207.1 46.9254 204.78 46.9254 202.3C46.9254 201.84 47.1054 201.74 47.3854 201.68C47.9854 201.56 49.0454 201.38 49.5854 201.34C50.0254 201.3 50.3454 201.08 50.3454 200.54C50.3454 200.04 49.8054 200.04 49.2454 200.1C48.6454 200.16 47.6054 200.32 46.9254 200.5C46.9054 199.5 46.9254 197.18 46.9254 196.44C46.9254 195.28 46.7254 193.98 45.4254 193.08C45.0254 192.8 44.4654 192.56 44.0854 193.06C43.7454 193.52 44.0254 193.78 44.4054 194.08C45.1454 194.64 45.5254 195.36 45.5054 196.26C45.4654 198.98 45.5854 206.72 45.6254 209.5C45.6254 210.14 45.8654 211.28 46.2454 211.28ZM34.6654 204.96C34.7254 205.18 35.1454 205.08 35.5454 204.96C36.7654 204.62 38.1454 203.68 39.1854 202.72C39.7254 202.24 40.0654 201.88 40.4254 201.58C41.1454 201.96 41.8454 202.66 42.3454 203.18C42.6454 203.5 43.1654 203.94 43.5054 203.56C43.9254 203.1 43.4254 202.46 43.0654 202.1C42.8654 201.88 42.0054 201.16 41.6454 200.92C41.4454 200.78 41.0854 200.56 41.2454 200.18C41.4454 199.7 41.9254 198.88 42.1654 198.38C42.4054 197.86 43.0254 197.26 42.6654 196.68C42.3854 196.26 42.0054 196.46 41.6454 196.58C40.4254 196.98 39.0054 197.44 37.6654 197.34C37.2254 197.34 36.9254 197.48 36.9254 198.06C36.9254 198.52 37.3254 198.54 37.6654 198.56C38.5854 198.62 39.6654 198.36 40.6254 198.14C39.6654 200.98 37.1454 203.08 35.1254 204.32C34.8854 204.48 34.5854 204.7 34.6654 204.96ZM52.1815 202.88C52.3815 203.14 52.9615 202.98 53.2615 202.86C54.3615 202.38 55.2815 201.36 56.0815 200.7C56.7415 200.14 57.0815 200.36 57.6015 200.7C58.3615 201.18 59.2615 201.9 59.6615 202.36C59.9215 202.64 60.2415 202.92 60.6215 202.62C60.9815 202.36 60.8415 201.74 60.6215 201.48C60.0415 200.84 59.1015 200.16 58.2415 199.6C58.0415 199.48 57.7615 199.3 57.5015 199.16C57.7615 198.76 58.4215 197.48 58.5615 197.1C58.8015 196.42 58.6815 195.84 58.4415 195.5C58.2815 195.26 57.9615 194.96 57.5015 195.16C57.1615 195.3 57.1415 195.5 57.2615 195.92C57.4415 196.42 56.9215 197.4 56.5015 198C55.7015 199.16 53.9615 201.08 52.6215 202.1C52.3015 202.34 52.0215 202.68 52.1815 202.88ZM63.8015 201.92C63.8015 203.2 63.8415 204.62 63.9415 205.48C63.9615 205.7 64.0815 206.02 64.3015 206.04C64.4815 206.04 64.7815 205.76 64.9015 205.28C65.1815 204.1 65.1815 202.92 65.1815 201.68V196.12C65.1815 194.44 64.8215 193.62 63.2215 192.86C62.5415 192.54 62.1415 192.4 61.8615 192.92C61.5815 193.44 61.9615 193.84 62.5815 194.1C63.4615 194.48 63.7615 194.9 63.7615 195.6L63.8015 201.92ZM65.7415 208.28C65.5215 207.9 64.9015 208.44 64.6415 208.6C63.7015 209.18 63.0015 209.18 62.3015 209.14C60.6215 209.02 59.4215 207.38 58.2015 206.2C57.5415 205.54 56.9215 204.9 55.9615 204.74C55.5015 204.66 54.8215 204.66 54.7815 205.22C54.7215 205.8 55.1615 206.04 55.5615 206.1C56.6415 206.24 57.1615 207.1 57.7815 207.74C58.8015 208.78 59.5415 209.42 60.8615 210.02C62.2615 210.66 63.8015 210.46 64.9815 209.48C65.5415 209.02 65.8815 208.52 65.7415 208.28ZM79.7176 200.7C79.6976 201.16 79.5776 201.6 79.0576 201.8C78.3776 202.08 75.8376 203.14 74.6776 203.42C74.6176 202.64 74.5576 201.4 74.1576 200.7C73.8776 200.12 73.4376 199.54 72.7976 199.82C72.0976 200.2 72.6376 200.7 72.8576 201.18C73.2776 202.12 73.5176 203.34 72.9176 203.92C72.5976 204.24 70.3376 205.02 69.3176 205.12C68.9776 205.16 68.6176 205.22 68.5776 205.72C68.5376 206.22 68.9576 206.34 69.2776 206.34C70.0776 206.36 70.8576 206.12 71.5576 205.86C73.6576 205.06 75.8376 204.44 79.7376 202.84C79.7776 205.54 79.7976 208.18 79.8576 209.56C79.8776 210.16 79.9976 211.2 80.3976 211.2C80.8576 211.2 81.0976 209.94 81.0976 209.52C81.1376 207.4 81.1976 202.9 81.1776 201.84C81.1576 201.3 81.3376 201.2 81.6776 201.12C82.1576 201.02 83.0576 200.88 83.5776 200.84C84.0376 200.8 84.3576 200.54 84.3576 199.96C84.3576 199.62 83.9776 199.52 83.6576 199.54C83.0576 199.58 81.7376 199.86 81.1576 200.02V196.64C81.1576 195.24 80.4776 193.64 78.9376 193.02C78.5576 192.86 78.1376 192.8 77.8576 193.24C77.5976 193.66 77.8176 193.94 78.1776 194.16C79.2376 194.8 79.7176 195.34 79.7176 196.98V200.7ZM77.1976 196.9C77.1976 195.9 76.7776 195.54 75.4976 196.02C74.5376 196.38 73.3576 197.02 72.2376 197.06C71.8176 197.08 71.3976 197.18 71.3976 197.76C71.3976 198.32 71.9376 198.5 72.3576 198.4C73.1776 198.2 73.9776 197.92 74.7176 197.58C75.4976 197.22 75.8376 197.3 75.8376 198.12V201.02C75.8376 201.38 75.8176 201.8 76.2576 201.86C76.7976 201.96 76.9376 201.48 76.9976 201.12C77.1176 200.22 77.1976 198.34 77.1976 196.9ZM97.7137 201.12C97.5537 201.64 97.0537 201.94 96.3737 202.2C93.5537 203.32 90.1537 205.38 86.5137 205.34C86.2337 205.3 85.8337 205.48 85.8337 205.9C85.7937 206.32 86.0937 206.56 86.5137 206.6C86.8537 206.64 87.2537 206.62 87.5937 206.6C90.0737 206.5 93.1537 204.96 95.7937 203.84C97.2937 203.2 97.4137 203.16 97.7337 203.06C97.7737 205.7 97.8137 208.24 97.8537 209.6C97.8737 210.2 97.9937 211.24 98.3937 211.24C98.8537 211.24 99.0937 209.98 99.0937 209.56C99.1737 205.4 99.1537 201.24 99.1537 196.68C99.1537 195.28 98.4737 193.68 96.9337 193.06C96.5537 192.9 96.1337 192.84 95.8537 193.28C95.5937 193.7 95.8137 193.98 96.1737 194.2C97.2337 194.84 97.7137 195.38 97.7137 197.02V201.12ZM91.4537 201.6C93.0337 201.82 94.9937 200.88 95.0937 198.92C95.1937 196.96 93.6337 195.74 91.8937 195.84C90.0337 195.94 88.6337 197.54 88.8737 199.34C89.0737 200.84 90.4137 201.46 91.4537 201.6ZM91.8937 200.46C90.9537 200.44 90.2737 199.92 90.2337 198.86C90.1937 197.86 90.8737 196.98 92.0137 196.98C92.8937 196.98 93.7337 197.58 93.7337 198.58C93.7337 199.9 92.9937 200.48 91.8937 200.46ZM120.87 204.16C120.89 203.96 120.81 203.82 120.69 203.72C120.81 203.02 120.85 202.14 120.87 201.62C120.95 201.38 121.13 201.28 121.47 201.16C121.89 201.02 122.99 200.82 123.59 200.76C123.97 200.72 124.53 200.78 124.49 200.02C124.47 199.46 124.05 199.38 123.57 199.42C123.05 199.46 121.79 199.66 121.19 199.82C120.97 199.88 120.89 199.8 120.89 199.64H120.87V198.54H120.89C120.89 198.24 121.09 198 121.67 197.86C122.29 197.72 123.03 197.6 123.73 197.52C124.11 197.48 124.43 197.26 124.37 196.76C124.33 196.36 124.01 196.24 123.63 196.26C123.01 196.28 121.77 196.5 121.27 196.64C120.97 196.72 120.89 196.6 120.89 196.36V196.12C120.89 194.44 120.53 193.62 118.93 192.86C118.25 192.54 117.85 192.4 117.57 192.92C117.29 193.44 117.67 193.84 118.29 194.1C119.17 194.48 119.41 194.9 119.47 195.6C119.55 196.64 119.55 201.42 119.61 203.56C117.95 204.32 114.57 205.58 112.57 206.12C111.89 206.3 111.39 206.48 111.47 207.04C111.55 207.6 112.25 207.56 113.01 207.36C114.65 206.92 117.95 205.6 118.81 205.24C119.39 205 119.43 205.48 119.43 205.82C119.47 207.4 119.51 209.06 119.51 210.64C119.51 211.08 119.71 211.7 120.09 211.62C120.49 211.52 120.67 210.8 120.73 210.38C120.95 208.62 120.81 207.8 120.81 206.12C120.81 205.44 120.81 204.8 120.87 204.16ZM113.17 202.04C114.73 202.02 116.57 200.26 116.57 198.76C116.57 197.5 115.57 196.18 114.19 196.18C112.41 196.18 110.59 197.7 110.53 199.26C110.47 200.84 111.87 202.06 113.17 202.04ZM111.87 199.24C112.03 198.18 113.17 197.18 114.17 197.34C115.03 197.48 115.29 198.16 115.29 198.64C115.27 199.82 114.09 200.9 113.09 200.72C112.33 200.58 111.73 200.14 111.87 199.24ZM135.666 200.54C135.526 200.52 135.486 200.4 135.506 200.18C135.546 199.8 135.526 198.98 135.486 198.52C135.446 197.96 135.086 197.38 134.486 197.58C133.926 197.76 134.146 198.64 134.186 199.1C134.226 199.6 134.246 200.18 134.246 200.48C134.246 200.76 134.246 201.04 134.026 201.18C132.326 201.86 130.446 202.64 129.166 203.06C128.406 203.3 127.486 203.24 126.646 203.24C126.346 203.26 125.966 203.56 126.026 203.98C126.026 204.4 126.366 204.5 126.726 204.5C127.846 204.54 129.046 204.5 130.026 204.14C132.086 203.32 137.046 201.22 138.266 200.88C138.646 200.76 139.706 200.56 140.146 200.52C140.406 200.5 140.786 200.32 140.746 199.94C140.706 199.56 140.406 199.42 140.146 199.4C139.146 199.3 137.966 199.74 136.766 200.14L135.666 200.54ZM136.826 209.96C136.826 210.46 136.886 211.34 137.406 211.34C137.926 211.34 138.106 210.42 138.106 209.86C138.106 208.48 138.286 205.04 138.286 203.6C138.286 203.1 137.566 202.52 137.026 202.76C135.886 203.24 133.186 204.6 131.546 205.24C130.986 205.46 130.446 205.56 129.946 205.68C129.666 205.76 129.266 206.06 129.326 206.58C129.386 207.08 130.026 207.02 130.386 206.96C130.706 206.9 131.326 206.7 132.046 206.4C133.446 205.8 135.206 204.9 135.766 204.62C136.126 204.44 136.446 204.32 136.646 204.44C136.906 204.6 136.826 205.5 136.826 206.38V209.96ZM130.506 199.5C131.846 198.8 133.426 197.3 134.666 195.82C135.486 196 136.626 196.84 137.126 197.46C137.526 197.96 137.746 198.18 138.166 197.96C138.566 197.74 138.466 197.28 138.246 196.96C137.546 195.98 136.466 195.38 135.286 194.64C135.306 194.28 135.306 193.66 134.626 193.66C134.466 193.66 134.266 193.84 134.146 194.1C133.646 195.18 131.586 197.58 129.966 198.64C129.806 198.74 129.486 199.14 129.566 199.38C129.686 199.76 130.346 199.58 130.506 199.5ZM151.182 198.64C153.162 198.26 154.222 197.24 154.222 196.08C154.222 194.72 153.142 193.8 151.742 193.8C149.642 193.8 148.142 195.4 148.202 196.62C148.282 198.12 149.522 198.9 151.182 198.64ZM149.522 196.7C149.462 195.7 150.342 195.06 151.482 194.9C152.222 194.8 152.922 195.24 152.962 196C153.002 196.7 152.362 197.22 151.402 197.44C150.402 197.68 149.582 197.42 149.522 196.7ZM153.742 199.28C151.822 199.96 148.242 201.58 146.182 202.28C145.422 202.54 144.502 202.48 143.662 202.5C143.362 202.52 142.982 202.82 143.042 203.24C143.042 203.66 143.402 203.76 143.762 203.76C144.882 203.78 146.082 203.74 147.042 203.36C149.102 202.52 154.042 200.36 155.242 200C155.622 199.88 156.682 199.66 157.122 199.62C157.382 199.6 157.762 199.42 157.722 199.04C157.682 198.66 157.382 198.52 157.102 198.5C156.102 198.42 154.942 198.86 153.742 199.28ZM156.942 207.82C156.722 207.44 156.122 208.06 155.862 208.22C155.002 208.92 154.262 209.26 153.562 209.24C151.882 209.2 150.522 207.58 149.102 206.26C148.422 205.64 147.782 205.28 146.802 205.16C146.342 205.1 145.662 205.14 145.642 205.7C145.622 206.28 146.062 206.54 146.462 206.58C147.562 206.66 148.122 207.28 148.762 207.9C149.822 208.9 150.802 209.68 152.162 210.16C152.882 210.48 153.742 210.56 154.502 210.3C155.922 209.84 157.242 208.26 156.942 207.82ZM170.678 197.4C168.958 197.4 167.278 199.3 167.298 201.18C167.318 202.98 168.518 204.08 170.378 204.08C172.558 204.08 173.938 202.66 173.958 200.5C173.958 198.44 172.898 197.36 170.678 197.4ZM177.498 197.62C177.498 197.94 177.238 198.16 176.938 198.24C176.558 198.34 175.418 198.64 174.778 198.9C174.378 199.06 174.118 199.28 174.258 199.68C174.438 200.18 174.898 200.16 175.258 200.02C175.838 199.8 176.798 199.54 177.498 199.44C177.518 203.08 177.578 207.6 177.638 209.56C177.658 210.16 177.778 211.2 178.178 211.2C178.638 211.2 178.878 209.94 178.878 209.52C178.958 205.36 178.938 201.2 178.938 196.64C178.938 195.24 178.258 193.64 176.718 193.02C176.338 192.86 175.918 192.8 175.638 193.24C175.378 193.66 175.598 193.94 175.958 194.16C177.018 194.8 177.498 195.34 177.498 196.98V197.62ZM172.698 200.48C172.698 201.88 171.518 203.02 170.338 202.86C169.238 202.72 168.578 202.14 168.638 200.74C168.678 199.8 169.798 198.54 171.158 198.48C172.038 198.68 172.698 199.3 172.698 200.48ZM196.094 202.1C196.154 201.36 196.154 200.6 196.154 199.82C196.134 198.8 196.154 197.2 196.154 196.16C196.154 194.48 195.794 193.66 194.194 192.9C193.514 192.58 193.114 192.44 192.834 192.96C192.554 193.48 192.934 193.88 193.554 194.14C194.434 194.52 194.674 194.94 194.734 195.64C194.894 197.7 194.754 199.94 194.834 202.18C194.494 202.36 194.114 202.5 193.834 202.6C192.994 202.9 191.074 203.52 189.434 204.08C189.094 204.2 188.254 204.5 187.654 204.74C187.294 204.88 187.094 205.28 187.274 205.64C187.534 206.1 187.974 205.98 188.314 205.82C189.994 205.2 192.734 204.3 194.114 203.7C194.434 203.56 194.794 203.4 194.814 203.94C194.834 204.16 194.814 204.74 194.754 204.9C194.694 205.06 194.674 205.14 194.474 205.22C193.594 205.56 189.994 206.4 188.434 206.9C187.554 207.18 187.294 207.88 188.434 208.32C189.414 208.7 190.054 209.36 190.634 209.88C191.994 211.1 193.734 211.58 195.654 211.42C196.154 211.38 196.554 211.28 196.554 210.82C196.554 210.48 196.094 210.44 195.714 210.44C194.814 210.44 193.774 210.34 193.114 210.02C192.074 209.52 191.114 208.62 190.154 207.66C191.894 207.16 193.294 206.84 194.834 206.52C195.474 206.62 195.914 206.52 196.134 205.82C196.254 205.42 196.314 204.26 196.354 203.76C196.374 203.38 196.454 202.7 196.274 202.36L196.094 202.1ZM189.194 200.68C190.014 199.56 190.834 197.44 191.234 196.56C191.354 196.3 191.534 195.86 191.394 195.5C191.214 195.06 190.734 195.32 190.234 195.4C189.074 195.6 188.094 195.9 186.874 196.14C186.434 196.22 186.094 196.22 185.654 196.26C185.274 196.32 185.054 196.6 185.134 197.04C185.214 197.44 185.514 197.52 185.914 197.54C186.234 197.56 186.934 197.48 187.414 197.38C187.934 197.28 188.614 197 189.574 196.82C188.594 200.04 186.974 201.62 184.034 203.2C183.854 203.3 183.534 203.46 183.554 203.66C183.574 203.84 183.954 203.9 184.134 203.88C186.134 203.7 188.134 202.14 189.194 200.68ZM210.69 200.6C212.03 199.9 214.19 197.76 215.01 196.52C215.55 196.56 217.03 197.64 217.31 198.16C217.61 198.72 217.93 198.88 218.35 198.66C218.75 198.44 218.65 197.98 218.43 197.66C217.65 196.56 216.53 195.88 215.55 195.32C215.65 194.86 215.65 194.22 214.97 194.22C214.81 194.22 214.49 194.34 214.41 194.6C214.31 194.96 214.07 195.54 213.63 196.16C212.69 197.46 211.25 199.02 210.15 199.74C209.99 199.84 209.67 200.24 209.75 200.48C209.87 200.86 210.53 200.68 210.69 200.6ZM216.37 201.12C214.29 201.88 211.33 203.52 208.95 204.08C208.47 204.18 207.37 204.24 206.87 204.24C206.57 204.24 206.31 204.58 206.31 205C206.31 205.42 206.67 205.52 207.03 205.52C208.15 205.52 209.27 205.48 210.33 205.06C211.69 204.52 213.07 203.96 214.43 203.32C214.65 203.22 214.77 203.44 214.77 203.84C214.77 206.06 214.83 208.84 214.85 210.2C214.85 210.54 214.97 211.28 215.31 211.28C216.05 211.28 216.13 210.12 216.13 209.58C216.13 207.8 216.09 205.48 216.19 203.9C216.27 202.78 216.43 202.5 216.73 202.36C217.77 201.88 218.93 201.5 220.15 201.38C220.41 201.36 220.75 201.22 220.71 200.84C220.67 200.46 220.41 200.3 220.13 200.28C219.13 200.22 217.57 200.68 216.37 201.12ZM238.166 207.84C237.486 207.3 236.506 206.7 236.126 206.5C235.786 206.34 235.826 206.08 235.946 205.88C236.166 205.52 236.286 205.22 236.406 204.88C236.546 204.48 236.586 204 236.026 203.8C235.306 203.54 235.166 204.02 235.006 204.52C234.666 205.68 233.966 206.76 233.086 207.58C232.246 208.38 231.326 209.16 230.586 209.7C230.306 209.9 230.046 210.12 230.206 210.38C230.366 210.64 231.006 210.44 231.246 210.32C232.626 209.62 234.186 208.32 234.926 207.66C235.046 207.56 235.246 207.46 235.446 207.54C235.766 207.64 236.546 208.18 237.166 208.68C236.726 209.02 236.266 209.34 235.766 209.66C235.406 209.9 235.066 210.14 235.146 210.46C235.246 210.82 236.186 210.52 236.566 210.38C237.586 210 239.246 208.68 240.026 207.92C240.586 207.38 240.826 207.36 241.066 207.54C241.926 208.2 242.666 208.98 243.346 209.72C243.646 210.06 243.986 210.04 244.106 209.98C244.346 209.84 244.446 209.4 244.286 209.14C243.666 208.12 242.686 207.2 241.946 206.42C241.746 206.22 241.666 205.96 241.786 205.64C241.906 205.3 242.106 204.74 242.246 204.26C242.346 203.94 242.366 203.34 242.026 203.12C242.126 202.32 242.146 201.58 242.146 200.68V196.12C242.146 194.44 241.786 193.62 240.186 192.86C239.506 192.54 239.106 192.4 238.826 192.92C238.546 193.44 238.926 193.84 239.546 194.1C240.426 194.48 240.726 194.9 240.726 195.6L240.766 200.92C240.766 202.08 240.786 203.18 240.866 204.02C240.506 205 239.926 206.06 239.106 206.92L238.166 207.84ZM236.346 197.4C235.806 196.62 235.106 196.24 234.346 196.28C232.486 196.4 230.586 198.52 230.866 200.48C231.106 202.16 232.906 202.66 234.326 202.26C235.406 201.96 236.386 201.1 236.686 200C236.866 199.34 236.926 198.24 236.346 197.4ZM234.066 201.06C233.206 201.3 232.266 201.04 232.206 199.96C232.146 199.02 233.246 197.48 234.386 197.54C234.986 197.58 235.466 198.24 235.466 198.98C235.466 200 234.966 200.8 234.066 201.06ZM250.662 197.4C248.942 197.4 247.262 199.3 247.282 201.18C247.302 202.98 248.502 204.08 250.362 204.08C252.542 204.08 253.922 202.66 253.942 200.5C253.942 198.44 252.882 197.36 250.662 197.4ZM257.482 197.62C257.482 197.94 257.222 198.16 256.922 198.24C256.542 198.34 255.402 198.64 254.762 198.9C254.362 199.06 254.102 199.28 254.242 199.68C254.422 200.18 254.882 200.16 255.242 200.02C255.822 199.8 256.782 199.54 257.482 199.44C257.502 203.08 257.562 207.6 257.622 209.56C257.642 210.16 257.762 211.2 258.162 211.2C258.622 211.2 258.862 209.94 258.862 209.52C258.942 205.36 258.922 201.2 258.922 196.64C258.922 195.24 258.242 193.64 256.702 193.02C256.322 192.86 255.902 192.8 255.622 193.24C255.362 193.66 255.582 193.94 255.942 194.16C257.002 194.8 257.482 195.34 257.482 196.98V197.62ZM252.682 200.48C252.682 201.88 251.502 203.02 250.322 202.86C249.222 202.72 248.562 202.14 248.622 200.74C248.662 199.8 249.782 198.54 251.142 198.48C252.022 198.68 252.682 199.3 252.682 200.48ZM277.179 206.44C276.759 206.3 275.919 206.12 275.459 206.02C274.579 205.82 274.119 205.64 274.199 205.04C274.339 204.08 274.239 202.04 274.099 200.98C274.019 200.34 274.439 199.68 274.719 199.16C274.979 198.66 274.899 197.84 274.419 197.22C273.359 195.84 271.939 195.36 270.259 196.2C268.979 196.84 267.999 198.66 268.359 199.96C268.979 202.14 271.139 201.62 272.799 201.12C272.999 202.28 273.039 204.2 272.939 205.18C272.899 205.62 272.779 205.78 272.439 205.8C272.159 205.82 271.599 205.84 271.279 205.8C270.879 205.74 270.639 205.54 270.519 205.12C270.339 204.52 269.919 203.36 269.619 202.96C269.239 202.36 268.579 201.76 267.999 202.22C267.439 202.72 268.219 203.22 268.559 203.62C268.939 204.02 269.179 204.88 269.339 205.4C269.479 205.84 269.479 206.2 268.979 206.48C267.499 207.32 265.579 207.28 264.719 207.1C263.979 206.94 263.399 206.76 263.199 207.46C262.999 208.16 263.799 208.44 264.299 208.46C265.919 208.52 267.099 208.64 268.699 208.04C272.019 206.78 274.179 206.82 276.899 207.52C277.239 207.58 277.619 207.58 277.739 207.14C277.819 206.7 277.519 206.54 277.179 206.44ZM270.919 200.36C270.179 200.38 269.599 200.24 269.599 199.32C269.599 198.22 270.899 196.74 271.919 196.86C272.779 196.96 273.459 197.44 273.499 198.38C273.539 199.24 272.139 200.34 270.919 200.36ZM281.375 207.36C280.635 207.36 280.075 208.24 280.095 208.58C280.095 209.04 280.555 209.18 280.955 209.18C281.595 209.18 282.015 208.7 282.035 208.08C282.055 207.72 281.855 207.36 281.375 207.36ZM65.2215 223.42C65.1215 223.98 64.9015 224.42 64.6215 224.6C63.2215 225.48 61.5415 226.7 59.9215 227.4C59.1015 227.78 58.7615 227.48 58.5415 226.78C58.2215 225.62 57.9615 224.8 57.8015 224.28C57.6415 223.74 57.4215 223.34 57.8015 223.1C58.2215 222.84 60.1015 222.52 60.7615 222.32C61.1815 222.18 61.5815 221.96 61.4615 221.5C61.3415 221.04 60.9615 221.04 60.5415 221.12C59.1415 221.38 57.5415 221.78 56.1215 222.16C55.8015 222.24 55.5015 222.56 55.7415 222.96C56.4015 224.12 56.9215 226.1 57.3015 227.52C57.8815 229.6 58.6215 229.52 60.5815 228.52C62.0415 227.78 63.4615 226.86 65.2215 225.62C65.2415 229 65.3015 232.8 65.3615 234.56C65.3815 235.16 65.5015 236.2 65.9015 236.2C66.3615 236.2 66.6015 234.94 66.6015 234.52C66.6415 232.4 66.7015 227.46 66.6815 226.4C66.6615 225.86 66.8415 225.68 67.1815 225.6C67.7415 225.48 68.8215 225.28 69.4615 225.26C69.9215 225.24 70.2415 224.96 70.2415 224.38C70.2415 224.04 69.8615 223.96 69.5415 223.96C68.7615 223.98 67.2815 224.22 66.6615 224.42V221.64C66.6615 220.24 65.9815 218.64 64.4415 218.02C64.0615 217.86 63.6415 217.8 63.3615 218.24C63.1015 218.66 63.3215 218.94 63.6815 219.16C64.7415 219.8 65.2215 220.34 65.2215 221.98V223.42ZM80.6176 225C81.6976 224.74 82.7176 224.32 83.8176 223.92C84.0576 223.84 84.4176 223.74 84.3376 223.32C84.2776 223.06 84.0176 222.88 83.6576 222.88C82.9376 222.88 81.9576 223.36 81.0776 223.64C80.1576 223.94 79.2776 224.28 78.6976 223.86C78.3576 223.6 78.1576 223.4 78.0976 223.08C79.1176 222.8 81.1376 222.28 82.1176 222.1C82.6776 222 83.2576 222.06 83.3176 221.36C83.3376 221.02 83.3176 220.24 83.3776 219.3C83.4376 218.58 82.8776 218.22 82.2176 218.5C80.7776 219.1 79.0776 219.36 77.5976 219.68C77.1576 219.8 76.6976 220 76.8376 220.5C76.9576 220.9 77.5176 220.8 77.8376 220.74C78.7976 220.58 80.6176 220.08 81.5976 219.8C82.0176 219.68 82.0576 219.94 82.0576 220.26C82.0576 220.46 82.0576 220.74 82.0376 220.96C80.9976 221.16 78.2376 221.9 77.4576 222.12C76.7776 222.32 75.9976 222.26 76.0576 223.08C76.0976 223.6 76.7776 223.34 76.9176 223.8C77.2576 224.84 78.2776 225.22 79.0776 225.22C79.5576 225.22 80.2176 225.1 80.6176 225ZM82.8176 225.74C80.8776 226.36 77.2576 227.86 75.1576 228.5C74.3976 228.72 73.4776 228.64 72.6376 228.62C72.3376 228.64 71.9376 228.92 71.9976 229.34C71.9776 229.76 72.3176 229.88 72.6776 229.88C73.7976 229.94 74.9976 229.94 75.9976 229.58C78.0976 228.84 83.0776 226.82 84.2976 226.5C84.6776 226.4 85.7376 226.22 86.1776 226.18C86.4376 226.16 86.8376 226 86.7976 225.62C86.7576 225.24 86.4776 225.08 86.2176 225.06C85.2176 224.94 84.0176 225.36 82.8176 225.74ZM85.9576 232.82C85.7376 232.44 85.1376 233.08 84.8776 233.24C84.0176 233.94 83.2576 234.26 82.5576 234.24C80.9576 234.2 79.7576 233.38 78.3176 231.96C77.6576 231.3 77.0176 230.88 76.0376 230.76C75.5776 230.7 74.8976 230.74 74.8776 231.3C74.8576 231.88 75.2176 232.14 75.6176 232.18C76.7176 232.26 77.1776 232.9 77.9976 233.6C79.9176 235.24 81.6576 235.76 83.5176 235.32C84.9776 234.98 86.2576 233.26 85.9576 232.82ZM94.6137 229.88C94.8337 230.12 95.4137 229.88 95.6937 229.7C97.3337 228.68 98.1337 228 99.2737 227.1C99.9737 226.54 100.414 226.74 100.994 227.04C101.774 227.44 102.214 227.88 102.694 228.36C102.954 228.62 103.414 228.76 103.774 228.44C104.134 228.14 103.834 227.54 103.594 227.3C103.034 226.74 102.454 226.34 101.654 225.96C101.114 225.7 100.834 225.28 101.214 224.78C101.474 224.44 101.694 224 101.834 223.62C102.074 222.9 101.774 222.16 101.394 221.72C101.194 221.48 100.774 221.16 100.294 221.36C99.9337 221.52 99.8337 221.76 100.054 222.16C100.574 223.12 100.294 223.6 99.8537 224.24C98.8937 225.66 97.0137 227.52 95.0137 229.1C94.6737 229.38 94.4337 229.68 94.6137 229.88ZM106.334 236.28C106.734 236.28 106.994 234.98 107.034 234.28C107.074 232.1 107.014 229.58 107.014 227.1C107.014 226.64 107.194 226.54 107.474 226.48C108.074 226.36 109.134 226.18 109.674 226.14C110.114 226.1 110.434 225.88 110.434 225.34C110.434 224.84 109.894 224.84 109.334 224.9C108.734 224.96 107.694 225.12 107.014 225.3C106.994 224.3 107.014 222.18 107.014 221.44C107.014 220.28 106.814 218.98 105.514 218.08C105.114 217.8 104.554 217.56 104.174 218.06C103.834 218.52 104.114 218.78 104.494 219.08C105.234 219.64 105.614 220.36 105.594 221.26C105.554 223.98 105.674 231.72 105.714 234.5C105.714 235.14 105.954 236.28 106.334 236.28ZM123.87 224.56C123.87 224.36 123.99 224.26 124.15 224.2C124.67 224.02 125.17 224 126.13 224.06C126.53 224.06 127.07 224.16 127.17 223.68C127.29 223.12 126.87 222.82 126.51 222.74C125.93 222.62 124.39 222.88 123.87 223.02C123.87 222.36 123.89 221.54 123.89 221.12C123.89 219.44 123.53 218.62 121.93 217.86C121.25 217.54 120.85 217.4 120.57 217.92C120.29 218.44 120.67 218.84 121.29 219.1C122.17 219.48 122.41 219.9 122.47 220.6C122.51 221.08 122.53 222.34 122.55 223.76C122.45 224.16 122.21 224.36 121.95 224.48C120.25 225.28 118.43 226.86 117.03 226.86C116.09 226.86 115.61 226.02 115.23 225.54C115.15 225.42 115.17 225.26 115.29 225.18C115.75 224.86 117.19 224.62 117.69 224.52C118.69 224.92 118.91 224.48 119.13 223.82C119.35 223.14 119.41 222.22 119.43 221.34C119.47 220.22 119.03 219.66 117.81 220.06C116.89 220.38 115.19 220.62 114.17 220.64C113.65 220.66 113.29 220.82 113.29 221.26C113.29 221.98 113.83 221.92 114.31 221.9C114.81 221.86 117.11 221.42 117.67 221.28C117.95 221.22 118.09 221.28 118.15 221.64C118.23 222.1 118.11 222.62 117.97 222.98C117.85 223.3 117.41 223.4 116.95 223.5C115.83 223.76 114.41 224.08 113.35 224.46C112.95 224.6 112.47 224.98 112.55 225.34C112.67 225.82 113.31 225.74 113.61 225.74C114.11 226.14 114.59 226.96 115.03 227.4C115.87 228.24 116.69 228.36 117.91 228C119.27 227.58 121.07 226.14 122.55 225.42L122.61 228.44H122.53C121.13 228.74 118.87 229.86 117.61 230.32C116.93 230.32 116.67 230.28 115.95 229.9C115.37 229.62 114.73 229.82 114.55 230.34C114.35 230.92 114.91 231.06 115.37 231.22C116.11 231.48 116.49 232 116.73 232.68C117.01 233.5 117.25 234.66 117.47 235.58C117.55 235.94 117.67 236.42 118.13 236.42C118.59 236.48 118.77 236.14 118.77 235.76C118.79 234.94 119.49 235.08 119.99 235.08C121.19 235.08 122.25 235.34 123.47 235.68C123.77 235.76 124.09 235.82 124.27 235.54C124.47 235.24 124.21 234.88 124.01 234.76C123.79 234.62 123.61 234.54 123.45 234.4C123.35 234.3 123.35 234.14 123.43 233.94C124.03 232.44 123.97 230.38 123.91 228.98C123.89 228.82 123.83 228.68 123.71 228.58C123.85 227.6 123.87 226.38 123.87 226.18V224.56ZM121.73 229.94C122.25 229.76 122.39 230.02 122.49 230.38C122.63 230.94 122.59 233.44 122.15 234C121.21 233.8 119.79 233.84 118.87 234.06C118.63 234.12 118.47 234.24 118.37 233.76C118.27 233.26 117.95 232.14 117.91 231.9C117.85 231.54 118.05 231.42 118.47 231.26C119.29 230.96 121.13 230.16 121.73 229.94ZM139.706 225.7C139.686 226.16 139.566 226.6 139.046 226.8C138.366 227.08 135.826 228.14 134.666 228.42C134.606 227.64 134.546 226.4 134.146 225.7C133.866 225.12 133.426 224.54 132.786 224.82C132.086 225.2 132.626 225.7 132.846 226.18C133.266 227.12 133.506 228.34 132.906 228.92C132.586 229.24 130.326 230.02 129.306 230.12C128.966 230.16 128.606 230.22 128.566 230.72C128.526 231.22 128.946 231.34 129.266 231.34C130.066 231.36 130.846 231.12 131.546 230.86C133.646 230.06 135.826 229.44 139.726 227.84C139.766 230.54 139.786 233.18 139.846 234.56C139.866 235.16 139.986 236.2 140.386 236.2C140.846 236.2 141.086 234.94 141.086 234.52C141.126 232.4 141.186 227.9 141.166 226.84C141.146 226.3 141.326 226.2 141.666 226.12C142.146 226.02 143.046 225.88 143.566 225.84C144.026 225.8 144.346 225.54 144.346 224.96C144.346 224.62 143.966 224.52 143.646 224.54C143.046 224.58 141.726 224.86 141.146 225.02V221.64C141.146 220.24 140.466 218.64 138.926 218.02C138.546 217.86 138.126 217.8 137.846 218.24C137.586 218.66 137.806 218.94 138.166 219.16C139.226 219.8 139.706 220.34 139.706 221.98V225.7ZM137.186 221.9C137.186 220.9 136.766 220.54 135.486 221.02C134.526 221.38 133.346 222.02 132.226 222.06C131.806 222.08 131.386 222.18 131.386 222.76C131.386 223.32 131.926 223.5 132.346 223.4C133.166 223.2 133.966 222.92 134.706 222.58C135.486 222.22 135.826 222.3 135.826 223.12V226.02C135.826 226.38 135.806 226.8 136.246 226.86C136.786 226.96 136.926 226.48 136.986 226.12C137.106 225.22 137.186 223.34 137.186 221.9ZM163.862 229.16C163.882 228.96 163.802 228.82 163.682 228.72C163.802 228.02 163.842 227.14 163.862 226.62C163.942 226.38 164.122 226.28 164.462 226.16C164.882 226.02 165.982 225.82 166.582 225.76C166.962 225.72 167.522 225.78 167.482 225.02C167.462 224.46 167.042 224.38 166.562 224.42C166.042 224.46 164.782 224.66 164.182 224.82C163.962 224.88 163.882 224.8 163.882 224.64H163.862V223.54H163.882C163.882 223.24 164.082 223 164.662 222.86C165.282 222.72 166.022 222.6 166.722 222.52C167.102 222.48 167.422 222.26 167.362 221.76C167.322 221.36 167.002 221.24 166.622 221.26C166.002 221.28 164.762 221.5 164.262 221.64C163.962 221.72 163.882 221.6 163.882 221.36V221.12C163.882 219.44 163.522 218.62 161.922 217.86C161.242 217.54 160.842 217.4 160.562 217.92C160.282 218.44 160.662 218.84 161.282 219.1C162.162 219.48 162.402 219.9 162.462 220.6C162.542 221.64 162.542 226.42 162.602 228.56C160.942 229.32 157.562 230.58 155.562 231.12C154.882 231.3 154.382 231.48 154.462 232.04C154.542 232.6 155.242 232.56 156.002 232.36C157.642 231.92 160.942 230.6 161.802 230.24C162.382 230 162.422 230.48 162.422 230.82C162.462 232.4 162.502 234.06 162.502 235.64C162.502 236.08 162.702 236.7 163.082 236.62C163.482 236.52 163.662 235.8 163.722 235.38C163.942 233.62 163.802 232.8 163.802 231.12C163.802 230.44 163.802 229.8 163.862 229.16ZM156.162 227.04C157.722 227.02 159.562 225.26 159.562 223.76C159.562 222.5 158.562 221.18 157.182 221.18C155.402 221.18 153.582 222.7 153.522 224.26C153.462 225.84 154.862 227.06 156.162 227.04ZM154.862 224.24C155.022 223.18 156.162 222.18 157.162 222.34C158.022 222.48 158.282 223.16 158.282 223.64C158.262 224.82 157.082 225.9 156.082 225.72C155.322 225.58 154.722 225.14 154.862 224.24ZM178.658 225.54C178.518 225.52 178.478 225.4 178.498 225.18C178.538 224.8 178.518 223.98 178.478 223.52C178.438 222.96 178.078 222.38 177.478 222.58C176.918 222.76 177.138 223.64 177.178 224.1C177.218 224.6 177.238 225.18 177.238 225.48C177.238 225.76 177.238 226.04 177.018 226.18C175.318 226.86 173.438 227.64 172.158 228.06C171.398 228.3 170.478 228.24 169.638 228.24C169.338 228.26 168.958 228.56 169.018 228.98C169.018 229.4 169.358 229.5 169.718 229.5C170.838 229.54 172.038 229.5 173.018 229.14C175.078 228.32 180.038 226.22 181.258 225.88C181.638 225.76 182.698 225.56 183.138 225.52C183.398 225.5 183.778 225.32 183.738 224.94C183.698 224.56 183.398 224.42 183.138 224.4C182.138 224.3 180.958 224.74 179.758 225.14L178.658 225.54ZM179.818 234.96C179.818 235.46 179.878 236.34 180.398 236.34C180.918 236.34 181.098 235.42 181.098 234.86C181.098 233.48 181.278 230.04 181.278 228.6C181.278 228.1 180.558 227.52 180.018 227.76C178.878 228.24 176.178 229.6 174.538 230.24C173.978 230.46 173.438 230.56 172.938 230.68C172.658 230.76 172.258 231.06 172.318 231.58C172.378 232.08 173.018 232.02 173.378 231.96C173.698 231.9 174.318 231.7 175.038 231.4C176.438 230.8 178.198 229.9 178.758 229.62C179.118 229.44 179.438 229.32 179.638 229.44C179.898 229.6 179.818 230.5 179.818 231.38V234.96ZM173.498 224.5C174.838 223.8 176.418 222.3 177.658 220.82C178.478 221 179.618 221.84 180.118 222.46C180.518 222.96 180.738 223.18 181.158 222.96C181.558 222.74 181.458 222.28 181.238 221.96C180.538 220.98 179.458 220.38 178.278 219.64C178.298 219.28 178.298 218.66 177.618 218.66C177.458 218.66 177.258 218.84 177.138 219.1C176.638 220.18 174.578 222.58 172.958 223.64C172.798 223.74 172.478 224.14 172.558 224.38C172.678 224.76 173.338 224.58 173.498 224.5ZM198.274 234.2C198.274 235.14 198.454 236.2 198.874 236.2C199.334 236.2 199.634 234.92 199.634 234.08C199.634 231.36 199.574 224.78 199.714 222.22C199.834 220.18 199.074 219.22 197.914 218.2C197.454 217.78 196.834 217.44 196.414 217.92C195.894 218.54 196.394 218.92 196.814 219.2C197.814 219.86 198.274 220.76 198.254 222.16V223.2C198.254 223.68 197.774 223.88 197.154 224.04C196.774 224.14 196.154 224.3 195.974 224.3V222.74C195.994 221.54 195.534 220.58 194.674 219.82C194.294 219.48 193.834 219.14 193.314 219.7C192.894 220.14 193.474 220.6 193.794 220.94C194.194 221.38 194.474 221.64 194.494 222.06C194.634 224.2 194.614 229.38 194.694 231.46C194.714 231.8 194.734 232.78 195.194 232.78C195.634 232.78 195.874 231.76 195.874 231.38C195.934 229.22 195.954 228.16 195.954 226.08C195.954 225.84 196.094 225.64 196.274 225.54C196.574 225.38 197.514 225.16 197.854 225.08C198.134 225.02 198.234 225.04 198.234 225.24C198.234 228.46 198.274 232.58 198.274 234.2ZM192.014 225.42C190.434 224.76 188.734 225.3 187.814 226.92C187.454 227.56 187.554 228.52 187.974 229.16C188.514 229.98 189.554 230.56 190.654 230.42C192.134 230.22 192.994 229.34 193.114 227.7C193.194 226.42 192.654 225.68 192.014 225.42ZM192.894 223.78C193.214 223.82 193.514 223.64 193.654 223.38C193.794 223.14 193.794 222.84 193.554 222.6C193.374 222.42 193.014 222.36 192.774 222.32C191.954 221.54 190.534 220.66 189.274 220.48C188.874 220.42 188.454 220.54 188.394 220.88C188.274 221.32 188.614 221.6 188.954 221.66C189.654 221.8 190.594 222.04 191.334 222.64C189.874 222.94 188.274 223.36 186.834 223.8C186.454 223.92 186.094 224.18 186.174 224.76C186.234 225.22 186.754 225.16 187.114 225.06C188.754 224.56 190.914 223.6 192.894 223.78ZM190.274 229.26C189.654 229.28 188.854 228.68 188.894 227.92C188.934 227.02 189.994 226.18 190.894 226.24C191.554 226.28 191.794 226.96 191.794 227.4C191.794 228.42 191.214 229.24 190.274 229.26ZM219.91 227.9C220.49 227.94 221.03 227.46 220.55 226.68C220.25 226.22 220.47 225.62 220.57 225.18C220.87 224 220.87 222.2 220.45 220.82C220.37 220.56 220.17 219.74 219.49 219.9C218.95 220.02 218.93 220.44 219.03 220.92C219.19 221.7 219.47 222.36 219.47 223.12C219.47 223.44 219.41 223.68 219.13 223.64C218.03 223.46 216.87 223.86 215.77 224.1C215.25 224.22 214.97 224.38 214.55 224.04C213.85 223.46 213.03 222.92 212.25 222.48C211.91 222.28 211.59 222.28 211.33 222.64C211.07 223 211.37 223.36 211.61 223.52C212.15 223.9 213.09 224.46 213.73 225.16C214.17 225.64 214.47 226.36 214.43 226.92C214.23 229.02 215.29 228.42 216.39 228.18L217.11 228.06C217.11 228.96 217.19 230.4 216.81 231.26C215.27 231.78 214.39 232.24 212.65 232.66C211.83 232.86 211.29 232.8 210.55 232.74C210.13 232.7 209.59 232.64 209.45 233.18C209.31 233.72 209.77 233.94 210.21 234.08C211.75 234.56 214.83 233.34 216.31 232.82C218.23 232.14 220.21 232.3 221.97 233.14C222.51 233.4 223.35 233.8 223.63 233.08C223.75 232.78 223.17 232.36 222.99 232.26C222.07 231.74 219.69 231.12 218.53 231.2C218.27 231.22 218.23 231 218.25 230.74C218.31 229.86 218.29 228.78 218.55 227.92C219.11 227.88 219.61 227.88 219.91 227.9ZM216.37 227.14C215.61 227.3 215.71 226.22 215.63 225.9C215.55 225.6 215.65 225.28 215.95 225.22C216.79 225.04 217.89 224.76 218.57 224.8C219.07 224.82 219.35 224.94 219.27 225.56C219.21 225.96 219.25 226.48 219.11 226.66C218.45 226.7 217.37 226.92 216.37 227.14ZM230.266 222.4C228.546 222.4 226.866 224.3 226.886 226.18C226.906 227.98 228.106 229.08 229.966 229.08C232.146 229.08 233.526 227.66 233.546 225.5C233.546 223.44 232.486 222.36 230.266 222.4ZM235.986 221.98C235.986 225.72 236.046 232.12 236.126 234.56C236.146 235.16 236.266 236.2 236.666 236.2C237.126 236.2 237.366 234.94 237.366 234.52C237.406 232.4 237.466 227.46 237.446 226.4C237.426 225.86 237.606 225.68 237.946 225.6C238.506 225.48 239.586 225.28 240.226 225.26C240.686 225.24 241.006 224.96 241.006 224.38C241.006 224.04 240.626 223.96 240.306 223.96C239.526 223.98 238.046 224.22 237.426 224.42V221.64C237.426 220.24 236.746 218.64 235.206 218.02C234.826 217.86 234.406 217.8 234.126 218.24C233.866 218.66 234.086 218.94 234.446 219.16C235.506 219.8 235.986 220.34 235.986 221.98ZM232.286 225.48C232.286 226.88 231.106 228.02 229.926 227.86C228.826 227.72 228.166 227.14 228.226 225.74C228.266 224.8 229.386 223.54 230.746 223.48C231.626 223.68 232.286 224.3 232.286 225.48ZM257.182 231.44C256.762 231.3 255.922 231.12 255.462 231.02C254.582 230.82 254.122 230.64 254.202 230.04C254.342 229.08 254.242 227.04 254.102 225.98C254.022 225.34 254.442 224.68 254.722 224.16C254.982 223.66 254.902 222.84 254.422 222.22C253.362 220.84 251.942 220.36 250.262 221.2C248.982 221.84 248.002 223.66 248.362 224.96C248.982 227.14 251.142 226.62 252.802 226.12C253.002 227.28 253.042 229.2 252.942 230.18C252.902 230.62 252.782 230.78 252.442 230.8C252.162 230.82 251.602 230.84 251.282 230.8C250.882 230.74 250.642 230.54 250.522 230.12C250.342 229.52 249.922 228.36 249.622 227.96C249.242 227.36 248.582 226.76 248.002 227.22C247.442 227.72 248.222 228.22 248.562 228.62C248.942 229.02 249.182 229.88 249.342 230.4C249.482 230.84 249.482 231.2 248.982 231.48C247.502 232.32 245.582 232.28 244.722 232.1C243.982 231.94 243.402 231.76 243.202 232.46C243.002 233.16 243.802 233.44 244.302 233.46C245.922 233.52 247.102 233.64 248.702 233.04C252.022 231.78 254.182 231.82 256.902 232.52C257.242 232.58 257.622 232.58 257.742 232.14C257.822 231.7 257.522 231.54 257.182 231.44ZM250.922 225.36C250.182 225.38 249.602 225.24 249.602 224.32C249.602 223.22 250.902 221.74 251.922 221.86C252.782 221.96 253.462 222.44 253.502 223.38C253.542 224.24 252.142 225.34 250.922 225.36ZM261.379 232.36C260.639 232.36 260.079 233.24 260.099 233.58C260.099 234.04 260.559 234.18 260.959 234.18C261.599 234.18 262.019 233.7 262.039 233.08C262.059 232.72 261.859 232.36 261.379 232.36Z" fill="black"/>
<path opacity="0.3" d="M32 127H124V146H32V127Z" fill="#FF0000"/>
<path d="M215.5 6.5L107 0L97.5 18L98.5 33.5L96 39.5L210 46L214 43V37.5L217 35V30.5L220 29L221.5 24.5L218 19.5L220 18L218 16V9.5L215.5 6.5Z" fill="#FCF5E2" fill-opacity="0.8"/>
<defs>

</defs>
</svg>
