<svg width="689" height="764" viewBox="0 0 689 764" fill="none" xmlns="http://www.w3.org/2000/svg">
<g filter="url(#filter0_d_384_73)">
<rect x="9" y="36.3467" width="300" height="300" fill="white"/>
</g>
<g filter="url(#filter1_d_384_73)">
<path d="M176.713 7.88583C176.713 7.88583 181.5 10.7052 183.135 13.6531C184.49 16.098 185.118 17.8449 184.78 20.6202C184.443 23.3955 183.659 25.199 181.513 26.9898C179.616 28.5719 178.025 29.0609 175.556 29.1146C173.988 29.1487 173.5 29.2711 172.045 28.6878C171.484 30.715 170.168 33.588 170.168 33.588C170.168 33.588 172.136 35.7763 173.127 37.3671C174.405 39.4168 175.251 40.633 175.646 43.0158C175.985 45.0635 175.901 46.32 175.356 48.323C174.898 50.0081 174.452 50.9406 173.44 52.3638C172.416 53.8048 170.206 55.532 170.206 55.532L166.44 57.211C166.44 57.211 164.25 57.5731 162.845 57.4861C161.323 57.3918 160.495 57.0773 159.027 56.6656C157.253 56.1683 156.195 55.9655 154.593 55.0578C153.191 54.2644 151.339 52.5251 151.339 52.5251L148.479 49.6842L146.406 46.2267L145.036 42.8546L144.367 39.5678L144.794 36.0582L146.231 33.0275C146.231 33.0275 147.591 31.3272 148.678 30.4759C149.765 29.6246 151.742 28.7115 151.742 28.7115L155.029 28.0428L158.23 28.076L160.395 28.4071L163.433 23.3664L160.967 20.2172C160.967 20.2172 159.839 17.3629 159.767 15.4412C159.689 13.367 159.771 12.0454 160.758 10.2193C161.783 8.32193 162.836 7.36948 164.78 6.43457C166.832 5.44746 168.299 5.49829 170.566 5.71364C173.101 5.95442 176.713 7.88583 176.713 7.88583Z" fill="#FF1D1D"/>
<path d="M163.433 23.3664C163.794 23.8276 164.358 24.5473 164.358 24.5473C164.358 24.5473 167.256 27.3643 169.632 28.038C170.386 28.2518 171.264 28.6226 172.045 28.6878M163.433 23.3664C162.47 22.1365 160.967 20.2172 160.967 20.2172C160.967 20.2172 159.839 17.3629 159.767 15.4412C159.689 13.367 159.771 12.0454 160.758 10.2193C161.783 8.32193 162.836 7.36948 164.78 6.43457C166.832 5.44746 168.299 5.49829 170.566 5.71364C173.101 5.95442 176.713 7.88583 176.713 7.88583C176.713 7.88583 181.5 10.7052 183.135 13.6531C184.49 16.098 185.118 17.8449 184.78 20.6202C184.443 23.3955 183.659 25.199 181.513 26.9898C179.616 28.5719 178.025 29.0609 175.556 29.1146C173.988 29.1487 173.5 29.2711 172.045 28.6878M163.433 23.3664C162.246 25.3349 160.395 28.4071 160.395 28.4071M172.045 28.6878C171.484 30.715 170.168 33.588 170.168 33.588M170.168 33.588C170.168 33.588 169.1 38.6023 166.999 40.8958C165.944 42.0475 165.309 42.8032 163.85 43.362C162.282 43.9629 161.295 44.3901 159.553 43.5517C157.61 42.6164 156.335 41.6109 155.769 39.5299C155.44 38.3235 155.511 37.5446 155.801 36.3285C156.147 34.8819 157.633 32.9895 157.633 32.9895L160.395 28.4071M170.168 33.588C170.168 33.588 172.136 35.7763 173.127 37.3671C174.405 39.4168 175.251 40.633 175.646 43.0158C175.985 45.0635 175.901 46.32 175.356 48.323C174.898 50.0081 174.452 50.9406 173.44 52.3638C172.416 53.8048 170.206 55.532 170.206 55.532L166.44 57.211C166.44 57.211 164.25 57.5731 162.845 57.4861C161.323 57.3918 160.495 57.0773 159.027 56.6656C157.253 56.1683 156.195 55.9655 154.593 55.0578C153.191 54.2644 151.339 52.5251 151.339 52.5251L148.479 49.6842L146.406 46.2267L145.036 42.8546L144.367 39.5678L144.794 36.0582L146.231 33.0275C146.231 33.0275 147.591 31.3272 148.678 30.4759C149.765 29.6246 151.742 28.7115 151.742 28.7115L155.029 28.0428L158.23 28.076L160.395 28.4071" stroke="#A60505" stroke-width="0.1"/>
</g>
<g filter="url(#filter2_d_384_73)">
<path d="M146.081 70.3392L152.155 53.3658C152.155 53.3658 153.68 54.5563 154.748 55.1772C155.502 55.6163 156.743 56.186 156.743 56.186L146.081 70.3392Z" fill="#D9D9D9"/>
<path d="M146.081 70.3392L152.155 53.3658C152.155 53.3658 153.68 54.5563 154.748 55.1772C155.502 55.6163 156.743 56.186 156.743 56.186L146.081 70.3392Z" stroke="black"/>
</g>
<path d="M58.8167 137.522V141.448H62.9767V137.522H58.8167ZM55.9827 141.11V150.236H73.0647V141.11H68.8787V142.774H60.1427V141.11H55.9827ZM60.1427 145.868H68.8787V146.986H60.1427V145.868ZM68.8527 126.056V140.148H73.0647V126.056H68.8527ZM52.9667 139.394C57.3347 139.394 62.8467 139.316 67.9947 138.406L67.7347 135.442C62.7167 136.092 56.9447 136.118 52.5247 136.118L52.9667 139.394ZM58.5047 126.732V127.538C58.5047 129.514 57.2307 131.516 53.2007 132.296L54.9687 135.442C59.9347 134.454 61.8327 131.308 61.8327 127.538V126.732H58.5047ZM59.5187 126.732V127.538C59.5187 131.1 61.4687 134.116 66.3307 135.078L68.0467 131.906C64.1467 131.23 62.8727 129.332 62.8727 127.538V126.732H59.5187ZM94.8507 126.056V150.444H98.8287V126.056H94.8507ZM85.6987 135.078V138.38H90.3787V135.078H85.6987ZM89.6767 126.524V149.456H93.5767V126.524H89.6767ZM84.3207 128.812V129.696C84.3207 135.676 82.6567 139.316 77.1967 142.592L79.5367 145.504C86.5047 141.5 88.3507 136.066 88.3507 128.812H84.3207ZM78.7047 128.812V132.14H85.5427V128.812H78.7047ZM110.67 127.954V140.018H122.526V127.954H110.67ZM118.392 131.256V136.716H114.804V131.256H118.392ZM125.282 126.082V143.814H129.468V126.082H125.282ZM128.324 132.894V136.326H132.51V132.894H128.324ZM113.452 146.778V150.106H130.222V146.778H113.452ZM113.452 142.046V148.52H117.664V142.046H113.452ZM135.394 135.13V138.406H157.468V135.13H135.394ZM137.994 130.918V134.168H154.868V130.918H137.994ZM137.994 126.342V133.804H142.154V129.644H154.686V126.342H137.994ZM137.786 139.368V142.488H150.682V143.32H137.812V147.792H141.946V146.232H154.816V139.368H137.786ZM137.812 147.142V150.314H155.414V147.142H137.812ZM167.346 127.642C163.654 127.642 160.924 131.048 160.924 136.456C160.924 141.916 163.654 145.322 167.346 145.322C171.038 145.322 173.768 141.916 173.768 136.456C173.768 131.048 171.038 127.642 167.346 127.642ZM167.346 131.464C168.828 131.464 169.764 133.05 169.764 136.456C169.764 139.914 168.828 141.5 167.346 141.5C165.89 141.5 164.928 139.914 164.928 136.456C164.928 133.05 165.89 131.464 167.346 131.464ZM177.07 126.03V150.522H181.256V126.03H177.07ZM172.572 134.558V137.912H178.812V134.558H172.572ZM192.356 127.642C188.56 127.642 185.778 131.048 185.778 136.456C185.778 141.916 188.56 145.322 192.356 145.322C196.126 145.322 198.908 141.916 198.908 136.456C198.908 131.048 196.126 127.642 192.356 127.642ZM192.356 131.464C193.864 131.464 194.878 133.05 194.878 136.456C194.878 139.914 193.864 141.5 192.356 141.5C190.822 141.5 189.834 139.914 189.834 136.456C189.834 133.05 190.822 131.464 192.356 131.464ZM203.978 131.49V134.922H208.164V131.49H203.978ZM203.978 138.588V141.994H208.164V138.588H203.978ZM200.884 126.082V150.47H205.096V126.082H200.884ZM218.237 129.462V132.764H229.677V129.462H218.237ZM224.009 133.57C220.889 133.57 218.601 136.014 218.601 139.498C218.601 142.982 220.889 145.426 224.009 145.426C227.155 145.426 229.417 142.982 229.417 139.498C229.417 136.014 227.155 133.57 224.009 133.57ZM224.009 137.028C225.023 137.028 225.725 137.834 225.725 139.498C225.725 141.188 225.023 141.968 224.009 141.968C222.995 141.968 222.293 141.188 222.293 139.498C222.293 137.834 222.995 137.028 224.009 137.028ZM235.397 126.056V150.444H239.375V126.056H235.397ZM233.005 135.78V139.134H236.697V135.78H233.005ZM230.327 126.446V149.508H234.227V126.446H230.327ZM221.955 126.68V131.568H226.089V126.68H221.955ZM248.031 138.354V144.958H252.217V138.354H248.031ZM256.793 138.354V144.958H260.979V138.354H256.793ZM243.481 144.412V147.792H265.555V144.412H243.481ZM254.505 127.07C249.201 127.07 245.249 129.696 245.249 133.778C245.249 137.834 249.201 140.46 254.505 140.46C259.809 140.46 263.761 137.834 263.761 133.778C263.761 129.696 259.809 127.07 254.505 127.07ZM254.505 130.32C257.625 130.32 259.601 131.516 259.601 133.778C259.601 136.014 257.625 137.236 254.505 137.236C251.385 137.236 249.409 136.014 249.409 133.778C249.409 131.516 251.385 130.32 254.505 130.32Z" fill="black"/>
<path d="M53.4538 213.032V215.592H55.1178V213.032H53.4538ZM47.6778 212.456V213.8H60.8938V212.456H47.6778ZM54.2698 215.112C51.1178 215.112 49.2298 216.04 49.2298 217.72C49.2298 219.368 51.1178 220.312 54.2698 220.312C57.4058 220.312 59.3098 219.368 59.3098 217.72C59.3098 216.04 57.4058 215.112 54.2698 215.112ZM54.2698 216.392C56.4138 216.392 57.6138 216.84 57.6138 217.72C57.6138 218.568 56.4138 219.032 54.2698 219.032C52.1258 219.032 50.9258 218.568 50.9258 217.72C50.9258 216.84 52.1258 216.392 54.2698 216.392ZM53.1658 206.984V207.384C53.1658 208.808 51.2138 210.12 48.3498 210.392L48.9258 211.72C52.2858 211.352 54.6538 209.672 54.6538 207.384V206.984H53.1658ZM53.9338 206.984V207.384C53.9338 209.672 56.3018 211.352 59.6458 211.72L60.2378 210.392C57.3578 210.12 55.4058 208.824 55.4058 207.384V206.984H53.9338ZM48.8938 206.344V207.688H59.7098V206.344H48.8938ZM66.3006 213.192V217.432H67.9646V213.192H66.3006ZM71.6606 213.192V217.432H73.3406V213.192H71.6606ZM63.2126 217.16V218.536H76.4606V217.16H63.2126ZM69.8046 206.536C66.6846 206.536 64.4286 208.04 64.4286 210.376C64.4286 212.696 66.6846 214.2 69.8046 214.2C72.9246 214.2 75.1806 212.696 75.1806 210.376C75.1806 208.04 72.9246 206.536 69.8046 206.536ZM69.8046 207.848C72.0126 207.848 73.5486 208.824 73.5486 210.376C73.5486 211.912 72.0126 212.888 69.8046 212.888C67.5966 212.888 66.0606 211.912 66.0606 210.376C66.0606 208.824 67.5966 207.848 69.8046 207.848ZM88.4593 205.72V216.664H90.1393V205.72H88.4593ZM89.6433 210.36V211.752H92.2033V210.36H89.6433ZM78.7473 207.384V208.712H87.3553V207.384H78.7473ZM83.0513 209.384C80.9553 209.384 79.4993 210.504 79.4993 212.152C79.4993 213.816 80.9553 214.92 83.0513 214.92C85.1313 214.92 86.5873 213.816 86.5873 212.152C86.5873 210.504 85.1313 209.384 83.0513 209.384ZM83.0513 210.68C84.2033 210.68 84.9873 211.24 84.9873 212.152C84.9873 213.08 84.2033 213.624 83.0513 213.624C81.8993 213.624 81.1153 213.08 81.1153 212.152C81.1153 211.24 81.8993 210.68 83.0513 210.68ZM82.2193 205.704V208.04H83.8833V205.704H82.2193ZM80.8913 218.68V220.04H90.7313V218.68H80.8913ZM80.8913 215.816V219.256H82.5713V215.816H80.8913ZM109.076 205.704V216.456H110.756V205.704H109.076ZM106.196 210.104V211.48H109.348V210.104H106.196ZM104.516 206.824V207.544C104.516 210.248 102.324 212.424 98.8358 213.56L99.5398 214.904C103.716 213.544 106.276 210.664 106.276 206.824H104.516ZM99.5718 206.824V208.184H105.604V206.824H99.5718ZM101.364 218.68V220.04H111.124V218.68H101.364ZM101.364 215.384V219.416H103.044V215.384H101.364ZM118.54 214.056V215.416H131.788V214.056H118.54ZM124.284 214.904V220.328H125.948V214.904H124.284ZM120.156 206.472V212.264H130.14V206.472H120.156ZM128.492 207.8V210.936H121.804V207.8H128.492ZM144.459 205.688V220.344H146.139V205.688H144.459ZM134.891 215.496V216.872H136.139C138.715 216.872 140.891 216.776 143.419 216.344L143.243 214.984C140.779 215.4 138.651 215.496 136.139 215.496H134.891ZM134.859 207V208.36H139.979V211.08H134.891V216.008H136.587V212.424H141.675V207H134.859ZM159.258 205.704V220.328H160.922V205.704H159.258ZM160.538 211.576V212.968H163.194V211.576H160.538ZM149.514 207.96V209.304H158.09V207.96H149.514ZM153.85 210.36C151.754 210.36 150.218 211.768 150.218 213.768C150.218 215.784 151.754 217.192 153.85 217.192C155.93 217.192 157.466 215.784 157.466 213.768C157.466 211.768 155.93 210.36 153.85 210.36ZM153.85 211.736C155.018 211.736 155.866 212.536 155.866 213.768C155.866 215 155.018 215.816 153.85 215.816C152.666 215.816 151.818 215 151.818 213.768C151.818 212.536 152.666 211.736 153.85 211.736ZM152.986 205.912V208.52H154.666V205.912H152.986ZM168.825 207.896V209.944C168.825 212.44 167.305 215.176 165.049 216.216L166.009 217.544C168.521 216.344 170.169 213.16 170.169 209.944V207.896H168.825ZM169.177 207.896V209.944C169.177 213.08 170.825 216.04 173.369 217.176L174.297 215.848C172.009 214.888 170.505 212.36 170.505 209.944V207.896H169.177ZM165.577 207.16V208.552H173.753V207.16H165.577ZM175.465 205.704V220.328H177.145V205.704H175.465ZM189.041 206.472C186.833 206.472 185.217 207.88 185.217 209.864C185.217 211.864 186.833 213.272 189.041 213.272C191.249 213.272 192.865 211.864 192.865 209.864C192.865 207.88 191.249 206.472 189.041 206.472ZM189.041 207.848C190.305 207.848 191.249 208.664 191.249 209.864C191.249 211.08 190.305 211.896 189.041 211.896C187.793 211.896 186.833 211.08 186.833 209.864C186.833 208.664 187.793 207.848 189.041 207.848ZM194.753 205.704V212.952H196.433V205.704H194.753ZM195.745 208.872V210.248H198.497V208.872H195.745ZM186.433 218.584V219.944H187.185C188.369 219.944 189.633 219.88 190.945 219.432L190.689 218.104C189.521 218.504 188.241 218.584 187.185 218.584H186.433ZM186.433 214.456V219.032H188.065V214.456H186.433ZM190.433 214.52V215.752H197.745V214.52H190.433ZM194.097 216.2C192.465 216.2 191.329 217 191.329 218.264C191.329 219.528 192.465 220.328 194.097 220.328C195.713 220.328 196.849 219.528 196.849 218.264C196.849 217 195.713 216.2 194.097 216.2ZM194.097 217.368C194.817 217.368 195.361 217.704 195.361 218.264C195.361 218.824 194.817 219.16 194.097 219.16C193.345 219.16 192.817 218.824 192.817 218.264C192.817 217.704 193.345 217.368 194.097 217.368ZM193.281 213.336V215.464H194.913V213.336H193.281ZM202.256 209.896V211.24H212.272V209.896H202.256ZM200.528 213V214.36H213.776V213H200.528ZM202.256 206.232V210.568H203.92V206.232H202.256ZM202.144 218.632V219.992H212.352V218.632H202.144ZM202.144 215.688V219H203.808V215.688H202.144ZM230.888 205.704V213.592H232.552V205.704H230.888ZM227.992 209.224V210.6H231.128V209.224H227.992ZM226.2 206.568V207.384C226.2 209.8 224.36 211.688 220.6 212.616L221.256 213.944C225.592 212.824 227.976 210.344 227.976 206.568H226.2ZM221.368 206.568V207.928H227.384V206.568H221.368ZM223 214.28V220.168H232.552V214.28H230.904V215.912H224.664V214.28H223ZM224.664 217.208H230.904V218.808H224.664V217.208ZM246.375 205.704V220.328H248.039V205.704H246.375ZM236.823 207.112V216.184H238.487V207.112H236.823ZM236.823 215.192V216.632H238.071C240.343 216.632 242.695 216.472 245.223 215.944L245.031 214.536C242.583 215.032 240.247 215.192 238.071 215.192H236.823ZM261.142 205.688V220.344H262.822V205.688H261.142ZM262.438 211.304V212.696H265.094V211.304H262.438ZM252.086 215.368V216.76H253.27C255.926 216.76 257.878 216.68 260.118 216.28L259.942 214.872C257.782 215.272 255.862 215.368 253.27 215.368H252.086ZM252.086 207.08V216.008H253.75V208.44H258.886V207.08H252.086ZM268.661 219.224C269.349 219.224 269.893 218.68 269.893 217.928C269.893 217.16 269.349 216.632 268.661 216.632C267.957 216.632 267.429 217.16 267.429 217.928C267.429 218.68 267.957 219.224 268.661 219.224ZM88.7946 232.704V241.456H90.4746V232.704H88.7946ZM89.7066 236.512V237.888H92.2346V236.512H89.7066ZM80.6186 242.096V243.424H88.7786V247.344H90.4746V242.096H80.6186ZM79.1946 239.104V240.496H79.8826C80.9546 240.496 81.9626 240.48 83.2426 240.208L83.0986 238.816C81.8986 239.088 80.8746 239.104 79.8826 239.104H79.1946ZM79.1946 233.856V239.792H80.7786V235.216H82.8906V233.856H79.1946ZM83.6906 239.104V240.496H84.4426C86.0746 240.496 86.9866 240.464 88.1226 240.192L87.9786 238.816C86.8906 239.072 86.0106 239.104 84.4426 239.104H83.6906ZM83.6906 233.856V239.76H85.2906V235.216H87.5626V233.856H83.6906ZM102.227 246.224C104.275 246.224 106.195 244.736 106.195 242.144C106.195 239.552 104.579 238.4 102.611 238.4C101.971 238.4 101.491 238.544 100.995 238.8L101.267 235.792H105.635V234.224H99.6511L99.2991 239.824L100.211 240.4C100.899 239.952 101.347 239.744 102.083 239.744C103.427 239.744 104.323 240.64 104.323 242.192C104.323 243.76 103.331 244.704 102.003 244.704C100.771 244.704 99.9071 244.112 99.2511 243.44L98.3551 244.64C99.2031 245.472 100.371 246.224 102.227 246.224ZM112.424 246.224C114.728 246.224 116.232 244.16 116.232 240.064C116.232 236 114.728 234.016 112.424 234.016C110.104 234.016 108.616 236 108.616 240.064C108.616 244.16 110.104 246.224 112.424 246.224ZM112.424 244.752C111.224 244.752 110.376 243.472 110.376 240.064C110.376 236.704 111.224 235.456 112.424 235.456C113.624 235.456 114.456 236.704 114.456 240.064C114.456 243.472 113.624 244.752 112.424 244.752ZM118.509 240.32V241.664H131.757V240.32H118.509ZM124.429 241.024V244.256H126.093V241.024H124.429ZM120.125 245.68V247.04H130.285V245.68H120.125ZM120.125 243.04V246.224H121.789V243.04H120.125ZM120.237 233.168V239.088H130.029V233.168H128.365V234.864H121.885V233.168H120.237ZM121.885 236.144H128.365V237.76H121.885V236.144ZM134.556 233.968V240.864H141.388V233.968H134.556ZM139.74 235.312V239.536H136.204V235.312H139.74ZM143.772 232.704V243.392H145.452V232.704H143.772ZM144.956 237.056V238.432H147.516V237.056H144.956ZM136.204 245.68V247.04H146.044V245.68H136.204ZM136.204 242.368V246.32H137.884V242.368H136.204ZM157.684 233.968V234.992C157.684 236.864 156.372 238.656 154.068 239.36L154.916 240.688C157.524 239.84 159.06 237.584 159.06 234.992V233.968H157.684ZM158.02 233.968V234.992C158.02 237.488 159.572 239.632 162.148 240.432L162.98 239.12C160.724 238.448 159.396 236.768 159.396 234.992V233.968H158.02ZM154.532 233.584V234.928H162.516V233.584H154.532ZM164.324 232.704V240.624H166.004V232.704H164.324ZM156.452 241.312V247.152H166.004V241.312H164.34V242.864H158.1V241.312H156.452ZM158.1 244.176H164.34V245.792H158.1V244.176ZM175.235 240.032V242.592H176.899V240.032H175.235ZM169.459 239.456V240.8H182.675V239.456H169.459ZM176.051 242.112C172.899 242.112 171.011 243.04 171.011 244.72C171.011 246.368 172.899 247.312 176.051 247.312C179.187 247.312 181.091 246.368 181.091 244.72C181.091 243.04 179.187 242.112 176.051 242.112ZM176.051 243.392C178.195 243.392 179.395 243.84 179.395 244.72C179.395 245.568 178.195 246.032 176.051 246.032C173.907 246.032 172.707 245.568 172.707 244.72C172.707 243.84 173.907 243.392 176.051 243.392ZM174.947 233.984V234.384C174.947 235.808 172.995 237.12 170.131 237.392L170.707 238.72C174.067 238.352 176.435 236.672 176.435 234.384V233.984H174.947ZM175.715 233.984V234.384C175.715 236.672 178.083 238.352 181.427 238.72L182.019 237.392C179.139 237.12 177.187 235.824 177.187 234.384V233.984H175.715ZM170.675 233.344V234.688H181.491V233.344H170.675ZM184.962 235.072V236.416H192.098V235.072H184.962ZM188.546 237.248C186.722 237.248 185.378 238.656 185.378 240.656C185.378 242.656 186.722 244.048 188.546 244.048C190.386 244.048 191.714 242.656 191.714 240.656C191.714 238.656 190.386 237.248 188.546 237.248ZM188.546 238.656C189.522 238.656 190.226 239.456 190.226 240.656C190.226 241.872 189.522 242.64 188.546 242.64C187.57 242.64 186.866 241.872 186.866 240.656C186.866 239.456 187.57 238.656 188.546 238.656ZM195.842 232.704V247.328H197.442V232.704H195.842ZM193.762 238.768V240.128H196.37V238.768H193.762ZM192.738 233.008V246.656H194.306V233.008H192.738ZM187.73 233.12V235.904H189.378V233.12H187.73ZM201.249 233.904V240.544H208.561V233.904H206.897V235.904H202.913V233.904H201.249ZM202.913 237.216H206.897V239.2H202.913V237.216ZM204.081 240.128V243.424H205.745V240.128H204.081ZM210.193 232.704V247.328H211.873V232.704H210.193ZM211.377 238.704V240.112H214.017V238.704H211.377ZM200.561 244.448C203.073 244.464 206.417 244.432 209.473 243.888L209.345 242.656C206.401 243.056 202.929 243.056 200.337 243.072L200.561 244.448ZM219.119 240.192V244.432H220.783V240.192H219.119ZM224.479 240.192V244.432H226.159V240.192H224.479ZM216.031 244.16V245.536H229.279V244.16H216.031ZM222.623 233.536C219.503 233.536 217.247 235.04 217.247 237.376C217.247 239.696 219.503 241.2 222.623 241.2C225.743 241.2 227.999 239.696 227.999 237.376C227.999 235.04 225.743 233.536 222.623 233.536ZM222.623 234.848C224.831 234.848 226.367 235.824 226.367 237.376C226.367 238.912 224.831 239.888 222.623 239.888C220.415 239.888 218.879 238.912 218.879 237.376C218.879 235.824 220.415 234.848 222.623 234.848ZM233.198 246.224C233.886 246.224 234.43 245.68 234.43 244.928C234.43 244.16 233.886 243.632 233.198 243.632C232.494 243.632 231.966 244.16 231.966 244.928C231.966 245.68 232.494 246.224 233.198 246.224Z" fill="black"/>
<rect opacity="0.3" x="50" y="138.653" width="52" height="16" fill="#6A70FD"/>
<g filter="url(#filter3_d_384_73)">
<rect x="196" y="445.347" width="300" height="300" fill="white"/>
</g>
<g filter="url(#filter4_d_384_73)">
<path d="M363.713 416.886C363.713 416.886 368.5 419.705 370.135 422.653C371.49 425.098 372.118 426.845 371.78 429.62C371.443 432.396 370.659 434.199 368.513 435.99C366.616 437.572 365.025 438.061 362.556 438.115C360.988 438.149 360.5 438.271 359.045 437.688C358.484 439.715 357.168 442.588 357.168 442.588C357.168 442.588 359.136 444.776 360.127 446.367C361.405 448.417 362.251 449.633 362.646 452.016C362.985 454.063 362.901 455.32 362.356 457.323C361.898 459.008 361.452 459.941 360.44 461.364C359.416 462.805 357.206 464.532 357.206 464.532L353.44 466.211C353.44 466.211 351.25 466.573 349.845 466.486C348.323 466.392 347.495 466.077 346.027 465.666C344.253 465.168 343.195 464.965 341.593 464.058C340.191 463.264 338.339 461.525 338.339 461.525L335.479 458.684L333.406 455.227L332.036 451.855L331.367 448.568L331.794 445.058L333.231 442.027C333.231 442.027 334.591 440.327 335.678 439.476C336.765 438.625 338.742 437.712 338.742 437.712L342.029 437.043L345.23 437.076L347.395 437.407L350.433 432.366L347.967 429.217C347.967 429.217 346.839 426.363 346.767 424.441C346.689 422.367 346.771 421.045 347.758 419.219C348.783 417.322 349.836 416.369 351.78 415.435C353.832 414.447 355.299 414.498 357.566 414.714C360.101 414.954 363.713 416.886 363.713 416.886Z" fill="#FF1D1D"/>
<path d="M350.433 432.366C350.794 432.828 351.358 433.547 351.358 433.547C351.358 433.547 354.256 436.364 356.632 437.038C357.386 437.252 358.264 437.623 359.045 437.688M350.433 432.366C349.47 431.137 347.967 429.217 347.967 429.217C347.967 429.217 346.839 426.363 346.767 424.441C346.689 422.367 346.771 421.045 347.758 419.219C348.783 417.322 349.836 416.369 351.78 415.435C353.832 414.447 355.299 414.498 357.566 414.714C360.101 414.954 363.713 416.886 363.713 416.886C363.713 416.886 368.5 419.705 370.135 422.653C371.49 425.098 372.118 426.845 371.78 429.62C371.443 432.396 370.659 434.199 368.513 435.99C366.616 437.572 365.025 438.061 362.556 438.115C360.988 438.149 360.5 438.271 359.045 437.688M350.433 432.366C349.246 434.335 347.395 437.407 347.395 437.407M359.045 437.688C358.484 439.715 357.168 442.588 357.168 442.588M357.168 442.588C357.168 442.588 356.1 447.602 353.999 449.896C352.944 451.048 352.309 451.803 350.85 452.362C349.282 452.963 348.295 453.39 346.553 452.552C344.61 451.616 343.335 450.611 342.769 448.53C342.44 447.323 342.511 446.545 342.801 445.328C343.147 443.882 344.633 441.99 344.633 441.99L347.395 437.407M357.168 442.588C357.168 442.588 359.136 444.776 360.127 446.367C361.405 448.417 362.251 449.633 362.646 452.016C362.985 454.063 362.901 455.32 362.356 457.323C361.898 459.008 361.452 459.941 360.44 461.364C359.416 462.805 357.206 464.532 357.206 464.532L353.44 466.211C353.44 466.211 351.25 466.573 349.845 466.486C348.323 466.392 347.495 466.077 346.027 465.666C344.253 465.168 343.195 464.965 341.593 464.058C340.191 463.264 338.339 461.525 338.339 461.525L335.479 458.684L333.406 455.227L332.036 451.855L331.367 448.568L331.794 445.058L333.231 442.027C333.231 442.027 334.591 440.327 335.678 439.476C336.765 438.625 338.742 437.712 338.742 437.712L342.029 437.043L345.23 437.076L347.395 437.407" stroke="#A60505" stroke-width="0.1"/>
</g>
<g filter="url(#filter5_d_384_73)">
<path d="M333.081 479.339L339.155 462.366C339.155 462.366 340.68 463.556 341.748 464.177C342.502 464.616 343.743 465.186 343.743 465.186L333.081 479.339Z" fill="#D9D9D9"/>
<path d="M333.081 479.339L339.155 462.366C339.155 462.366 340.68 463.556 341.748 464.177C342.502 464.616 343.743 465.186 343.743 465.186L333.081 479.339Z" stroke="black"/>
</g>
<path d="M231.056 537.396V553.62H240.858V537.396H231.056ZM236.984 540.646V550.37H234.956V540.646H236.984ZM247.566 535.056V559.444H251.544V535.056H247.566ZM238.752 543.74V547.094H244.16V543.74H238.752ZM242.522 535.368V558.43H246.422V535.368H242.522ZM256.586 550.786V554.14H258.692C262.696 554.14 266.076 554.062 269.742 553.516L269.378 550.214C265.764 550.734 262.592 550.786 258.692 550.786H256.586ZM256.586 536.98V551.852H260.798V540.36H268.104V536.98H256.586ZM259.81 543.74V546.99H267.87V543.74H259.81ZM270.782 535.082V559.47H274.994V535.082H270.782ZM274.084 544.026V547.458H278.27V544.026H274.084ZM297.118 535.082V552.45H301.33V535.082H297.118ZM284.768 555.778V559.106H301.876V555.778H284.768ZM284.768 550.734V557.208H288.954V550.734H284.768ZM287.94 536.538C284.144 536.538 281.154 539.164 281.154 542.83C281.154 546.444 284.144 549.122 287.94 549.122C291.736 549.122 294.726 546.444 294.726 542.83C294.726 539.164 291.736 536.538 287.94 536.538ZM287.94 540.152C289.448 540.152 290.618 541.036 290.618 542.83C290.618 544.572 289.448 545.482 287.94 545.482C286.432 545.482 285.262 544.572 285.262 542.83C285.262 541.036 286.432 540.152 287.94 540.152ZM311.676 539.112V541.192C311.676 545.274 310.22 549.72 305.826 551.644L308.192 554.946C313.158 552.762 315.004 547.068 315.004 541.192V539.112H311.676ZM312.638 539.112V541.192C312.638 546.808 314.458 552.242 319.45 554.322L321.712 551.02C317.37 549.252 315.94 545.04 315.94 541.192V539.112H312.638ZM306.892 537.318V540.75H320.62V537.318H306.892ZM322.31 535.082V559.47H326.522V535.082H322.31ZM338.624 544.13V547.406H360.698V544.13H338.624ZM341.224 539.918V543.168H358.098V539.918H341.224ZM341.224 535.342V542.804H345.384V538.644H357.916V535.342H341.224ZM341.016 548.368V551.488H353.912V552.32H341.042V556.792H345.176V555.232H358.046V548.368H341.016ZM341.042 556.142V559.314H358.644V556.142H341.042ZM370.576 536.642C366.884 536.642 364.154 540.048 364.154 545.456C364.154 550.916 366.884 554.322 370.576 554.322C374.268 554.322 376.998 550.916 376.998 545.456C376.998 540.048 374.268 536.642 370.576 536.642ZM370.576 540.464C372.058 540.464 372.994 542.05 372.994 545.456C372.994 548.914 372.058 550.5 370.576 550.5C369.12 550.5 368.158 548.914 368.158 545.456C368.158 542.05 369.12 540.464 370.576 540.464ZM380.3 535.03V559.522H384.486V535.03H380.3ZM375.802 543.558V546.912H382.042V543.558H375.802ZM389.034 553.412V556.792H411.108V553.412H389.034ZM397.952 548.524V554.166H402.138V548.524H397.952ZM391.218 536.512V549.33H408.846V536.512H404.686V539.944H395.378V536.512H391.218ZM395.378 543.194H404.686V546.028H395.378V543.194ZM427.2 537.24V540.542H431.724V537.24H427.2ZM427.2 541.634V544.936H431.724V541.634H427.2ZM430.632 535.082V548.94H434.844V535.082H430.632ZM419.53 535.94V537.994C419.53 541.296 418.256 544.728 413.966 546.21L416.254 549.486C421.168 547.744 422.962 543.09 422.962 537.994V535.94H419.53ZM420.388 535.94V537.994C420.388 543.012 422.052 547.51 426.68 549.278L428.994 546.002C424.964 544.52 423.794 541.218 423.794 537.994V535.94H420.388ZM419.764 549.876V550.162C419.764 552.606 418.698 554.998 415.448 556.116L417.476 559.132C421.454 557.702 422.884 554.166 422.884 550.162V549.876H419.764ZM420.856 549.876V550.162C420.856 554.01 422.156 557.884 426.212 559.392L427.928 556.35C424.86 555.05 423.846 552.554 423.846 550.162V549.876H420.856ZM428.578 549.876V550.162C428.578 552.398 427.564 554.946 424.522 556.35L426.212 559.392C430.242 557.832 431.568 553.854 431.568 550.162V549.876H428.578ZM429.618 549.876V550.162C429.618 554.348 430.996 557.78 435 559.132L437.08 556.116C433.752 555.102 432.738 552.762 432.738 550.162V549.876H429.618ZM444.566 548.888V555.232H448.752V548.888H444.566ZM452.262 548.888V555.232H456.448V548.888H452.262ZM439.47 553.516V556.896H461.544V553.516H439.47ZM448.258 537.968V538.514C448.258 541.634 446.308 544.936 440.198 545.846L441.836 549.2C448.804 547.978 451.794 543.714 451.794 538.514V537.968H448.258ZM449.142 537.968V538.514C449.142 543.714 452.184 547.848 459.282 549.044L460.894 545.716C454.628 544.832 452.678 541.634 452.678 538.514V537.968H449.142ZM441.29 536.642V539.944H459.646V536.642H441.29Z" fill="black"/>
<path d="M256.615 622.944V626.448H258.279V622.944H256.615ZM257.447 615.568C254.359 615.568 252.071 617.12 252.071 619.488C252.071 621.872 254.359 623.408 257.447 623.408C260.551 623.408 262.823 621.872 262.823 619.488C262.823 617.12 260.551 615.568 257.447 615.568ZM257.447 616.896C259.639 616.896 261.191 617.904 261.191 619.488C261.191 621.088 259.639 622.08 257.447 622.08C255.271 622.08 253.703 621.088 253.703 619.488C253.703 617.904 255.271 616.896 257.447 616.896ZM250.855 626.16V627.536H264.103V626.16H250.855ZM268.086 617.936V619.28H278.07V617.936H268.086ZM266.358 620.496V621.84H279.606V620.496H266.358ZM268.086 614.896V618.608H269.734V614.896H268.086ZM267.942 622.96V624.24H276.31V625.376H267.958V628.208H269.638V626.592H277.974V622.96H267.942ZM267.958 627.856V629.152H278.438V627.856H267.958ZM295.95 614.704V629.328H297.614V614.704H295.95ZM297.23 620.576V621.968H299.886V620.576H297.23ZM286.206 616.96V618.304H294.782V616.96H286.206ZM290.542 619.36C288.446 619.36 286.91 620.768 286.91 622.768C286.91 624.784 288.446 626.192 290.542 626.192C292.622 626.192 294.158 624.784 294.158 622.768C294.158 620.768 292.622 619.36 290.542 619.36ZM290.542 620.736C291.71 620.736 292.558 621.536 292.558 622.768C292.558 624 291.71 624.816 290.542 624.816C289.358 624.816 288.51 624 288.51 622.768C288.51 621.536 289.358 620.736 290.542 620.736ZM289.678 614.912V617.52H291.358V614.912H289.678ZM303.341 615.232V616.576H311.773V618.016H303.373V621.68H305.069V619.296H313.469V615.232H303.341ZM303.373 620.864V622.208H313.805V620.864H303.373ZM301.789 623.52V624.88H315.037V623.52H301.789ZM307.549 624.032V629.344H309.213V624.032H307.549ZM329.573 618.384V619.76H332.629V618.384H329.573ZM332.149 614.704V623.408H333.829V614.704H332.149ZM328.949 623.792C325.893 623.792 324.021 624.832 324.021 626.56C324.021 628.32 325.893 629.328 328.949 629.328C332.005 629.328 333.877 628.32 333.877 626.56C333.877 624.832 332.005 623.792 328.949 623.792ZM328.949 625.088C331.029 625.088 332.213 625.6 332.213 626.56C332.213 627.52 331.029 628.032 328.949 628.032C326.885 628.032 325.685 627.52 325.685 626.56C325.685 625.6 326.885 625.088 328.949 625.088ZM325.285 616.176V617.248C325.285 619.248 323.989 621.2 321.701 622L322.565 623.328C325.157 622.4 326.645 619.984 326.645 617.248V616.176H325.285ZM325.621 616.176V617.232C325.621 619.76 327.045 622.064 329.573 622.944L330.405 621.616C328.213 620.864 326.965 619.056 326.965 617.232V616.176H325.621ZM322.181 615.696V617.04H330.021V615.696H322.181ZM346.964 614.704V622.08H348.644V614.704H346.964ZM347.94 617.696V619.072H350.692V617.696H347.94ZM337.748 615.472V621.424H344.58V615.472H337.748ZM342.932 616.784V620.096H339.396V616.784H342.932ZM339.204 622.72V624.032H346.996V625.264H339.22V628.496H340.884V626.496H348.644V622.72H339.204ZM339.22 627.824V629.152H349.124V627.824H339.22ZM360.876 615.968V616.992C360.876 618.864 359.564 620.656 357.26 621.36L358.108 622.688C360.716 621.84 362.252 619.584 362.252 616.992V615.968H360.876ZM361.212 615.968V616.992C361.212 619.488 362.764 621.632 365.34 622.432L366.172 621.12C363.916 620.448 362.588 618.768 362.588 616.992V615.968H361.212ZM357.724 615.584V616.928H365.708V615.584H357.724ZM367.516 614.704V622.624H369.196V614.704H367.516ZM359.644 623.312V629.152H369.196V623.312H367.532V624.864H361.292V623.312H359.644ZM361.292 626.176H367.532V627.792H361.292V626.176ZM378.427 622.032V624.592H380.091V622.032H378.427ZM372.651 621.456V622.8H385.867V621.456H372.651ZM379.243 624.112C376.091 624.112 374.203 625.04 374.203 626.72C374.203 628.368 376.091 629.312 379.243 629.312C382.379 629.312 384.283 628.368 384.283 626.72C384.283 625.04 382.379 624.112 379.243 624.112ZM379.243 625.392C381.387 625.392 382.587 625.84 382.587 626.72C382.587 627.568 381.387 628.032 379.243 628.032C377.099 628.032 375.899 627.568 375.899 626.72C375.899 625.84 377.099 625.392 379.243 625.392ZM378.139 615.984V616.384C378.139 617.808 376.187 619.12 373.323 619.392L373.899 620.72C377.259 620.352 379.627 618.672 379.627 616.384V615.984H378.139ZM378.907 615.984V616.384C378.907 618.672 381.275 620.352 384.619 620.72L385.211 619.392C382.331 619.12 380.379 617.824 380.379 616.384V615.984H378.907ZM373.867 615.344V616.688H384.683V615.344H373.867ZM398.97 614.72V623.744H400.554V614.72H398.97ZM396.842 618.608V619.968H399.418V618.608H396.842ZM395.898 614.928V623.552H397.466V614.928H395.898ZM388.106 616.256V617.568H395.37V616.256H388.106ZM391.754 618.176C389.93 618.176 388.618 619.184 388.618 620.704C388.618 622.224 389.93 623.232 391.754 623.232C393.594 623.232 394.89 622.224 394.89 620.704C394.89 619.184 393.594 618.176 391.754 618.176ZM391.754 619.408C392.73 619.408 393.386 619.888 393.386 620.704C393.386 621.504 392.73 622.016 391.754 622.016C390.778 622.016 390.122 621.504 390.122 620.704C390.122 619.888 390.778 619.408 391.754 619.408ZM390.922 614.784V617.12H392.57V614.784H390.922ZM391.882 624.192V624.592C391.882 625.904 390.906 627.312 389.05 627.904L389.834 629.152C392.026 628.4 393.162 626.528 393.162 624.592V624.192H391.882ZM392.298 624.192V624.592C392.298 626.528 393.194 628.496 395.37 629.28L396.042 628.032C394.298 627.376 393.514 625.952 393.514 624.592V624.192H392.298ZM397.21 624.192V624.592C397.21 625.792 396.394 627.312 394.682 628.032L395.37 629.28C397.514 628.448 398.426 626.336 398.426 624.592V624.192H397.21ZM397.594 624.192V624.592C397.594 626.624 398.698 628.432 400.906 629.152L401.706 627.904C399.834 627.36 398.858 625.984 398.858 624.592V624.192H397.594ZM414.585 620.4V621.792H417.225V620.4H414.585ZM413.353 614.688V629.312H415.033V614.688H413.353ZM404.217 616.112V625.184H405.881V616.112H404.217ZM404.217 624.272V625.68H405.417C407.609 625.68 409.897 625.536 412.361 625.024L412.169 623.648C409.785 624.128 407.545 624.272 405.417 624.272H404.217ZM422.311 622.192V626.432H423.975V622.192H422.311ZM427.671 622.192V626.432H429.351V622.192H427.671ZM419.223 626.16V627.536H432.471V626.16H419.223ZM425.815 615.536C422.695 615.536 420.439 617.04 420.439 619.376C420.439 621.696 422.695 623.2 425.815 623.2C428.935 623.2 431.191 621.696 431.191 619.376C431.191 617.04 428.935 615.536 425.815 615.536ZM425.815 616.848C428.023 616.848 429.559 617.824 429.559 619.376C429.559 620.912 428.023 621.888 425.815 621.888C423.607 621.888 422.071 620.912 422.071 619.376C422.071 617.824 423.607 616.848 425.815 616.848ZM436.838 624.256H438.47C438.198 621.856 441.046 620.992 441.046 618.672C441.046 616.784 439.766 615.728 437.894 615.728C436.55 615.728 435.478 616.368 434.694 617.264L435.734 618.224C436.278 617.616 436.934 617.248 437.686 617.248C438.694 617.248 439.254 617.904 439.254 618.8C439.254 620.528 436.454 621.552 436.838 624.256ZM437.686 628.224C438.374 628.224 438.918 627.68 438.918 626.928C438.918 626.16 438.374 625.632 437.686 625.632C436.982 625.632 436.454 626.16 436.454 626.928C436.454 627.68 436.982 628.224 437.686 628.224ZM247.323 641.704V649.08H248.987V641.704H247.323ZM244.107 644.792V646.152H248.011V644.792H244.107ZM240.891 642.152C238.699 642.152 237.083 643.528 237.083 645.496C237.083 647.448 238.699 648.84 240.891 648.84C243.083 648.84 244.699 647.448 244.699 645.496C244.699 643.528 243.083 642.152 240.891 642.152ZM240.891 643.528C242.155 643.528 243.083 644.312 243.083 645.496C243.083 646.696 242.155 647.48 240.891 647.48C239.627 647.48 238.683 646.696 238.683 645.496C238.683 644.312 239.627 643.528 240.891 643.528ZM239.467 649.8V651.112H247.339V652.296H239.499V655.544H241.147V653.528H248.987V649.8H239.467ZM239.499 654.824V656.152H249.483V654.824H239.499ZM252.921 643.128V652.68H259.753V643.128H252.921ZM258.105 644.456V651.352H254.569V644.456H258.105ZM262.057 641.704V656.328H263.737V641.704H262.057ZM263.353 647.4V648.792H266.009V647.4H263.353ZM278.808 647.4V648.792H281.448V647.4H278.808ZM277.576 641.688V656.312H279.256V641.688H277.576ZM268.44 643.112V652.184H270.104V643.112H268.44ZM268.44 651.272V652.68H269.64C271.832 652.68 274.12 652.536 276.584 652.024L276.392 650.648C274.008 651.128 271.768 651.272 269.64 651.272H268.44ZM291.569 642.968V643.992C291.569 645.864 290.257 647.656 287.953 648.36L288.801 649.688C291.409 648.84 292.945 646.584 292.945 643.992V642.968H291.569ZM291.905 642.968V643.992C291.905 646.488 293.457 648.632 296.033 649.432L296.865 648.12C294.609 647.448 293.281 645.768 293.281 643.992V642.968H291.905ZM288.417 642.584V643.928H296.401V642.584H288.417ZM298.209 641.704V649.624H299.889V641.704H298.209ZM290.337 650.312V656.152H299.889V650.312H298.225V651.864H291.985V650.312H290.337ZM291.985 653.176H298.225V654.792H291.985V653.176ZM309.119 649.032V651.592H310.783V649.032H309.119ZM303.343 648.456V649.8H316.559V648.456H303.343ZM309.935 651.112C306.783 651.112 304.895 652.04 304.895 653.72C304.895 655.368 306.783 656.312 309.935 656.312C313.071 656.312 314.975 655.368 314.975 653.72C314.975 652.04 313.071 651.112 309.935 651.112ZM309.935 652.392C312.079 652.392 313.279 652.84 313.279 653.72C313.279 654.568 312.079 655.032 309.935 655.032C307.791 655.032 306.591 654.568 306.591 653.72C306.591 652.84 307.791 652.392 309.935 652.392ZM308.831 642.984V643.384C308.831 644.808 306.879 646.12 304.015 646.392L304.591 647.72C307.951 647.352 310.319 645.672 310.319 643.384V642.984H308.831ZM309.599 642.984V643.384C309.599 645.672 311.967 647.352 315.311 647.72L315.903 646.392C313.023 646.12 311.071 644.824 311.071 643.384V642.984H309.599ZM304.559 642.344V643.688H315.375V642.344H304.559ZM329.662 641.72V650.744H331.246V641.72H329.662ZM327.534 645.608V646.968H330.11V645.608H327.534ZM326.59 641.928V650.552H328.158V641.928H326.59ZM318.798 643.256V644.568H326.062V643.256H318.798ZM322.446 645.176C320.622 645.176 319.31 646.184 319.31 647.704C319.31 649.224 320.622 650.232 322.446 650.232C324.286 650.232 325.582 649.224 325.582 647.704C325.582 646.184 324.286 645.176 322.446 645.176ZM322.446 646.408C323.422 646.408 324.078 646.888 324.078 647.704C324.078 648.504 323.422 649.016 322.446 649.016C321.47 649.016 320.814 648.504 320.814 647.704C320.814 646.888 321.47 646.408 322.446 646.408ZM321.614 641.784V644.12H323.262V641.784H321.614ZM322.574 651.192V651.592C322.574 652.904 321.598 654.312 319.742 654.904L320.526 656.152C322.718 655.4 323.854 653.528 323.854 651.592V651.192H322.574ZM322.99 651.192V651.592C322.99 653.528 323.886 655.496 326.062 656.28L326.734 655.032C324.99 654.376 324.206 652.952 324.206 651.592V651.192H322.99ZM327.902 651.192V651.592C327.902 652.792 327.086 654.312 325.374 655.032L326.062 656.28C328.206 655.448 329.118 653.336 329.118 651.592V651.192H327.902ZM328.286 651.192V651.592C328.286 653.624 329.39 655.432 331.598 656.152L332.398 654.904C330.526 654.36 329.55 652.984 329.55 651.592V651.192H328.286ZM336.109 645.896V647.24H346.125V645.896H336.109ZM334.381 649V650.36H347.629V649H334.381ZM336.109 642.232V646.568H337.773V642.232H336.109ZM335.997 654.632V655.992H346.205V654.632H335.997ZM335.997 651.688V655H337.661V651.688H335.997ZM358.021 643.896V645.944C358.021 648.44 356.501 651.176 354.245 652.216L355.205 653.544C357.717 652.344 359.365 649.16 359.365 645.944V643.896H358.021ZM358.373 643.896V645.944C358.373 649.08 360.021 652.04 362.565 653.176L363.493 651.848C361.205 650.888 359.701 648.36 359.701 645.944V643.896H358.373ZM354.773 643.16V644.552H362.949V643.16H354.773ZM364.661 641.704V656.328H366.341V641.704H364.661ZM374.398 643.176V644.52H382.51V643.176H374.398ZM374.222 652.84C376.75 652.84 380.158 652.776 383.166 652.264L383.07 651.048C380.11 651.416 376.622 651.448 374.03 651.448L374.222 652.84ZM375.822 644.216V651.816H377.454V644.216H375.822ZM379.454 644.216V651.816H381.07V644.216H379.454ZM383.87 641.704V656.328H385.55V641.704H383.87ZM385.166 647.416V648.808H387.822V647.416H385.166ZM393.805 642.536C391.581 642.536 389.933 643.992 389.933 646.056C389.933 648.12 391.581 649.56 393.805 649.56C396.029 649.56 397.693 648.12 397.693 646.056C397.693 643.992 396.029 642.536 393.805 642.536ZM393.805 643.96C395.101 643.96 396.061 644.776 396.061 646.056C396.061 647.336 395.101 648.152 393.805 648.152C392.509 648.152 391.565 647.336 391.565 646.056C391.565 644.776 392.509 643.96 393.805 643.96ZM399.469 641.704V650.28H401.149V641.704H399.469ZM400.685 645.304V646.696H403.213V645.304H400.685ZM391.533 650.984V652.328H399.469V656.344H401.149V650.984H391.533ZM405.227 644.072V645.416H412.363V644.072H405.227ZM408.811 646.248C406.987 646.248 405.643 647.656 405.643 649.656C405.643 651.656 406.987 653.048 408.811 653.048C410.651 653.048 411.979 651.656 411.979 649.656C411.979 647.656 410.651 646.248 408.811 646.248ZM408.811 647.656C409.787 647.656 410.491 648.456 410.491 649.656C410.491 650.872 409.787 651.64 408.811 651.64C407.835 651.64 407.131 650.872 407.131 649.656C407.131 648.456 407.835 647.656 408.811 647.656ZM416.107 641.704V656.328H417.707V641.704H416.107ZM414.027 647.768V649.128H416.635V647.768H414.027ZM413.003 642.008V655.656H414.571V642.008H413.003ZM407.995 642.12V644.904H409.643V642.12H407.995ZM421.514 642.904V649.544H428.826V642.904H427.162V644.904H423.178V642.904H421.514ZM423.178 646.216H427.162V648.2H423.178V646.216ZM424.346 649.128V652.424H426.01V649.128H424.346ZM430.458 641.704V656.328H432.138V641.704H430.458ZM431.642 647.704V649.112H434.282V647.704H431.642ZM420.826 653.448C423.338 653.464 426.682 653.432 429.738 652.888L429.61 651.656C426.666 652.056 423.194 652.056 420.602 652.072L420.826 653.448ZM439.385 649.192V653.432H441.049V649.192H439.385ZM444.745 649.192V653.432H446.425V649.192H444.745ZM436.297 653.16V654.536H449.545V653.16H436.297ZM442.889 642.536C439.769 642.536 437.513 644.04 437.513 646.376C437.513 648.696 439.769 650.2 442.889 650.2C446.009 650.2 448.265 648.696 448.265 646.376C448.265 644.04 446.009 642.536 442.889 642.536ZM442.889 643.848C445.097 643.848 446.633 644.824 446.633 646.376C446.633 647.912 445.097 648.888 442.889 648.888C440.681 648.888 439.145 647.912 439.145 646.376C439.145 644.824 440.681 643.848 442.889 643.848ZM453.464 655.224C454.152 655.224 454.696 654.68 454.696 653.928C454.696 653.16 454.152 652.632 453.464 652.632C452.76 652.632 452.232 653.16 452.232 653.928C452.232 654.68 452.76 655.224 453.464 655.224Z" fill="black"/>
<rect opacity="0.3" x="230" y="548" width="97" height="16" fill="#6A70FD"/>
<g filter="url(#filter6_d_384_73)">
<rect x="378" y="36.3467" width="300" height="300" fill="white"/>
</g>
<g filter="url(#filter7_d_384_73)">
<path d="M545.713 7.88583C545.713 7.88583 550.5 10.7052 552.135 13.6531C553.49 16.098 554.118 17.8449 553.78 20.6202C553.443 23.3955 552.659 25.199 550.513 26.9898C548.616 28.5719 547.025 29.0609 544.556 29.1146C542.988 29.1487 542.5 29.2711 541.045 28.6878C540.484 30.715 539.168 33.588 539.168 33.588C539.168 33.588 541.136 35.7763 542.127 37.3671C543.405 39.4168 544.251 40.633 544.646 43.0158C544.985 45.0635 544.901 46.32 544.356 48.323C543.898 50.0081 543.452 50.9406 542.44 52.3638C541.416 53.8048 539.206 55.532 539.206 55.532L535.44 57.211C535.44 57.211 533.25 57.5731 531.845 57.4861C530.323 57.3918 529.495 57.0773 528.027 56.6656C526.253 56.1683 525.195 55.9655 523.593 55.0578C522.191 54.2644 520.339 52.5251 520.339 52.5251L517.479 49.6842L515.406 46.2267L514.036 42.8546L513.367 39.5678L513.794 36.0582L515.231 33.0275C515.231 33.0275 516.591 31.3272 517.678 30.4759C518.765 29.6246 520.742 28.7115 520.742 28.7115L524.029 28.0428L527.23 28.076L529.395 28.4071L532.433 23.3664L529.967 20.2172C529.967 20.2172 528.839 17.3629 528.767 15.4412C528.689 13.367 528.771 12.0454 529.758 10.2193C530.783 8.32193 531.836 7.36948 533.78 6.43457C535.832 5.44746 537.299 5.49829 539.566 5.71364C542.101 5.95442 545.713 7.88583 545.713 7.88583Z" fill="#FF1D1D"/>
<path d="M532.433 23.3664C532.794 23.8276 533.358 24.5473 533.358 24.5473C533.358 24.5473 536.256 27.3643 538.632 28.038C539.386 28.2518 540.264 28.6226 541.045 28.6878M532.433 23.3664C531.47 22.1365 529.967 20.2172 529.967 20.2172C529.967 20.2172 528.839 17.3629 528.767 15.4412C528.689 13.367 528.771 12.0454 529.758 10.2193C530.783 8.32193 531.836 7.36948 533.78 6.43457C535.832 5.44746 537.299 5.49829 539.566 5.71364C542.101 5.95442 545.713 7.88583 545.713 7.88583C545.713 7.88583 550.5 10.7052 552.135 13.6531C553.49 16.098 554.118 17.8449 553.78 20.6202C553.443 23.3955 552.659 25.199 550.513 26.9898C548.616 28.5719 547.025 29.0609 544.556 29.1146C542.988 29.1487 542.5 29.2711 541.045 28.6878M532.433 23.3664C531.246 25.3349 529.395 28.4071 529.395 28.4071M541.045 28.6878C540.484 30.715 539.168 33.588 539.168 33.588M539.168 33.588C539.168 33.588 538.1 38.6023 535.999 40.8958C534.944 42.0475 534.309 42.8032 532.85 43.362C531.282 43.9629 530.295 44.3901 528.553 43.5517C526.61 42.6164 525.335 41.6109 524.769 39.5299C524.44 38.3235 524.511 37.5446 524.801 36.3285C525.147 34.8819 526.633 32.9895 526.633 32.9895L529.395 28.4071M539.168 33.588C539.168 33.588 541.136 35.7763 542.127 37.3671C543.405 39.4168 544.251 40.633 544.646 43.0158C544.985 45.0635 544.901 46.32 544.356 48.323C543.898 50.0081 543.452 50.9406 542.44 52.3638C541.416 53.8048 539.206 55.532 539.206 55.532L535.44 57.211C535.44 57.211 533.25 57.5731 531.845 57.4861C530.323 57.3918 529.495 57.0773 528.027 56.6656C526.253 56.1683 525.195 55.9655 523.593 55.0578C522.191 54.2644 520.339 52.5251 520.339 52.5251L517.479 49.6842L515.406 46.2267L514.036 42.8546L513.367 39.5678L513.794 36.0582L515.231 33.0275C515.231 33.0275 516.591 31.3272 517.678 30.4759C518.765 29.6246 520.742 28.7115 520.742 28.7115L524.029 28.0428L527.23 28.076L529.395 28.4071" stroke="#A60505" stroke-width="0.1"/>
</g>
<g filter="url(#filter8_d_384_73)">
<path d="M515.081 70.3392L521.155 53.3658C521.155 53.3658 522.68 54.5563 523.748 55.1772C524.502 55.6163 525.743 56.186 525.743 56.186L515.081 70.3392Z" fill="#D9D9D9"/>
<path d="M515.081 70.3392L521.155 53.3658C521.155 53.3658 522.68 54.5563 523.748 55.1772C524.502 55.6163 525.743 56.186 525.743 56.186L515.081 70.3392Z" stroke="black"/>
</g>
<path d="M430.761 127.824V130.918C430.761 135.728 429.253 140.434 424.677 142.358L427.147 145.816C432.451 143.45 434.167 137.548 434.167 130.918V127.824H430.761ZM431.619 127.824V130.918C431.619 137.262 433.283 142.904 438.431 145.192L440.849 141.786C436.377 139.94 434.999 135.468 434.999 130.918V127.824H431.619ZM441.265 126.03V150.522H445.477V126.03H441.265ZM458.969 127.33V129.02C458.969 132.166 456.785 136.118 450.623 137.132L452.391 140.616C459.489 139.316 462.609 134.298 462.609 129.02V127.33H458.969ZM459.827 127.33V129.02C459.827 134.402 462.921 139.29 470.045 140.616L471.813 137.132C465.599 136.118 463.467 132.27 463.467 129.02V127.33H459.827ZM450.311 144.256V147.662H472.385V144.256H450.311ZM485.721 131.802V135.13H489.179V131.802H485.721ZM476.361 136.638V139.914H478.103C481.535 139.914 483.875 139.888 486.605 139.42L486.267 136.196C483.615 136.586 481.405 136.638 478.103 136.638H476.361ZM476.361 127.434V138.536H480.391V130.71H485.539V127.434H476.361ZM479.221 132.088V135.208H484.707V132.088H479.221ZM492.455 126.082V140.538H496.433V126.082H492.455ZM487.645 126.394V140.382H491.545V126.394H487.645ZM479.611 141.422V150.236H496.433V141.422H479.611ZM492.325 144.672V146.96H483.745V144.672H492.325ZM516.919 126.03V150.522H521.131V126.03H516.919ZM507.845 127.642C504.101 127.642 501.319 131.048 501.319 136.456C501.319 141.916 504.101 145.322 507.845 145.322C511.589 145.322 514.371 141.916 514.371 136.456C514.371 131.048 511.589 127.642 507.845 127.642ZM507.845 131.464C509.353 131.464 510.341 133.05 510.341 136.456C510.341 139.914 509.353 141.5 507.845 141.5C506.337 141.5 505.349 139.914 505.349 136.456C505.349 133.05 506.337 131.464 507.845 131.464ZM542.125 138.354V142.67H546.311V138.354H542.125ZM533.181 136.976V140.278H555.255V136.976H533.181ZM544.153 141.552C538.849 141.552 535.625 143.164 535.625 146.024C535.625 148.884 538.849 150.496 544.153 150.496C549.457 150.496 552.681 148.884 552.681 146.024C552.681 143.164 549.457 141.552 544.153 141.552ZM544.153 144.698C547.117 144.698 548.443 145.036 548.443 146.024C548.443 146.986 547.117 147.35 544.153 147.35C541.189 147.35 539.863 146.986 539.863 146.024C539.863 145.036 541.189 144.698 544.153 144.698ZM541.293 128.526V129.046C541.293 130.476 539.837 132.608 533.961 133.05L535.391 136.326C542.333 135.754 545.011 132.582 545.011 129.046V128.526H541.293ZM543.425 128.526V129.046C543.425 132.608 546.103 135.754 553.045 136.326L554.475 133.05C548.573 132.608 547.143 130.502 547.143 129.046V128.526H543.425ZM535.183 127.018V130.294H553.279V127.018H535.183ZM562.975 138.354V144.958H567.161V138.354H562.975ZM571.737 138.354V144.958H575.923V138.354H571.737ZM558.425 144.412V147.792H580.499V144.412H558.425ZM569.449 127.07C564.145 127.07 560.193 129.696 560.193 133.778C560.193 137.834 564.145 140.46 569.449 140.46C574.753 140.46 578.705 137.834 578.705 133.778C578.705 129.696 574.753 127.07 569.449 127.07ZM569.449 130.32C572.569 130.32 574.545 131.516 574.545 133.778C574.545 136.014 572.569 137.236 569.449 137.236C566.329 137.236 564.353 136.014 564.353 133.778C564.353 131.516 566.329 130.32 569.449 130.32ZM583.617 129.462V132.764H595.057V129.462H583.617ZM589.389 133.57C586.269 133.57 583.981 136.014 583.981 139.498C583.981 142.982 586.269 145.426 589.389 145.426C592.535 145.426 594.797 142.982 594.797 139.498C594.797 136.014 592.535 133.57 589.389 133.57ZM589.389 137.028C590.403 137.028 591.105 137.834 591.105 139.498C591.105 141.188 590.403 141.968 589.389 141.968C588.375 141.968 587.673 141.188 587.673 139.498C587.673 137.834 588.375 137.028 589.389 137.028ZM600.777 126.056V150.444H604.755V126.056H600.777ZM598.385 135.78V139.134H602.077V135.78H598.385ZM595.707 126.446V149.508H599.607V126.446H595.707ZM587.335 126.68V131.568H591.469V126.68H587.335ZM613.411 138.354V144.958H617.597V138.354H613.411ZM622.173 138.354V144.958H626.359V138.354H622.173ZM608.861 144.412V147.792H630.935V144.412H608.861ZM619.885 127.07C614.581 127.07 610.629 129.696 610.629 133.778C610.629 137.834 614.581 140.46 619.885 140.46C625.189 140.46 629.141 137.834 629.141 133.778C629.141 129.696 625.189 127.07 619.885 127.07ZM619.885 130.32C623.005 130.32 624.981 131.516 624.981 133.778C624.981 136.014 623.005 137.236 619.885 137.236C616.765 137.236 614.789 136.014 614.789 133.778C614.789 131.516 616.765 130.32 619.885 130.32Z" fill="black"/>
<path d="M420.15 209.896V211.944C420.15 214.392 418.646 217.144 416.406 218.216L417.366 219.544C419.83 218.328 421.478 215.096 421.478 211.944V209.896H420.15ZM420.486 209.896V211.944C420.486 214.936 422.07 217.992 424.534 219.176L425.478 217.848C423.238 216.808 421.814 214.216 421.814 211.944V209.896H420.486ZM416.95 209.16V210.552H424.902V209.16H416.95ZM426.342 207.704V222.328H428.022V207.704H426.342ZM427.638 213.464V214.856H430.294V213.464H427.638ZM442.581 207.72V218.408H444.261V207.72H442.581ZM434.709 220.68V222.04H444.677V220.68H434.709ZM434.709 217.4V221.352H436.389V217.4H434.709ZM435.845 208.52V209.976C435.845 212.088 434.581 214.184 432.261 215.032L433.125 216.376C435.749 215.384 437.237 212.824 437.237 209.976V208.52H435.845ZM436.165 208.52V209.976C436.165 212.776 437.637 215.176 440.213 216.104L441.077 214.776C438.805 213.992 437.541 212.04 437.541 209.976V208.52H436.165ZM448.355 209.24V210.584H454.835V209.24H448.355ZM450.467 213.416V218.376H452.115V213.416H450.467ZM454.147 209.24V210.2C454.147 211.48 454.147 213.272 453.747 215.784L455.395 215.928C455.811 213.336 455.811 211.496 455.811 210.2V209.24H454.147ZM457.379 207.704V222.328H459.043V207.704H457.379ZM458.579 213.704V215.112H461.219V213.704H458.579ZM447.763 219.24C450.323 219.24 453.683 219.176 456.675 218.68L456.595 217.448C453.667 217.816 450.195 217.864 447.587 217.864L447.763 219.24ZM467.97 208.728C465.682 208.728 463.986 210.168 463.986 212.232C463.986 214.312 465.682 215.752 467.97 215.752C470.258 215.752 471.922 214.312 471.922 212.232C471.922 210.168 470.258 208.728 467.97 208.728ZM467.97 210.168C469.298 210.168 470.29 210.968 470.29 212.232C470.29 213.496 469.298 214.312 467.97 214.312C466.626 214.312 465.634 213.496 465.634 212.232C465.634 210.968 466.626 210.168 467.97 210.168ZM473.602 207.688V222.344H475.282V207.688H473.602ZM463.522 219.256C466.098 219.256 469.618 219.224 472.85 218.6L472.722 217.384C469.57 217.848 465.938 217.88 463.314 217.88L463.522 219.256ZM494.059 209.784V211.176H496.587V209.784H494.059ZM494.059 212.936V214.312H496.587V212.936H494.059ZM492.891 207.704V216.36H494.571V207.704H492.891ZM484.955 217.016V218.36H492.891V222.328H494.571V217.016H484.955ZM487.227 208.536C485.003 208.536 483.355 209.992 483.355 212.056C483.355 214.12 485.003 215.56 487.227 215.56C489.451 215.56 491.115 214.12 491.115 212.056C491.115 209.992 489.451 208.536 487.227 208.536ZM487.227 209.96C488.523 209.96 489.483 210.776 489.483 212.056C489.483 213.336 488.523 214.152 487.227 214.152C485.931 214.152 484.987 213.336 484.987 212.056C484.987 210.776 485.931 209.96 487.227 209.96ZM498.665 214.936V216.28H511.913V214.936H498.665ZM504.425 212.856V215.528H506.089V212.856H504.425ZM504.409 207.944V208.504C504.409 210.312 502.313 211.96 499.401 212.328L500.025 213.656C503.337 213.144 505.849 211.16 505.849 208.504V207.944H504.409ZM504.681 207.944V208.504C504.681 211.192 507.193 213.128 510.489 213.656L511.113 212.328C508.201 211.96 506.105 210.344 506.105 208.504V207.944H504.681ZM500.137 217.528V218.856H508.601V222.328H510.265V217.528H500.137ZM514.184 215.288V216.632H527.4V215.288H514.184ZM515.848 220.68V222.04H525.928V220.68H515.848ZM515.848 217.784V221.096H517.528V217.784H515.848ZM520.792 208.168C517.64 208.168 515.592 209.288 515.592 211.128C515.592 212.968 517.64 214.088 520.792 214.088C523.944 214.088 526.008 212.968 526.008 211.128C526.008 209.288 523.944 208.168 520.792 208.168ZM520.792 209.512C522.952 209.512 524.28 210.104 524.28 211.128C524.28 212.168 522.952 212.744 520.792 212.744C518.648 212.744 517.32 212.168 517.32 211.128C517.32 210.104 518.648 209.512 520.792 209.512ZM538.049 208.776C535.889 208.776 534.353 210.776 534.353 213.928C534.353 217.08 535.889 219.096 538.049 219.096C540.209 219.096 541.745 217.08 541.745 213.928C541.745 210.776 540.209 208.776 538.049 208.776ZM538.049 210.296C539.313 210.296 540.161 211.656 540.161 213.928C540.161 216.216 539.313 217.592 538.049 217.592C536.801 217.592 535.953 216.216 535.953 213.928C535.953 211.656 536.801 210.296 538.049 210.296ZM544.577 207.688V222.344H546.241V207.688H544.577ZM541.233 213.144V214.488H545.297V213.144H541.233ZM559.999 207.704V215.112H561.679V207.704H559.999ZM555.471 208.344V209.256C555.471 211.528 553.727 213.272 549.855 214.056L550.447 215.416C554.895 214.44 557.311 212.2 557.311 208.344H555.471ZM550.607 208.344V209.688H556.623V208.344H550.607ZM552.095 215.768V217.08H559.999V218.28H552.127V221.448H553.791V219.512H561.679V215.768H552.095ZM552.127 220.872V222.184H562.111V220.872H552.127ZM575.272 208.184V208.936C575.272 210.856 573.096 212.68 570.136 213.096L570.792 214.456C574.168 213.912 576.744 211.736 576.744 208.936V208.184H575.272ZM575.576 208.184V208.936C575.576 211.72 578.152 213.912 581.528 214.456L582.184 213.096C579.224 212.68 577.032 210.824 577.032 208.936V208.184H575.576ZM575.272 216.856V222.328H576.936V216.856H575.272ZM569.544 215.8V217.176H582.76V215.8H569.544ZM592.928 216.648V217.304C592.928 218.712 591.968 220.232 590.096 220.888L590.912 222.12C593.104 221.32 594.208 219.352 594.208 217.304V216.648H592.928ZM593.328 216.648V217.304C593.328 219.336 594.224 221.416 596.432 222.264L597.12 221C595.36 220.28 594.544 218.744 594.544 217.304V216.648H593.328ZM598.304 216.648V217.304C598.304 218.584 597.488 220.216 595.744 221L596.432 222.264C598.592 221.368 599.52 219.16 599.52 217.304V216.648H598.304ZM598.672 216.648V217.304C598.672 219.448 599.744 221.352 601.968 222.12L602.784 220.888C600.896 220.28 599.952 218.808 599.952 217.304V216.648H598.672ZM599.824 207.72V216.024H601.504V207.72H599.824ZM593.616 208.52C591.376 208.52 589.728 209.928 589.728 211.976C589.728 213.992 591.376 215.416 593.616 215.416C595.856 215.416 597.488 213.992 597.488 211.976C597.488 209.928 595.856 208.52 593.616 208.52ZM593.616 209.912C594.912 209.912 595.856 210.728 595.856 211.976C595.856 213.224 594.912 214.024 593.616 214.024C592.32 214.024 591.36 213.224 591.36 211.976C591.36 210.728 592.32 209.912 593.616 209.912ZM608.911 208.776C606.751 208.776 605.215 210.776 605.215 213.928C605.215 217.08 606.751 219.096 608.911 219.096C611.071 219.096 612.607 217.08 612.607 213.928C612.607 210.776 611.071 208.776 608.911 208.776ZM608.911 210.296C610.175 210.296 611.023 211.656 611.023 213.928C611.023 216.216 610.175 217.592 608.911 217.592C607.663 217.592 606.815 216.216 606.815 213.928C606.815 211.656 607.663 210.296 608.911 210.296ZM615.439 207.688V222.344H617.103V207.688H615.439ZM612.095 213.144V214.488H616.159V213.144H612.095ZM623.582 215.192V219.432H625.246V215.192H623.582ZM628.942 215.192V219.432H630.622V215.192H628.942ZM620.494 219.16V220.536H633.742V219.16H620.494ZM627.086 208.536C623.966 208.536 621.71 210.04 621.71 212.376C621.71 214.696 623.966 216.2 627.086 216.2C630.206 216.2 632.462 214.696 632.462 212.376C632.462 210.04 630.206 208.536 627.086 208.536ZM627.086 209.848C629.294 209.848 630.83 210.824 630.83 212.376C630.83 213.912 629.294 214.888 627.086 214.888C624.878 214.888 623.342 213.912 623.342 212.376C623.342 210.824 624.878 209.848 627.086 209.848ZM637.661 221.224C638.349 221.224 638.893 220.68 638.893 219.928C638.893 219.16 638.349 218.632 637.661 218.632C636.957 218.632 636.429 219.16 636.429 219.928C636.429 220.68 636.957 221.224 637.661 221.224ZM444.057 230.688V245.344H445.737V230.688H444.057ZM445.353 236.304V237.696H448.009V236.304H445.353ZM435.001 240.368V241.76H436.185C438.841 241.76 440.793 241.68 443.033 241.28L442.857 239.872C440.697 240.272 438.777 240.368 436.185 240.368H435.001ZM435.001 232.08V241.008H436.665V233.44H441.801V232.08H435.001ZM449.912 238.72V240.064H463.16V238.72H449.912ZM451.624 243.68V245.04H461.832V243.68H451.624ZM451.624 241.056V244.24H453.288V241.056H451.624ZM451.576 231.12V232.416H459.848V233.728H451.592V236.704H453.256V234.944H461.496V231.12H451.576ZM451.592 236.288V237.584H461.8V236.288H451.592ZM473.281 231.904V234.304C473.281 237.008 471.857 239.808 469.585 240.912L470.609 242.256C473.121 240.976 474.641 237.712 474.641 234.304V231.904H473.281ZM473.601 231.904V234.304C473.601 237.6 475.057 240.72 477.489 241.984L478.513 240.656C476.321 239.568 474.945 236.912 474.945 234.304V231.904H473.601ZM479.489 230.704V245.328H481.169V230.704H479.489ZM480.785 236.496V237.888H483.441V236.496H480.785ZM495.087 230.72V239.408H496.767V230.72H495.087ZM496.271 234.32V235.712H498.831V234.32H496.271ZM487.423 240.096V245.152H496.767V240.096H487.423ZM495.135 241.408V243.808H489.071V241.408H495.135ZM485.935 237.392V238.768H487.119C489.935 238.768 491.823 238.688 494.015 238.288L493.871 236.944C491.711 237.328 489.871 237.392 487.119 237.392H485.935ZM485.903 231.472V232.816H490.879V234.416H485.935V238.16H487.583V235.68H492.527V231.472H485.903ZM501.502 232.24V233.584H507.982V232.24H501.502ZM503.614 236.416V241.376H505.262V236.416H503.614ZM507.294 232.24V233.2C507.294 234.48 507.294 236.272 506.894 238.784L508.542 238.928C508.958 236.336 508.958 234.496 508.958 233.2V232.24H507.294ZM510.526 230.704V245.328H512.19V230.704H510.526ZM511.726 236.704V238.112H514.366V236.704H511.726ZM500.91 242.24C503.47 242.24 506.83 242.176 509.822 241.68L509.742 240.448C506.814 240.816 503.342 240.864 500.734 240.864L500.91 242.24ZM531.687 232.784V234.176H534.215V232.784H531.687ZM531.687 235.936V237.312H534.215V235.936H531.687ZM530.519 230.704V239.36H532.199V230.704H530.519ZM522.583 240.016V241.36H530.519V245.328H532.199V240.016H522.583ZM524.855 231.536C522.631 231.536 520.983 232.992 520.983 235.056C520.983 237.12 522.631 238.56 524.855 238.56C527.079 238.56 528.743 237.12 528.743 235.056C528.743 232.992 527.079 231.536 524.855 231.536ZM524.855 232.96C526.151 232.96 527.111 233.776 527.111 235.056C527.111 236.336 526.151 237.152 524.855 237.152C523.559 237.152 522.615 236.336 522.615 235.056C522.615 233.776 523.559 232.96 524.855 232.96ZM536.293 237.936V239.28H549.541V237.936H536.293ZM542.053 235.856V238.528H543.717V235.856H542.053ZM542.037 230.944V231.504C542.037 233.312 539.941 234.96 537.029 235.328L537.653 236.656C540.965 236.144 543.477 234.16 543.477 231.504V230.944H542.037ZM542.309 230.944V231.504C542.309 234.192 544.821 236.128 548.117 236.656L548.741 235.328C545.829 234.96 543.733 233.344 543.733 231.504V230.944H542.309ZM537.765 240.528V241.856H546.229V245.328H547.893V240.528H537.765ZM551.796 233.072V234.416H558.932V233.072H551.796ZM555.38 235.248C553.556 235.248 552.212 236.656 552.212 238.656C552.212 240.656 553.556 242.048 555.38 242.048C557.22 242.048 558.548 240.656 558.548 238.656C558.548 236.656 557.22 235.248 555.38 235.248ZM555.38 236.656C556.356 236.656 557.06 237.456 557.06 238.656C557.06 239.872 556.356 240.64 555.38 240.64C554.404 240.64 553.7 239.872 553.7 238.656C553.7 237.456 554.404 236.656 555.38 236.656ZM562.676 230.704V245.328H564.276V230.704H562.676ZM560.596 236.768V238.128H563.204V236.768H560.596ZM559.572 231.008V244.656H561.14V231.008H559.572ZM554.564 231.12V233.904H556.212V231.12H554.564ZM571.741 242.16V243.536H584.989V242.16H571.741ZM577.501 238.832V242.528H579.165V238.832H577.501ZM573.213 231.696V239.232H583.453V231.696H581.789V234.144H574.893V231.696H573.213ZM574.893 235.472H581.789V237.872H574.893V235.472ZM591.147 231.776C588.971 231.776 587.403 233.776 587.403 236.928C587.403 240.08 588.971 242.096 591.147 242.096C593.323 242.096 594.891 240.08 594.891 236.928C594.891 233.776 593.323 231.776 591.147 231.776ZM591.147 233.296C592.411 233.296 593.291 234.656 593.291 236.928C593.291 239.216 592.411 240.592 591.147 240.592C589.883 240.592 589.003 239.216 589.003 236.928C589.003 234.656 589.883 233.296 591.147 233.296ZM596.907 230.704V245.328H598.587V230.704H596.907ZM598.203 236.4V237.792H600.859V236.4H598.203ZM605.866 238.192V242.432H607.53V238.192H605.866ZM611.226 238.192V242.432H612.906V238.192H611.226ZM602.778 242.16V243.536H616.026V242.16H602.778ZM609.37 231.536C606.25 231.536 603.994 233.04 603.994 235.376C603.994 237.696 606.25 239.2 609.37 239.2C612.49 239.2 614.746 237.696 614.746 235.376C614.746 233.04 612.49 231.536 609.37 231.536ZM609.37 232.848C611.578 232.848 613.114 233.824 613.114 235.376C613.114 236.912 611.578 237.888 609.37 237.888C607.162 237.888 605.626 236.912 605.626 235.376C605.626 233.824 607.162 232.848 609.37 232.848ZM619.945 244.224C620.633 244.224 621.177 243.68 621.177 242.928C621.177 242.16 620.633 241.632 619.945 241.632C619.241 241.632 618.713 242.16 618.713 242.928C618.713 243.68 619.241 244.224 619.945 244.224Z" fill="black"/>
<rect opacity="0.3" x="423" y="138.653" width="76" height="16" fill="#6A70FD"/>
<defs>
<filter id="filter0_d_384_73" x="0" y="34.3467" width="320" height="320" filterUnits="userSpaceOnUse" color-interpolation-filters="sRGB">
<feFlood flood-opacity="0" result="BackgroundImageFix"/>
<feColorMatrix in="SourceAlpha" type="matrix" values="0 0 0 0 0 0 0 0 0 0 0 0 0 0 0 0 0 0 127 0" result="hardAlpha"/>
<feOffset dx="1" dy="8"/>
<feGaussianBlur stdDeviation="5"/>
<feComposite in2="hardAlpha" operator="out"/>
<feColorMatrix type="matrix" values="0 0 0 0 0 0 0 0 0 0 0 0 0 0 0 0 0 0 0.25 0"/>
<feBlend mode="normal" in2="BackgroundImageFix" result="effect1_dropShadow_384_73"/>
<feBlend mode="normal" in="SourceGraphic" in2="effect1_dropShadow_384_73" result="shape"/>
</filter>
<filter id="filter1_d_384_73" x="140.316" y="5.53516" width="48.604" height="60.0146" filterUnits="userSpaceOnUse" color-interpolation-filters="sRGB">
<feFlood flood-opacity="0" result="BackgroundImageFix"/>
<feColorMatrix in="SourceAlpha" type="matrix" values="0 0 0 0 0 0 0 0 0 0 0 0 0 0 0 0 0 0 127 0" result="hardAlpha"/>
<feOffset dy="4"/>
<feGaussianBlur stdDeviation="2"/>
<feComposite in2="hardAlpha" operator="out"/>
<feColorMatrix type="matrix" values="0 0 0 0 0 0 0 0 0 0 0 0 0 0 0 0 0 0 0.25 0"/>
<feBlend mode="normal" in2="BackgroundImageFix" result="effect1_dropShadow_384_73"/>
<feBlend mode="normal" in="SourceGraphic" in2="effect1_dropShadow_384_73" result="shape"/>
</filter>
<filter id="filter2_d_384_73" x="142.081" y="53.3662" width="18.6626" height="24.9727" filterUnits="userSpaceOnUse" color-interpolation-filters="sRGB">
<feFlood flood-opacity="0" result="BackgroundImageFix"/>
<feColorMatrix in="SourceAlpha" type="matrix" values="0 0 0 0 0 0 0 0 0 0 0 0 0 0 0 0 0 0 127 0" result="hardAlpha"/>
<feOffset dy="4"/>
<feGaussianBlur stdDeviation="2"/>
<feComposite in2="hardAlpha" operator="out"/>
<feColorMatrix type="matrix" values="0 0 0 0 0 0 0 0 0 0 0 0 0 0 0 0 0 0 0.25 0"/>
<feBlend mode="normal" in2="BackgroundImageFix" result="effect1_dropShadow_384_73"/>
<feBlend mode="normal" in="SourceGraphic" in2="effect1_dropShadow_384_73" result="shape"/>
</filter>
<filter id="filter3_d_384_73" x="187" y="443.347" width="320" height="320" filterUnits="userSpaceOnUse" color-interpolation-filters="sRGB">
<feFlood flood-opacity="0" result="BackgroundImageFix"/>
<feColorMatrix in="SourceAlpha" type="matrix" values="0 0 0 0 0 0 0 0 0 0 0 0 0 0 0 0 0 0 127 0" result="hardAlpha"/>
<feOffset dx="1" dy="8"/>
<feGaussianBlur stdDeviation="5"/>
<feComposite in2="hardAlpha" operator="out"/>
<feColorMatrix type="matrix" values="0 0 0 0 0 0 0 0 0 0 0 0 0 0 0 0 0 0 0.25 0"/>
<feBlend mode="normal" in2="BackgroundImageFix" result="effect1_dropShadow_384_73"/>
<feBlend mode="normal" in="SourceGraphic" in2="effect1_dropShadow_384_73" result="shape"/>
</filter>
<filter id="filter4_d_384_73" x="327.316" y="414.535" width="48.604" height="60.0146" filterUnits="userSpaceOnUse" color-interpolation-filters="sRGB">
<feFlood flood-opacity="0" result="BackgroundImageFix"/>
<feColorMatrix in="SourceAlpha" type="matrix" values="0 0 0 0 0 0 0 0 0 0 0 0 0 0 0 0 0 0 127 0" result="hardAlpha"/>
<feOffset dy="4"/>
<feGaussianBlur stdDeviation="2"/>
<feComposite in2="hardAlpha" operator="out"/>
<feColorMatrix type="matrix" values="0 0 0 0 0 0 0 0 0 0 0 0 0 0 0 0 0 0 0.25 0"/>
<feBlend mode="normal" in2="BackgroundImageFix" result="effect1_dropShadow_384_73"/>
<feBlend mode="normal" in="SourceGraphic" in2="effect1_dropShadow_384_73" result="shape"/>
</filter>
<filter id="filter5_d_384_73" x="329.081" y="462.366" width="18.6626" height="24.9727" filterUnits="userSpaceOnUse" color-interpolation-filters="sRGB">
<feFlood flood-opacity="0" result="BackgroundImageFix"/>
<feColorMatrix in="SourceAlpha" type="matrix" values="0 0 0 0 0 0 0 0 0 0 0 0 0 0 0 0 0 0 127 0" result="hardAlpha"/>
<feOffset dy="4"/>
<feGaussianBlur stdDeviation="2"/>
<feComposite in2="hardAlpha" operator="out"/>
<feColorMatrix type="matrix" values="0 0 0 0 0 0 0 0 0 0 0 0 0 0 0 0 0 0 0.25 0"/>
<feBlend mode="normal" in2="BackgroundImageFix" result="effect1_dropShadow_384_73"/>
<feBlend mode="normal" in="SourceGraphic" in2="effect1_dropShadow_384_73" result="shape"/>
</filter>
<filter id="filter6_d_384_73" x="369" y="34.3467" width="320" height="320" filterUnits="userSpaceOnUse" color-interpolation-filters="sRGB">
<feFlood flood-opacity="0" result="BackgroundImageFix"/>
<feColorMatrix in="SourceAlpha" type="matrix" values="0 0 0 0 0 0 0 0 0 0 0 0 0 0 0 0 0 0 127 0" result="hardAlpha"/>
<feOffset dx="1" dy="8"/>
<feGaussianBlur stdDeviation="5"/>
<feComposite in2="hardAlpha" operator="out"/>
<feColorMatrix type="matrix" values="0 0 0 0 0 0 0 0 0 0 0 0 0 0 0 0 0 0 0.25 0"/>
<feBlend mode="normal" in2="BackgroundImageFix" result="effect1_dropShadow_384_73"/>
<feBlend mode="normal" in="SourceGraphic" in2="effect1_dropShadow_384_73" result="shape"/>
</filter>
<filter id="filter7_d_384_73" x="509.316" y="5.53516" width="48.604" height="60.0146" filterUnits="userSpaceOnUse" color-interpolation-filters="sRGB">
<feFlood flood-opacity="0" result="BackgroundImageFix"/>
<feColorMatrix in="SourceAlpha" type="matrix" values="0 0 0 0 0 0 0 0 0 0 0 0 0 0 0 0 0 0 127 0" result="hardAlpha"/>
<feOffset dy="4"/>
<feGaussianBlur stdDeviation="2"/>
<feComposite in2="hardAlpha" operator="out"/>
<feColorMatrix type="matrix" values="0 0 0 0 0 0 0 0 0 0 0 0 0 0 0 0 0 0 0.25 0"/>
<feBlend mode="normal" in2="BackgroundImageFix" result="effect1_dropShadow_384_73"/>
<feBlend mode="normal" in="SourceGraphic" in2="effect1_dropShadow_384_73" result="shape"/>
</filter>
<filter id="filter8_d_384_73" x="511.081" y="53.3662" width="18.6626" height="24.9727" filterUnits="userSpaceOnUse" color-interpolation-filters="sRGB">
<feFlood flood-opacity="0" result="BackgroundImageFix"/>
<feColorMatrix in="SourceAlpha" type="matrix" values="0 0 0 0 0 0 0 0 0 0 0 0 0 0 0 0 0 0 127 0" result="hardAlpha"/>
<feOffset dy="4"/>
<feGaussianBlur stdDeviation="2"/>
<feComposite in2="hardAlpha" operator="out"/>
<feColorMatrix type="matrix" values="0 0 0 0 0 0 0 0 0 0 0 0 0 0 0 0 0 0 0.25 0"/>
<feBlend mode="normal" in2="BackgroundImageFix" result="effect1_dropShadow_384_73"/>
<feBlend mode="normal" in="SourceGraphic" in2="effect1_dropShadow_384_73" result="shape"/>
</filter>
</defs>
</svg>
